<?xml version="1.0" standalone="no"?>
<!DOCTYPE svg PUBLIC "-//W3C//DTD SVG 1.1//EN" "http://www.w3.org/Graphics/SVG/1.1/DTD/svg11.dtd" >
<svg xmlns="http://www.w3.org/2000/svg" xmlns:xlink="http://www.w3.org/1999/xlink" version="1.1">
<metadata>
Created by FontForge 20170731 at Thu Apr 10 00:48:03 2008
 By Aleksey,,,
Copyright (c) 2008 by Dino dos Santos _DSType. All rights reserved.
</metadata>
<defs>
<font id="PreloSlab-Light" horiz-adv-x="562" >
  <font-face 
    font-family="Prelo Slab Light"
    font-weight="400"
    font-stretch="normal"
    units-per-em="1000"
    panose-1="2 0 5 3 4 0 0 2 0 4"
    ascent="750"
    descent="-250"
    x-height="500"
    cap-height="680"
    bbox="-58 -270 1107 950"
    underline-thickness="50"
    underline-position="-200"
    unicode-range="U+0020-FB04"
  />
<missing-glyph horiz-adv-x="590" 
d="M70 500h450v-500h-450v500zM287 249l-206 236v-469zM304 249l205 -231v465zM93 488l203 -229l202 229h-405zM296 240l-201 -228h401z" />
    <glyph glyph-name="ff" unicode="ff" horiz-adv-x="634" 
d="M404 42v420h-247v-420h85v-42h-207v42h72v420h-82v34l82 4v42q0 88 31.5 123t101.5 35q24 0 72 -6l-5 -40q-42 5 -57 5q-54 0 -73.5 -29.5t-19.5 -94.5v-35h247v42q0 88 31 123t101 35q23 0 73 -6l-6 -40q-40 5 -57 5q-53 0 -72.5 -29.5t-19.5 -94.5v-35h150v-38h-150
v-420h87v-42h-207v42h70z" />
    <glyph glyph-name="fi" unicode="fi" horiz-adv-x="551" 
d="M454 42h72v-42h-192v42h70v420h-247v-420h85v-42h-207v42h72v420h-82v34l82 4v35q0 87 43 126t127 39q85 0 160 -34l-7 -37q-75 30 -148 30q-67 0 -96 -31.5t-29 -92.5v-35h297v-458z" />
    <glyph glyph-name="fl" unicode="fl" horiz-adv-x="551" 
d="M454 42h72v-42h-192v42h70v588q-69 29 -122 29q-67 0 -96 -31.5t-29 -92.5v-35h150v-38h-150v-420h85v-42h-207v42h72v420h-82v34l82 4v35q0 87 43 126t127 39q71 0 139 -29h38v-629z" />
    <glyph glyph-name="ffi" unicode="ffi" horiz-adv-x="847" 
d="M750 42h72v-42h-192v42h70v420h-246v-420h85v-42h-205v42h70v420h-247v-420h85v-42h-207v42h72v420h-82v34l82 4v42q0 88 31.5 123t101.5 35q24 0 72 -6l-5 -40q-42 5 -57 5q-54 0 -73.5 -29.5t-19.5 -94.5v-35h247v35q0 87 43 126t127 39t160 -34l-8 -37q-75 30 -147 30
q-68 0 -96.5 -31t-28.5 -93v-35h296v-458z" />
    <glyph glyph-name="ffl" unicode="ffl" horiz-adv-x="847" 
d="M404 462h-247v-420h85v-42h-207v42h72v420h-82v34l82 4v42q0 88 31.5 123t101.5 35q24 0 72 -6l-5 -40q-42 5 -57 5q-54 0 -73.5 -29.5t-19.5 -94.5v-35h247v35q0 87 43 126t127 39q70 0 138 -29h38v-629h72v-42h-192v42h70v588q-69 29 -121 29q-68 0 -96.5 -31
t-28.5 -93v-35h150v-38h-150v-420h85v-42h-205v42h70v420z" />
    <glyph glyph-name="T_h" unicode="Th" horiz-adv-x="1060" 
d="M55 680h562v-255h2q92 85 193 85q150 0 150 -163v-305h73v-42h-193v42h70v295q0 130 -120 130q-83 0 -175 -76v-349h70v-42h-192v42h72v595h-251v-595h73v-42h-198v42h73v595h-167v-80h-42v123z" />
    <glyph glyph-name="T_h.caron" unicode="&#x164;h" horiz-adv-x="1060" 
d="M55 680h562v-255h2q92 85 193 85q150 0 150 -163v-305h73v-42h-193v42h70v295q0 130 -120 130q-83 0 -175 -76v-349h70v-42h-192v42h72v595h-251v-595h73v-42h-198v42h73v595h-167v-80h-42v123zM199 870l92 -110l93 110h30l-104 -140h-37l-104 140h30z" />
    <glyph glyph-name="T_h.commaaccent" unicode="&#x162;h" horiz-adv-x="1060" 
d="M55 680h562v-255h2q92 85 193 85q150 0 150 -163v-305h73v-42h-193v42h70v295q0 130 -120 130q-83 0 -175 -76v-349h70v-42h-192v42h72v595h-251v-595h73v-42h-198v42h73v595h-167v-80h-42v123zM288 -240h-20l15 107h-18v93h50v-93z" />
    <glyph glyph-name="f_f_j" unicode="ffj" horiz-adv-x="817" 
d="M700 462h-246v-420h85v-42h-205v42h70v420h-247v-420h85v-42h-207v42h72v420h-82v34l82 4v42q0 88 31.5 123t101.5 35q24 0 72 -6l-5 -40q-42 5 -57 5q-54 0 -73.5 -29.5t-19.5 -94.5v-35h247v35q0 87 43 126t127 39t160 -34l-8 -37q-75 30 -147 30q-68 0 -96.5 -31
t-28.5 -93v-35h296v-584q0 -69 -30.5 -97.5t-102.5 -28.5q-35 0 -72 6l5 40q31 -5 57 -5q53 0 73 20t20 72v539z" />
    <glyph glyph-name="f_j" unicode="fj" horiz-adv-x="521" 
d="M404 462h-247v-420h85v-42h-207v42h72v420h-82v34l82 4v35q0 87 43 126t127 39q85 0 160 -34l-7 -37q-75 30 -148 30q-67 0 -96 -31.5t-29 -92.5v-35h297v-584q0 -69 -30.5 -97.5t-102.5 -28.5q-36 0 -72 6l5 40q31 -5 57 -5q53 0 73 20.5t20 71.5v539z" />
    <glyph glyph-name=".notdef" horiz-adv-x="590" 
d="M70 500h450v-500h-450v500zM287 249l-206 236v-469zM304 249l205 -231v465zM93 488l203 -229l202 229h-405zM296 240l-201 -228h401z" />
    <glyph glyph-name=".null" horiz-adv-x="0" 
 />
    <glyph glyph-name="nonmarkingreturn" horiz-adv-x="333" 
 />
    <glyph glyph-name="space" unicode=" " horiz-adv-x="180" 
 />
    <glyph glyph-name="exclam" unicode="!" horiz-adv-x="185" 
d="M67 115h50v-115h-50v115zM67 700h50l-2 -480h-45z" />
    <glyph glyph-name="quotedbl" unicode="&#x22;" horiz-adv-x="385" 
d="M67 680h50l-5 -125h-40zM267 680h50l-5 -125h-40z" />
    <glyph glyph-name="numbersign" unicode="#" horiz-adv-x="613" 
d="M210 500h38l-14 -128h170l14 128h37l-13 -128h100l-4 -35h-100l-18 -175h100l-4 -35h-100l-14 -127h-37l14 127h-170l-14 -127h-38l14 127h-100l4 35h100l18 175h-100l4 35h100zM231 337l-19 -175h170l19 175h-170z" />
    <glyph glyph-name="dollar" unicode="$" horiz-adv-x="620" 
d="M77 145h43v-85q99 -25 190 -25t134 41.5t43 98.5q0 29 -13.5 52.5t-30 37.5t-46.5 27t-46.5 18t-45.5 12q-42 10 -78 25.5t-69 39t-52 58t-19 75.5q0 84 57.5 126t154.5 44v90h25v-90q102 -3 206 -33v-122h-43v86q-97 24 -177 24q-90 0 -129 -34.5t-39 -89.5
q0 -106 193 -154q207 -46 207 -187q0 -88 -60 -137.5t-158 -52.5v-90h-25v90q-117 2 -222 32v123z" />
    <glyph glyph-name="percent" unicode="%" horiz-adv-x="760" 
d="M582 680l-370 -680h-35l370 680h35zM181 403q-62 0 -95.5 35.5t-33.5 96.5q0 62 33.5 97t95.5 35t95.5 -35t33.5 -97t-33.5 -97t-95.5 -35zM181 429q47 0 72 28t25 78t-25 78t-72 28t-71.5 -28t-24.5 -78t24.5 -78t71.5 -28zM578 12q-62 0 -95.5 35.5t-33.5 97.5
q0 61 33.5 96.5t95.5 35.5t95.5 -35t33.5 -97t-33.5 -97.5t-95.5 -35.5zM578 39q47 0 72 28t25 78t-25 78t-72 28t-71.5 -28t-24.5 -78t24.5 -78t71.5 -28z" />
    <glyph glyph-name="ampersand" unicode="&#x26;" horiz-adv-x="705" 
d="M487 545q0 -51 -38.5 -95.5t-137.5 -90.5l215 -213q65 78 84 204h47q-19 -145 -99 -238l89 -92l-33 -36l-91 95q-94 -89 -238 -89q-108 0 -164.5 48.5t-56.5 130.5q0 61 38.5 107.5t136.5 90.5q-1 1 -17.5 19t-21.5 24.5t-18.5 24.5t-18.5 30.5t-10.5 31t-5.5 36.5
q0 77 52.5 117t125.5 40q75 0 118.5 -38t43.5 -107zM295 34q118 0 197 78l-226 228q-72 -32 -111 -68t-39 -96q0 -23 7.5 -45t25.5 -45t55.5 -37.5t90.5 -14.5zM196 536q0 -39 20.5 -71t64.5 -77q73 32 115.5 70t42.5 88q0 34 -13 57.5t-34 33.5t-37 13.5t-31 3.5
q-38 0 -65.5 -13t-40 -33.5t-17.5 -38t-5 -33.5z" />
    <glyph glyph-name="quotesingle" unicode="'" horiz-adv-x="185" 
d="M67 680h50l-5 -125h-40z" />
    <glyph glyph-name="parenleft" unicode="(" horiz-adv-x="330" 
d="M79 340q0 123 44 248.5t123 231.5h36q-153 -247 -153 -480q0 -230 153 -480h-36q-79 106 -123 232t-44 248z" />
    <glyph glyph-name="parenright" unicode=")" horiz-adv-x="330" 
d="M251 340q0 -122 -44 -248t-123 -232h-37q154 249 154 480q0 234 -154 480h37q79 -106 123 -231.5t44 -248.5z" />
    <glyph glyph-name="asterisk" unicode="*" horiz-adv-x="410" 
d="M192 548l-3 132h32l-4 -132l143 35l9 -31l-145 -25l94 -119l-24 -19l-90 125l-89 -125l-24 19l94 119l-145 25l9 31z" />
    <glyph glyph-name="plus" unicode="+" horiz-adv-x="500" 
d="M271 447v-161h161v-42h-161v-162h-42v162h-162v42h162v161h42z" />
    <glyph glyph-name="comma" unicode="," horiz-adv-x="185" 
d="M90 -130h-20l15 130h-18v115h50v-115z" />
    <glyph glyph-name="hyphen" unicode="-" horiz-adv-x="500" 
d="M67 286h365v-42h-365v42z" />
    <glyph glyph-name="period" unicode="." horiz-adv-x="185" 
d="M67 115h50v-115h-50v115z" />
    <glyph glyph-name="slash" unicode="/" horiz-adv-x="540" 
d="M477 680l-370 -680h-45l370 680h45z" />
    <glyph glyph-name="zero" unicode="0" horiz-adv-x="570" 
d="M285 647q-175 0 -175 -302q0 -313 175 -313t175 313q0 302 -175 302zM285 -10q-228 0 -228 355q0 345 228 345q65 0 111 -27t70.5 -76.5t35 -108t10.5 -133.5q0 -355 -227 -355z" />
    <glyph glyph-name="one" unicode="1" horiz-adv-x="390" 
d="M205 42h130v-42h-310v42h130v594l-123 -13v36l149 26h24v-643z" />
    <glyph glyph-name="two" unicode="2" horiz-adv-x="530" 
d="M432 122h43v-122h-428v51q353 239 353 428q0 42 -12.5 73.5t-30 48.5t-41 27t-41.5 13t-35 3q-78 0 -150 -36v-73h-43v105q108 50 203 50q100 0 151 -57t51 -142q0 -106 -81 -214.5t-252 -229.5v-2h313v77z" />
    <glyph glyph-name="three" unicode="3" horiz-adv-x="520" 
d="M40 36v109h42v-80q66 -33 162 -33q46 0 80.5 11t52.5 26.5t28.5 37t13 37.5t2.5 33q0 63 -47.5 102.5t-143.5 39.5h-80v42h78q82 0 128.5 44t46.5 104q0 22 -6 43t-21.5 44t-49.5 37t-82 14q-79 0 -145 -33v-79h-43v109q86 46 195 46q97 0 149 -47t52 -130
q0 -63 -39.5 -106.5t-99.5 -60.5v-2q73 -11 116 -56.5t43 -112.5q0 -89 -56.5 -137t-169.5 -48q-125 0 -206 46z" />
    <glyph glyph-name="four" unicode="4" horiz-adv-x="570" 
d="M100 245h270v384h-2q-92 -185 -268 -384zM370 42v160h-323v43q219 239 309 440h64v-440h102v-43h-102v-160h72v-42h-195v42h73z" />
    <glyph glyph-name="five" unicode="5" horiz-adv-x="540" 
d="M455 680v-123h-43v78h-276l-18 -290l2 -1q62 81 163 81q94 0 146.5 -55.5t52.5 -154.5q0 -107 -62.5 -166t-169.5 -59q-100 0 -200 50v102h42v-74q76 -36 155 -36q83 0 133 48t50 132q0 69 -39 119t-124 50q-91 0 -155 -84l-39 4l19 379h363z" />
    <glyph glyph-name="six" unicode="6" horiz-adv-x="550" 
d="M107 350l2 -1q72 106 177 106q98 0 152 -61.5t54 -173.5q0 -106 -59 -168t-150 -62q-226 0 -226 310q0 207 74.5 298.5t197.5 91.5q64 0 143 -23v-110h-43v77q-52 13 -96 13q-53 0 -94.5 -22.5t-64.5 -54.5t-39 -75t-21.5 -77t-6.5 -68zM111 305q-8 -273 168 -273
q67 0 114 50t47 138q0 35 -7 65.5t-24.5 60.5t-52 47.5t-82.5 17.5t-90.5 -29.5t-72.5 -76.5z" />
    <glyph glyph-name="seven" unicode="7" horiz-adv-x="490" 
d="M55 680h387v-38q-223 -361 -270 -642h-55q21 139 101.5 320t168.5 313v2h-290v-78h-42v123z" />
    <glyph glyph-name="eight" unicode="8" horiz-adv-x="550" 
d="M323 359v-2q86 -34 132.5 -76t46.5 -110q0 -84 -60 -132.5t-168 -48.5t-167.5 47.5t-59.5 129.5q0 69 48.5 112t130.5 72v2q-75 27 -117 67t-42 104q0 76 57.5 121t151.5 45q92 0 149 -44.5t57 -119.5q0 -62 -39.5 -98.5t-119.5 -68.5zM99 171q0 -61 42 -101.5t135 -40.5
q92 0 133.5 39t41.5 99q0 28 -11.5 51.5t-27 38.5t-43.5 30.5t-47.5 24t-53.5 20.5q-76 -26 -122.5 -63t-46.5 -98zM274 651q-25 0 -49.5 -5.5t-50 -18.5t-41.5 -39.5t-16 -63.5q0 -101 163 -146q73 25 112.5 57.5t39.5 85.5q0 37 -16 64.5t-41.5 40.5t-50.5 19t-50 6z" />
    <glyph glyph-name="nine" unicode="9" horiz-adv-x="550" 
d="M442 329l-2 1q-33 -48 -78.5 -76.5t-97.5 -28.5q-98 0 -152.5 61.5t-54.5 173.5q0 105 59.5 167.5t150.5 62.5q225 0 225 -310q0 -107 -21 -185t-59.5 -121.5t-85.5 -63.5t-105 -20q-66 0 -143 23v109h43v-76q50 -14 96 -14q53 0 94.5 22t64.5 54.5t38.5 75.5t21 77.5
t6.5 67.5zM439 375q2 58 -4.5 102.5t-23.5 85t-52.5 62.5t-87.5 22q-67 0 -114 -49.5t-47 -137.5q0 -35 7 -65.5t24.5 -60.5t52 -47.5t82.5 -17.5q47 0 90 29.5t73 76.5z" />
    <glyph glyph-name="colon" unicode=":" horiz-adv-x="185" 
d="M67 115h50v-115h-50v115zM67 460h50v-115h-50v115z" />
    <glyph glyph-name="semicolon" unicode=";" horiz-adv-x="185" 
d="M67 460h50v-115h-50v115zM90 -130h-20l15 130h-18v115h50v-115z" />
    <glyph glyph-name="less" unicode="&#x3c;" horiz-adv-x="480" 
d="M67 266l345 176v-45l-292 -147l292 -148v-45l-345 177v32z" />
    <glyph glyph-name="equal" unicode="=" horiz-adv-x="500" 
d="M67 386h365v-42h-365v42zM67 186h365v-42h-365v42z" />
    <glyph glyph-name="greater" unicode="&#x3e;" horiz-adv-x="480" 
d="M67 442l345 -176v-32l-345 -177v45l293 148l-293 147v45z" />
    <glyph glyph-name="question" unicode="?" horiz-adv-x="480" 
d="M57 535v117q98 38 180 38q101 0 143 -49t42 -119q0 -51 -20.5 -88.5t-49 -59t-57.5 -39.5t-49.5 -41.5t-20.5 -53.5v-30h-45v30q0 35 18.5 62t45.5 46.5t54.5 39t48 51t22.5 72.5q1 32 -8 59q-26 72 -136 72q-53 0 -125 -27v-80h-43zM177 115h50v-115h-50v115z" />
    <glyph glyph-name="at" unicode="@" horiz-adv-x="810" 
d="M269 439q71 22 140 22q70 0 102 -27.5t32 -99.5v-235q49 0 88 15.5t61.5 39.5t37.5 55t20.5 59.5t5.5 56.5q0 132 -96.5 214t-235.5 82q-162 0 -266 -102t-104 -266q0 -150 95.5 -246.5t242.5 -96.5l-3 -30q-161 0 -265 106t-104 267q0 174 114.5 286.5t289.5 112.5
q154 0 260 -91.5t106 -234.5q0 -112 -65 -186t-184 -74h-38v39h-2q-53 -46 -129 -46q-59 0 -93.5 28.5t-34.5 80.5q0 118 164 118h95v46q0 48 -22.5 71t-78.5 23q-48 0 -98 -14v-69h-35v96zM503 133v126h-93q-70 0 -98 -22.5t-28 -65.5q0 -37 26 -58.5t76 -21.5q65 0 117 42
z" />
    <glyph glyph-name="A" unicode="A" horiz-adv-x="700" 
d="M231 680h163l227 -638h54v-42h-203v42h91l-59 167h-301l-63 -167h85v-42h-200v42h63l222 595h-79v43zM358 632h-1l-142 -383h279z" />
    <glyph glyph-name="B" unicode="B" horiz-adv-x="630" 
d="M433 348v-2q67 -13 103 -57.5t36 -109.5q0 -84 -49.5 -131.5t-142.5 -47.5h-355v42h72v595h-72v43h335q93 0 142.5 -47t49.5 -124q0 -62 -30.5 -104t-88.5 -57zM357 325h-207v-283h222q70 0 107.5 36.5t37.5 105.5q0 65 -40.5 103t-119.5 38zM497 502q0 61 -37 98
t-105 37h-205v-270h205q69 0 105.5 35t36.5 100z" />
    <glyph glyph-name="C" unicode="C" horiz-adv-x="610" 
d="M517 142h43v-120q-113 -32 -225 -32q-66 0 -115.5 18.5t-80 50t-49.5 78t-26 96.5t-7 112q0 60 7 108t26 93.5t49.5 76t80 49t115.5 18.5q113 0 225 -33v-120h-43v87q-97 23 -178 23q-68 0 -114.5 -24.5t-70 -69.5t-33 -94.5t-9.5 -113.5q0 -68 9.5 -119.5t33 -98t70 -71
t114.5 -24.5q82 0 178 24v86z" />
    <glyph glyph-name="D" unicode="D" horiz-adv-x="660" 
d="M25 680h304q273 0 273 -335q0 -345 -273 -345h-304v42h72v595h-72v43zM150 42h179q218 0 218 303q0 63 -9.5 112t-33 91.5t-67.5 65.5t-108 23h-179v-595z" />
    <glyph glyph-name="E" unicode="E" horiz-adv-x="570" 
d="M25 680h487v-123h-42v80h-320v-262h312v-43h-312v-290h320v80h42v-122h-487v42h72v595h-72v43z" />
    <glyph glyph-name="F" unicode="F" horiz-adv-x="555" 
d="M25 680h477v-123h-42v80h-310v-282h302v-43h-302v-270h72v-42h-197v42h72v595h-72v43z" />
    <glyph glyph-name="G" unicode="G" horiz-adv-x="620" 
d="M112 345q0 -63 11.5 -115.5t36.5 -98t70.5 -71t108.5 -25.5q96 0 168 49v203h-155v43h208v-279q-111 -61 -225 -61q-62 0 -110 19t-79 51t-51.5 78t-29 96.5t-8.5 110.5t7 108t26 93.5t49.5 76t80 49t115.5 18.5q113 0 225 -33v-120h-43v87q-97 23 -178 23
q-68 0 -114.5 -24.5t-70 -69.5t-33 -94.5t-9.5 -113.5z" />
    <glyph glyph-name="H" unicode="H" horiz-adv-x="680" 
d="M457 42h73v290h-380v-290h72v-42h-197v42h72v595h-72v43h197v-43h-72v-262h380v262h-73v43h198v-43h-73v-595h73v-42h-198v42z" />
    <glyph glyph-name="I" unicode="I" horiz-adv-x="247" 
d="M25 42h72v595h-72v43h197v-43h-72v-595h72v-42h-197v42z" />
    <glyph glyph-name="J" unicode="J" horiz-adv-x="337" 
d="M115 680h197v-43h-72v-477q0 -94 -34.5 -132t-105.5 -38q-42 0 -79 6l5 43q32 -5 61 -5q55 0 77.5 30t22.5 96v477h-72v43z" />
    <glyph glyph-name="K" unicode="K" horiz-adv-x="680" 
d="M25 680h197v-43h-72v-362l348 362h-86v43h233v-43h-84l-227 -236l241 -359h80v-42h-235v42h89l-215 322l-144 -147v-175h72v-42h-197v42h72v595h-72v43z" />
    <glyph glyph-name="L" unicode="L" horiz-adv-x="550" 
d="M467 122h43v-122h-485v42h72v595h-72v43h197v-43h-72v-595h317v80z" />
    <glyph glyph-name="M" unicode="M" horiz-adv-x="840" 
d="M681 680h134v-43h-73v-595h73v-42h-198v42h73v535h-2l-250 -577h-36l-254 577h-2v-535h74v-42h-195v42h72v595h-72v43h135l262 -593h2z" />
    <glyph glyph-name="N" unicode="N" horiz-adv-x="690" 
d="M470 680h195v-43h-73v-637h-53l-391 583h-2v-541h74v-42h-195v42h72v595h-72v43h124l393 -589h2v546h-74v43z" />
    <glyph glyph-name="O" unicode="O" horiz-adv-x="670" 
d="M335 647q-55 0 -96 -17t-65 -44t-38.5 -68t-19 -81.5t-4.5 -91.5q0 -65 8.5 -115.5t31 -98t69 -73.5t114.5 -26t114.5 26t68.5 74t30.5 97.5t8.5 115.5q0 51 -4.5 91.5t-18.5 81.5t-38 68t-65 44t-96 17zM335 -10q-66 0 -115.5 19t-80 50.5t-49.5 78.5t-26 96.5t-7 110.5
q0 60 7 108t26 93.5t49.5 76t80 49t115.5 18.5t115.5 -18.5t80 -49t49 -76t25.5 -93.5t7 -108q0 -61 -7 -110.5t-25.5 -96.5t-49 -78.5t-80 -50.5t-115.5 -19z" />
    <glyph glyph-name="P" unicode="P" horiz-adv-x="620" 
d="M25 680h342q93 0 144 -52t51 -136q0 -88 -50 -137.5t-145 -49.5h-217v-263h72v-42h-197v42h72v595h-72v43zM150 637v-290h212q70 0 108.5 37.5t38.5 107.5q0 66 -39 105.5t-108 39.5h-212z" />
    <glyph glyph-name="Q" unicode="Q" horiz-adv-x="670" 
d="M57 345q0 60 7 108t26 93.5t49.5 76t80 49t115.5 18.5t115.5 -18.5t80 -49t49 -76t25.5 -93.5t7 -108q0 -58 -7 -106t-24 -91.5t-44 -73.5t-69.5 -48t-98.5 -20q20 -33 87.5 -47.5t143.5 -5.5v-48q-93 -11 -169 10t-110 75q-77 3 -130.5 31.5t-81.5 79.5t-40 109.5
t-12 134.5zM335 647q-55 0 -96 -17t-65 -44t-38.5 -68t-19 -81.5t-4.5 -91.5q0 -65 8.5 -115.5t31 -98t69 -73.5t114.5 -26t114.5 26t68.5 74t30.5 97.5t8.5 115.5q0 51 -4.5 91.5t-18.5 81.5t-38 68t-65 44t-96 17z" />
    <glyph glyph-name="R" unicode="R" horiz-adv-x="650" 
d="M25 680h342q93 0 144 -54.5t51 -139.5q0 -76 -44 -127.5t-120 -58.5l174 -258h53v-42h-207v42h88l-165 250h-191v-250h72v-42h-197v42h72v595h-72v43zM150 637v-302h205q70 0 112 40.5t42 110.5q0 66 -39.5 108.5t-107.5 42.5h-212z" />
    <glyph glyph-name="S" unicode="S" horiz-adv-x="580" 
d="M57 145h43v-85q99 -25 190 -25t134 41.5t43 98.5q0 29 -13.5 52.5t-30 37.5t-46.5 27t-46.5 18t-45.5 12q-58 14 -104 36.5t-81 65t-35 96.5q0 87 61 128.5t161 41.5q110 0 220 -33v-122h-42v86q-98 24 -178 24q-90 0 -128.5 -34.5t-38.5 -89.5q0 -105 195 -154
q207 -46 207 -187q0 -91 -63.5 -140.5t-168.5 -49.5q-120 0 -233 32v123z" />
    <glyph glyph-name="T" unicode="T" horiz-adv-x="580" 
d="M55 680h470v-123h-43v80h-166v-595h73v-42h-198v42h73v595h-167v-80h-42v123z" />
    <glyph glyph-name="U" unicode="U" horiz-adv-x="680" 
d="M457 680h198v-43h-73v-397q0 -129 -59 -189.5t-183 -60.5t-183.5 60.5t-59.5 189.5v397h-72v43h197v-43h-72v-397q0 -31 2 -52.5t12.5 -53.5t30 -52t58 -35t91.5 -15q50 0 86.5 15t55 35.5t29 51.5t13 54t2.5 52v397h-73v43z" />
    <glyph glyph-name="V" unicode="V" horiz-adv-x="690" 
d="M450 680h215v-43h-54l-228 -642h-68l-238 642h-52v43h217v-43h-107l216 -587h1l205 587h-107v43z" />
    <glyph glyph-name="W" unicode="W" horiz-adv-x="980" 
d="M25 680h217v-43h-107l160 -573h1l169 616h58l171 -616h1l157 573h-107v43h210v-43h-51l-178 -642h-71l-164 591h-2l-162 -591h-71l-180 642h-51v43z" />
    <glyph glyph-name="X" unicode="X" horiz-adv-x="700" 
d="M455 680h210v-43h-72l-201 -283l223 -312h60v-42h-226v42h96l-199 285l-198 -285h89v-42h-212v42h66l224 315l-200 280h-80v43h224v-43h-74l176 -251l176 251h-82v43z" />
    <glyph glyph-name="Y" unicode="Y" horiz-adv-x="660" 
d="M356 42h73v-42h-198v42h73v188l-223 407h-56v43h221v-43h-108l195 -355h2l193 355h-106v43h213v-43h-55l-224 -407v-188z" />
    <glyph glyph-name="Z" unicode="Z" horiz-adv-x="560" 
d="M62 680h438v-40l-384 -596v-2h359v80h42v-122h-467v40l386 595v2h-331v-80h-43v123z" />
    <glyph glyph-name="bracketleft" unicode="[" horiz-adv-x="300" 
d="M120 -108h132v-32h-185v960h185v-33h-132v-895z" />
    <glyph glyph-name="backslash" unicode="\" horiz-adv-x="540" 
d="M432 0l-370 680h45l370 -680h-45z" />
    <glyph glyph-name="bracketright" unicode="]" horiz-adv-x="300" 
d="M47 -108h133v895h-133v33h185v-960h-185v32z" />
    <glyph glyph-name="asciicircum" unicode="^" horiz-adv-x="380" 
d="M189 670l-92 -160h-30l104 190h37l104 -190h-30z" />
    <glyph glyph-name="underscore" unicode="_" horiz-adv-x="500" 
d="M67 -60h365v-33h-365v33z" />
    <glyph glyph-name="grave" unicode="`" horiz-adv-x="290" 
d="M180 560l-81 140h46l65 -140h-30z" />
    <glyph glyph-name="a" unicode="a" horiz-adv-x="535" 
d="M129 382h-43v109q94 19 179 19q88 0 130 -36.5t42 -126.5v-305h73v-42h-123v50h-2q-74 -58 -157 -59q-27 -2 -53 3q-54 8 -86 40.5t-35 84.5q-1 20 2 44q17 117 206 117h125v65q0 62 -30.5 92t-101.5 30q-56 0 -126 -12v-73zM387 84v163h-118q-91 0 -129 -28t-38 -84
q0 -47 34.5 -76t98.5 -29q88 0 152 54z" />
    <glyph glyph-name="b" unicode="b" horiz-adv-x="560" 
d="M25 657v43h122v-250h2q69 60 166 60q187 0 187 -260q0 -120 -45.5 -190t-144.5 -70q-98 0 -165 59h-2l-9 -49h-111v42h72v615h-72zM450 250q0 217 -153 217q-81 0 -150 -53v-328q67 -54 150 -54q153 0 153 218z" />
    <glyph glyph-name="c" unicode="c" horiz-adv-x="495" 
d="M455 382h-43v72q-56 13 -122 13q-94 0 -137 -59.5t-43 -157.5t43 -158t137 -60q78 0 155 20l10 -41q-84 -21 -165 -21q-233 0 -233 260t233 260q81 0 165 -21v-107z" />
    <glyph glyph-name="d" unicode="d" horiz-adv-x="560" 
d="M340 657v43h122v-658h73v-42h-123v50h-2q-67 -60 -165 -60q-188 0 -188 260q0 119 45.5 189.5t144.5 70.5q97 0 163 -59h2v206h-72zM110 250q0 -218 152 -218q86 0 150 54v328q-66 53 -150 53q-152 0 -152 -217z" />
    <glyph glyph-name="e" unicode="e" horiz-adv-x="530" 
d="M472 247h-362q2 -215 194 -215q90 0 156 20l7 -41q-76 -21 -170 -21q-240 0 -240 260t233 260q58 0 99 -19t60 -47t26.5 -65.5t5.5 -69t-9 -62.5zM287 470q-164 0 -177 -189h314q9 32 5 65.5t-16.5 61t-45 45t-80.5 17.5z" />
    <glyph glyph-name="f" unicode="f" horiz-adv-x="337" 
d="M35 0v42h72v420h-82v34l82 4v74q0 69 30.5 97.5t102.5 28.5q24 0 72 -6l-5 -40q-42 5 -57 5q-53 0 -73 -20.5t-20 -71.5v-67h135v-38h-135v-420h88v-42h-210z" />
    <glyph glyph-name="g" unicode="g" horiz-adv-x="555" 
d="M84 -73q0 -101 165 -101q94 0 152 31.5t58 91.5q0 67 -104 72l-189 10q-42 -26 -62 -48t-20 -56zM265 214q65 0 103 34t38 92q0 60 -39 97t-102 37q-71 0 -108 -36.5t-37 -97.5q0 -59 38.5 -92.5t106.5 -33.5zM135 40v2q-45 24 -36 72.5t57 83.5v2q-85 42 -85 140
q0 79 51 124.5t143 45.5q31 0 67 -10h165v-33h-112v-1q69 -37 69 -126q0 -78 -53 -120.5t-136 -42.5q-44 0 -81 14q-23 -22 -32.5 -48.5t0.5 -46.5t39 -21l180 -9q140 -8 140 -109q0 -79 -68 -123t-208 -44q-195 0 -195 130q0 69 95 120z" />
    <glyph glyph-name="h" unicode="h" horiz-adv-x="590" 
d="M372 0v42h70v295q0 130 -120 130q-83 0 -175 -76v-349h70v-42h-192v42h72v615h-72v43h122v-275h2q92 85 193 85q150 0 150 -163v-305h73v-42h-193z" />
    <glyph glyph-name="i" unicode="i" horiz-adv-x="245" 
d="M25 457v43h122v-458h73v-42h-195v42h72v415h-72zM97 700h50v-113h-50v113z" />
    <glyph glyph-name="j" unicode="j" horiz-adv-x="225" 
d="M25 457v43h132v-584q0 -69 -30 -97.5t-102 -28.5q-35 0 -73 6l6 40q30 -5 57 -5q53 0 72.5 20t19.5 72v534h-82zM107 700h50v-113h-50v113z" />
    <glyph glyph-name="k" unicode="k" horiz-adv-x="600" 
d="M25 657v43h122v-453l277 210h-69v43h210v-43h-82l-165 -125l183 -290h74v-42h-210v42h74l-163 262l-129 -97v-165h73v-42h-195v42h72v615h-72z" />
    <glyph glyph-name="l" unicode="l" horiz-adv-x="245" 
d="M25 657v43h122v-658h73v-42h-195v42h72v615h-72z" />
    <glyph glyph-name="m" unicode="m" horiz-adv-x="890" 
d="M350 0v42h70v297q-2 128 -120 128q-30 0 -62.5 -14.5t-48 -26.5t-42.5 -35v-349h70v-42h-192v42h72v415h-72v43h122v-75h2q85 81 160 84q30 0 51 -4q77 -14 100 -87q90 92 182 92q150 0 150 -163v-305h73v-42h-193v42h70v295q0 130 -120 130q-30 0 -62.5 -14.5t-50 -28
t-43.5 -35.5q4 -30 4 -50v-297h70v-42h-190z" />
    <glyph glyph-name="n" unicode="n" horiz-adv-x="590" 
d="M372 0v42h70v295q0 130 -120 130q-83 0 -175 -76v-349h70v-42h-192v42h72v415h-72v43h122v-75h2q92 85 193 85q150 0 150 -163v-305h73v-42h-193z" />
    <glyph glyph-name="o" unicode="o" horiz-adv-x="550" 
d="M275 467q-165 0 -165 -217q0 -218 165 -218t165 218q0 217 -165 217zM275 -10q-218 0 -218 260t218 260q217 0 217 -260t-217 -260z" />
    <glyph glyph-name="p" unicode="p" horiz-adv-x="560" 
d="M25 457v43h122v-50h2q69 60 166 60q187 0 187 -260q0 -120 -45.5 -190t-144.5 -70q-96 0 -163 59h-2v-207h73v-42h-195v42h72v615h-72zM450 250q0 217 -153 217q-81 0 -150 -53v-328q67 -54 150 -54q153 0 153 218z" />
    <glyph glyph-name="q" unicode="q" horiz-adv-x="530" 
d="M340 -200v42h72v208h-2q-67 -60 -165 -60q-188 0 -188 260q0 119 45.5 189.5t144.5 70.5q97 0 166 -59h2l9 50h38v-659h73v-42h-195zM110 250q0 -218 152 -218q86 0 150 54v328q-66 53 -150 53q-152 0 -152 -217z" />
    <glyph glyph-name="r" unicode="r" horiz-adv-x="400" 
d="M25 457v43h122v-80h2q100 90 203 90v-48q-55 0 -111 -23.5t-94 -52.5v-344h88v-42h-210v42h72v415h-72z" />
    <glyph glyph-name="s" unicode="s" horiz-adv-x="480" 
d="M422 382h-42v72q-66 15 -145 15q-34 0 -59 -8t-37 -18t-19 -24t-8.5 -22t-1.5 -16q0 -36 27 -61t106 -41q94 -20 139 -51.5t45 -93.5q0 -69 -44 -106.5t-128 -37.5q-119 0 -203 21v106h43v-71q63 -15 155 -15q34 0 59.5 9t38 20.5t19.5 27t8.5 25t1.5 18.5
q0 35 -28.5 59.5t-109.5 41.5q-86 17 -132.5 49t-46.5 99q0 62 44 96t128 34q106 0 190 -21v-107z" />
    <glyph glyph-name="t" unicode="t" horiz-adv-x="375" 
d="M107 148v314h-82v34l82 4l7 140h43v-140h155v-38h-155v-307q0 -64 21 -94t77 -30q26 0 57 5l5 -40q-36 -6 -77 -6q-70 0 -101.5 35t-31.5 123z" />
    <glyph glyph-name="u" unicode="u" horiz-adv-x="590" 
d="M25 457v43h122v-338q0 -130 120 -130q82 0 175 77v348h-95v43h145v-458h73v-42h-123v75h-2q-92 -85 -193 -85q-150 0 -150 162v305h-72z" />
    <glyph glyph-name="v" unicode="v" horiz-adv-x="579" 
d="M368 457v43h186v-43h-48l-187 -462h-58l-187 462h-49v43h194v-43h-88l162 -407h2l160 407h-87z" />
    <glyph glyph-name="w" unicode="w" horiz-adv-x="809" 
d="M598 457v43h186v-43h-48l-145 -462h-53l-133 418h-2l-126 -418h-53l-151 462h-48v43h194v-43h-93l128 -400h2l131 443h42l136 -446h2l120 403h-89z" />
    <glyph glyph-name="x" unicode="x" horiz-adv-x="609" 
d="M393 457v43h181v-43h-69l-167 -201l180 -214h66v-42h-204v42h69l-159 194l-155 -194h74v-42h-184v42h59l180 219l-165 196h-64v43h202v-43h-70l145 -177l142 177h-61z" />
    <glyph glyph-name="y" unicode="y" horiz-adv-x="579" 
d="M368 457v43h186v-43h-48l-194 -498q-65 -169 -179 -169q-33 0 -59 6l5 41q28 -5 45 -5q30 0 54 13.5t42.5 42t27.5 47t22 52.5l-195 470h-50v43h194v-43h-88l169 -416h2l153 416h-87z" />
    <glyph glyph-name="z" unicode="z" horiz-adv-x="470" 
d="M42 500h384v-40l-326 -418v-2h295v77h42v-117h-401v40l328 418v2h-279v-78h-43v118z" />
    <glyph glyph-name="braceleft" unicode="{" horiz-adv-x="340" 
d="M180 5q0 -35 7.5 -58.5t16.5 -35.5t27 -18t29 -7t32 -1v-25q-84 0 -124.5 30t-40.5 116q0 31 5 95.5t5 93.5q0 31 -1.5 46.5t-7.5 36t-21 30.5t-40 14v35q25 4 40 14t21 31t7.5 36.5t1.5 46.5q0 29 -5 93.5t-5 95.5q0 86 40.5 116t124.5 30v-25q-21 0 -32 -1t-29 -7
t-27 -18t-16.5 -35.5t-7.5 -58.5q0 -30 5.5 -107.5t5.5 -108.5q0 -56 -20.5 -82.5t-60.5 -35.5v-2q40 -9 60.5 -35.5t20.5 -82.5q0 -31 -5.5 -108.5t-5.5 -107.5z" />
    <glyph glyph-name="bar" unicode="|" horiz-adv-x="170" 
d="M102 -100h-35v880h35v-880z" />
    <glyph glyph-name="braceright" unicode="}" horiz-adv-x="340" 
d="M160 675q0 35 -7.5 58.5t-16.5 35.5t-27 18t-29.5 7t-32.5 1v25q84 0 124.5 -30t40.5 -116q0 -31 -5 -95.5t-5 -93.5q0 -31 1.5 -46.5t7.5 -36.5t21 -31t40 -14v-35q-25 -4 -40 -14t-21 -30.5t-7.5 -36t-1.5 -46.5q0 -29 5 -93.5t5 -95.5q0 -86 -40.5 -116t-124.5 -30v25
q21 0 32.5 1t29.5 7t27 18t16.5 35.5t7.5 58.5q0 30 -5.5 107.5t-5.5 108.5q0 56 20.5 82.5t60.5 35.5v2q-40 9 -60.5 35.5t-20.5 82.5q0 31 5.5 108.5t5.5 107.5z" />
    <glyph glyph-name="asciitilde" unicode="~" horiz-adv-x="460" 
d="M155 337q-12 0 -20.5 -2.5t-26 -14.5t-42.5 -37l-17 14q33 43 55.5 60t48.5 17t96 -31t85 -31q37 0 65 49l16 -16q-17 -33 -33.5 -49.5t-41.5 -17.5q-2 0 -21 2q-17 4 -81 30.5t-83 26.5z" />
    <glyph glyph-name="exclamdown" unicode="&#xa1;" horiz-adv-x="185" 
d="M117 385h-50v115h50v-115zM117 -200h-50l3 480h45z" />
    <glyph glyph-name="cent" unicode="&#xa2;" horiz-adv-x="510" 
d="M316 -100h-25v90q-104 3 -164 74.5t-60 185.5t60 185.5t164 74.5v90h25v-91q71 -2 149 -35l-7 -40q-85 31 -142 33v-434q27 0 52 5t41 10t49 18l7 -40q-77 -34 -149 -35v-91zM120 250q0 -90 44.5 -151.5t126.5 -65.5v433q-81 -4 -126 -65.5t-45 -150.5z" />
    <glyph glyph-name="sterling" unicode="&#xa3;" horiz-adv-x="580" 
d="M392 330h-245v-285h348v77h42v-122h-490v45h50v285h-50v27h50v163q0 87 60 128.5t160 41.5q121 0 220 -48v-107h-42v72q-81 38 -178 38q-170 0 -170 -128v-160h245v-27z" />
    <glyph glyph-name="currency" unicode="&#xa4;" horiz-adv-x="513" 
d="M100 249q0 68 48 114l-78 90l8 8l79 -90q44 36 100 36q55 0 99 -36l78 90l9 -8l-78 -89q50 -47 50 -115t-49 -114l76 -86l-9 -9l-77 87q-43 -35 -99 -35q-57 0 -100 35l-76 -87l-9 9l76 86q-48 46 -48 114zM112 249q0 -59 43 -102t102 -43t102.5 43t43.5 102t-43.5 102.5
t-102.5 43.5t-102 -43.5t-43 -102.5z" />
    <glyph glyph-name="yen" unicode="&#xa5;" horiz-adv-x="660" 
d="M356 42h73v-42h-198v42h73v183h-177v27h164l-212 385h-54v43h221v-43h-105l192 -350h2l191 350h-104v43h213v-43h-55l-212 -385h164v-27h-176v-183z" />
    <glyph glyph-name="brokenbar" unicode="&#xa6;" horiz-adv-x="170" 
d="M102 380h-35v400h35v-400zM102 -100h-35v400h35v-400z" />
    <glyph glyph-name="section" unicode="&#xa7;" horiz-adv-x="600" 
d="M532 330q0 -112 -99 -161q97 -56 97 -149q0 -87 -61 -128.5t-162 -41.5q-132 0 -220 55l22 42q92 -50 198 -50q168 0 168 123q0 107 -195 152q-205 48 -205 188q0 112 100 160q-98 56 -98 150q0 87 61 128.5t162 41.5q129 0 220 -55l-21 -42q-90 49 -199 49
q-168 0 -168 -122q0 -105 195 -153q43 -10 76.5 -23.5t64.5 -35t47.5 -54t16.5 -74.5zM300 471q-46 7 -81 22q-46 -18 -67.5 -54t-21.5 -77q0 -102 165 -140q47 -11 90 -30q46 19 69 56t23 79q0 28 -14 52t-30.5 37.5t-46 26t-44.5 17t-42 11.5z" />
    <glyph glyph-name="dieresis" unicode="&#xa8;" horiz-adv-x="480" 
d="M87 700h45v-110h-45v110zM347 700h45v-110h-45v110z" />
    <glyph glyph-name="copyright" unicode="&#xa9;" horiz-adv-x="765" 
d="M30 340q0 146 103 248t249 102q147 0 250 -102t103 -248t-103 -248t-250 -102q-146 0 -249 102t-103 248zM56 340q0 -135 95.5 -230t230.5 -95t231 95t96 230t-96 229.5t-231 94.5t-230.5 -94.5t-95.5 -229.5zM386 486q-127 0 -127 -142q0 -153 127 -153q60 0 106 30
l13 -24q-50 -35 -121 -35q-79 0 -119.5 47t-40.5 135q0 83 40.5 127.5t119.5 44.5q71 0 121 -35l-12 -26q-49 31 -107 31z" />
    <glyph glyph-name="ordfeminine" unicode="&#xaa;" horiz-adv-x="280" 
d="M65 620h-24v55q53 10 91 10q44 0 65.5 -18t21.5 -63v-151h36v-23h-64v25h-1q-38 -29 -77 -30q-18 0 -26 1q-58 10 -61 63v23q8 59 104 59h61v31q0 30 -15 44.5t-50 14.5q-27 0 -61 -6v-35zM191 473v80h-57q-45 0 -63.5 -13.5t-18.5 -41.5q0 -23 17 -37t48 -14q43 0 74 26
z" />
    <glyph glyph-name="guillemotleft" unicode="&#xab;" horiz-adv-x="730" 
d="M67 266l245 154v-53l-192 -117l192 -118v-52l-245 154v32zM417 266l245 154v-53l-192 -117l192 -118v-52l-245 154v32z" />
    <glyph glyph-name="logicalnot" unicode="&#xac;" horiz-adv-x="590" 
d="M87 286h415v-154h-42v112h-373v42z" />
    <glyph glyph-name="uni00AD" unicode="&#xad;" horiz-adv-x="540" 
d="M87 286h365v-42h-365v42z" />
    <glyph glyph-name="registered" unicode="&#xae;" horiz-adv-x="765" 
d="M527 168h-41l-103 123h-87v-123h-33v344h134q58 0 89 -29.5t31 -78.5q0 -48 -25.5 -76.5t-72.5 -32.5zM296 482v-162h97q90 0 90 84q0 36 -22.5 57t-63.5 21h-101zM30 340q0 146 103 248t249 102q147 0 250 -102t103 -248t-103 -248t-250 -102q-146 0 -249 102t-103 248z
M56 340q0 -135 95.5 -230t230.5 -95t231 95t96 230t-96 229.5t-231 94.5t-230.5 -94.5t-95.5 -229.5z" />
    <glyph glyph-name="macron" unicode="&#xaf;" horiz-adv-x="380" 
d="M72 635h235v-38h-235v38z" />
    <glyph glyph-name="degree" unicode="&#xb0;" horiz-adv-x="260" 
d="M44 580q0 35 25 60.5t61 25.5q35 0 60.5 -25.5t25.5 -60.5q0 -36 -25.5 -61t-60.5 -25q-36 0 -61 25t-25 61zM66 580q0 -27 18.5 -45.5t45.5 -18.5t45.5 18.5t18.5 45.5t-18.5 45.5t-45.5 18.5t-45.5 -18.5t-18.5 -45.5z" />
    <glyph glyph-name="plusminus" unicode="&#xb1;" horiz-adv-x="500" 
d="M67 102h162v145h-162v43h162v161h42v-161h161v-43h-161v-145h161v-42h-365v42z" />
    <glyph glyph-name="twosuperior" unicode="&#xb2;" horiz-adv-x="266" 
d="M217 602h24v-62h-216v28q175 119 175 210q0 26 -8.5 43.5t-22.5 25t-25 10.5t-23 3q-36 0 -73 -18v-36h-23v54q52 25 102 25t76 -28.5t26 -71.5q0 -104 -165 -219v-1h153v37z" />
    <glyph glyph-name="threesuperior" unicode="&#xb3;" horiz-adv-x="268" 
d="M25 558v55h23v-39q35 -16 79 -16q87 0 87 71q0 31 -23 50t-70 19h-41v24h40q41 0 63.5 21t22.5 51q0 25 -17.5 46t-61.5 21q-37 0 -71 -16v-39h-23v55q42 24 99 24q48 0 74.5 -23.5t26.5 -65.5q0 -31 -19.5 -52.5t-49.5 -30.5v-1q36 -5 57.5 -28t21.5 -57q0 -92 -114 -92
q-63 0 -104 23z" />
    <glyph glyph-name="acute" unicode="&#xb4;" horiz-adv-x="290" 
d="M188 700l-81 -140h-30l65 140h46z" />
    <glyph glyph-name="mu" unicode="&#xb5;" horiz-adv-x="590" 
d="M25 457v43h122v-338q0 -130 120 -130q82 0 175 77v348h-95v43h145v-458h73v-42h-123v75h-2q-83 -76 -170 -80q-92 -4 -123 60v-69q0 -98 -20.5 -141.5t-79.5 -51.5q-18 -3 -40 -3q-32 2 -65 6l6 40q30 -5 57 -5q53 0 72.5 29.5t19.5 94.5v502h-72z" />
    <glyph glyph-name="paragraph" unicode="&#xb6;" horiz-adv-x="565" 
d="M390 7v650h-67v-362h-92q-90 0 -145.5 53.5t-55.5 139.5q0 89 55 140.5t146 51.5h266v-23h-82v-635h82v-22h-155v7h48z" />
    <glyph glyph-name="periodcentered" unicode="&#xb7;" horiz-adv-x="185" 
d="M67 307h50v-115h-50v115z" />
    <glyph glyph-name="cedilla" unicode="&#xb8;" horiz-adv-x="294" 
d="M120 -73v73h22v-58q84 -4 84 -71q0 -35 -25 -55.5t-68 -20.5q-31 0 -68 12l4 20q32 -10 58 -10q36 0 51 18t15 39q0 20 -16 36.5t-57 16.5z" />
    <glyph glyph-name="onesuperior" unicode="&#xb9;" horiz-adv-x="206" 
d="M117 563h64v-23h-156v23h64v292l-60 -6v20l75 14h13v-320z" />
    <glyph glyph-name="ordmasculine" unicode="&#xba;" horiz-adv-x="269" 
d="M135 661q-81 0 -81 -106q0 -107 81 -107q80 0 80 107q0 106 -80 106zM135 425q-110 0 -110 130t110 130q109 0 109 -130t-109 -130z" />
    <glyph glyph-name="guillemotright" unicode="&#xbb;" horiz-adv-x="730" 
d="M67 420l245 -154v-32l-245 -154v52l193 118l-193 117v53zM417 420l245 -154v-32l-245 -154v52l193 118l-193 117v53z" />
    <glyph glyph-name="onequarter" unicode="&#xbc;" horiz-adv-x="800" 
d="M619 680l-370 -680h-20l370 680h20zM167 363h64v-23h-156v23h64v292l-60 -6v20l75 14h13v-320zM515 124h131v187h-1q-43 -88 -130 -187zM646 23v78h-161v23q110 120 154 219h35v-219h51v-23h-51v-78h36v-23h-100v23h36z" />
    <glyph glyph-name="onehalf" unicode="&#xbd;" horiz-adv-x="800" 
d="M577 680l-370 -680h-20l370 680h20zM167 363h64v-23h-156v23h64v292l-60 -6v20l75 14h13v-320zM702 62h23v-62h-216v28q175 118 175 210q0 26 -8.5 43.5t-22.5 25t-25 10.5t-23 3q-36 0 -72 -18v-36h-24v54q52 25 102 25q51 0 77 -28.5t26 -71.5q0 -103 -165 -219v-1h153
v37z" />
    <glyph glyph-name="threequarters" unicode="&#xbe;" horiz-adv-x="800" 
d="M629 680l-370 -680h-20l370 680h20zM75 358v55h23v-39q35 -16 79 -16q87 0 87 71q0 31 -23 50t-70 19h-41v24h40q41 0 63.5 21t22.5 51q0 25 -17.5 46t-61.5 21q-37 0 -71 -16v-39h-23v55q42 24 99 24q48 0 74.5 -23.5t26.5 -65.5q0 -31 -19.5 -52.5t-49.5 -30.5v-1
q36 -5 57.5 -28t21.5 -57q0 -92 -114 -92q-63 0 -104 23zM515 124h131v187h-1q-43 -88 -130 -187zM646 23v78h-161v23q110 120 154 219h35v-219h51v-23h-51v-78h36v-23h-100v23h36z" />
    <glyph glyph-name="questiondown" unicode="&#xbf;" horiz-adv-x="500" 
d="M432 -35v-117q-93 -38 -180 -38q-53 0 -91 15t-57.5 40.5t-28 53t-8.5 58.5q0 51 20.5 88.5t49.5 59t58 40t49.5 42t20.5 53.5v30h45v-30q0 -32 -14 -57.5t-35.5 -41t-46 -34t-46 -35.5t-35.5 -45.5t-14 -64.5q0 -125 146 -125q49 0 125 28v80h42zM312 385h-50v115h50
v-115z" />
    <glyph glyph-name="Agrave" unicode="&#xc0;" horiz-adv-x="700" 
d="M330 730l-81 140h46l65 -140h-30zM231 680h163l227 -638h54v-42h-203v42h91l-59 167h-301l-63 -167h85v-42h-200v42h63l222 595h-79v43zM358 632h-1l-142 -383h279z" />
    <glyph glyph-name="Aacute" unicode="&#xc1;" horiz-adv-x="700" 
d="M455 870l-81 -140h-30l65 140h46zM231 680h163l227 -638h54v-42h-203v42h91l-59 167h-301l-63 -167h85v-42h-200v42h63l222 595h-79v43zM358 632h-1l-142 -383h279z" />
    <glyph glyph-name="Acircumflex" unicode="&#xc2;" horiz-adv-x="700" 
d="M351 840l-92 -110h-30l104 140h37l104 -140h-30zM231 680h163l227 -638h54v-42h-203v42h91l-59 167h-301l-63 -167h85v-42h-200v42h63l222 595h-79v43zM358 632h-1l-142 -383h279z" />
    <glyph glyph-name="Atilde" unicode="&#xc3;" horiz-adv-x="700" 
d="M303 807q-21 0 -36.5 -8.5t-52.5 -45.5l-17 14q33 43 55.5 60t48.5 17t71 -31t60 -31q37 0 65 49l16 -16q-33 -66 -75 -67q-7 -1 -21 3q-14 5 -54.5 30.5t-59.5 25.5zM231 680h163l227 -638h54v-42h-203v42h91l-59 167h-301l-63 -167h85v-42h-200v42h63l222 595h-79v43z
M358 632h-1l-142 -383h279z" />
    <glyph glyph-name="Adieresis" unicode="&#xc4;" horiz-adv-x="700" 
d="M203 870h45v-110h-45v110zM463 870h45v-110h-45v110zM231 680h163l227 -638h54v-42h-203v42h91l-59 167h-301l-63 -167h85v-42h-200v42h63l222 595h-79v43zM358 632h-1l-142 -383h279z" />
    <glyph glyph-name="Aring" unicode="&#xc5;" horiz-adv-x="700" 
d="M268 820q0 35 25 60.5t61 25.5q35 0 60.5 -25.5t25.5 -60.5q0 -36 -25.5 -61t-60.5 -25q-36 0 -61 25t-25 61zM290 820q0 -27 18.5 -45.5t45.5 -18.5t45.5 18.5t18.5 45.5t-18.5 45.5t-45.5 18.5t-45.5 -18.5t-18.5 -45.5zM231 680h163l227 -638h54v-42h-203v42h91
l-59 167h-301l-63 -167h85v-42h-200v42h63l222 595h-79v43zM358 632h-1l-142 -383h279z" />
    <glyph glyph-name="AE" unicode="&#xc6;" horiz-adv-x="916" 
d="M396 637h-79v43h541v-123h-42v80h-320v-262h312v-43h-312v-290h320v80h42v-122h-415v296h-179q-131 -236 -154 -277h64l-5 -19h-159v42h58zM441 631l-158 -292h160v292h-2z" />
    <glyph glyph-name="Ccedilla" unicode="&#xc7;" horiz-adv-x="610" 
d="M323 -73v63q-63 1 -110.5 20.5t-77 51t-47.5 77.5t-24.5 95.5t-6.5 110.5q0 60 7 108t26 93.5t49.5 76t80 49t115.5 18.5q113 0 225 -33v-120h-43v87q-97 23 -178 23q-68 0 -114.5 -24.5t-70 -69.5t-33 -94.5t-9.5 -113.5q0 -68 9.5 -119.5t33 -98t70 -71t114.5 -24.5
q82 0 178 24v86h43v-120q-107 -30 -214 -32v-48q35 -2 59 -18.5t24 -52.5q0 -35 -24.5 -55.5t-67.5 -20.5q-30 0 -69 12l5 20q32 -10 57 -10q36 0 51 18t15 39q0 20 -16 36.5t-57 16.5z" />
    <glyph glyph-name="Egrave" unicode="&#xc8;" horiz-adv-x="570" 
d="M292 730l-81 140h46l65 -140h-30zM25 680h487v-123h-42v80h-320v-262h312v-43h-312v-290h320v80h42v-122h-487v42h72v595h-72v43z" />
    <glyph glyph-name="Eacute" unicode="&#xc9;" horiz-adv-x="570" 
d="M392 870l-81 -140h-30l65 140h46zM25 680h487v-123h-42v80h-320v-262h312v-43h-312v-290h320v80h42v-122h-487v42h72v595h-72v43z" />
    <glyph glyph-name="Ecircumflex" unicode="&#xca;" horiz-adv-x="570" 
d="M306 840l-92 -110h-30l104 140h37l104 -140h-30zM25 680h487v-123h-42v80h-320v-262h312v-43h-312v-290h320v80h42v-122h-487v42h72v595h-72v43z" />
    <glyph glyph-name="Edieresis" unicode="&#xcb;" horiz-adv-x="570" 
d="M140 870h45v-110h-45v110zM400 870h45v-110h-45v110zM25 680h487v-123h-42v80h-320v-262h312v-43h-312v-290h320v80h42v-122h-487v42h72v595h-72v43z" />
    <glyph glyph-name="Igrave" unicode="&#xcc;" horiz-adv-x="247" 
d="M112 730l-81 140h46l65 -140h-30zM25 42h72v595h-72v43h197v-43h-72v-595h72v-42h-197v42z" />
    <glyph glyph-name="Iacute" unicode="&#xcd;" horiz-adv-x="247" 
d="M219 870l-81 -140h-30l65 140h46zM25 42h72v595h-72v43h197v-43h-72v-595h72v-42h-197v42z" />
    <glyph glyph-name="Icircumflex" unicode="&#xce;" horiz-adv-x="247" 
d="M123 840l-92 -110h-30l104 140h37l104 -140h-30zM25 42h72v595h-72v43h197v-43h-72v-595h72v-42h-197v42z" />
    <glyph glyph-name="Idieresis" unicode="&#xcf;" horiz-adv-x="247" 
d="M-29 870h45v-110h-45v110zM231 870h45v-110h-45v110zM25 42h72v595h-72v43h197v-43h-72v-595h72v-42h-197v42z" />
    <glyph glyph-name="Eth" unicode="&#xd0;" horiz-adv-x="660" 
d="M25 680h304q273 0 273 -335q0 -345 -273 -345h-304v42h72v287h-72v32h72v276h-72v43zM150 42h179q218 0 218 303q0 63 -9.5 112t-33 91.5t-67.5 65.5t-108 23h-179v-276h107v-32h-107v-287z" />
    <glyph glyph-name="Ntilde" unicode="&#xd1;" horiz-adv-x="690" 
d="M303 807q-21 0 -36.5 -8.5t-52.5 -45.5l-17 14q33 43 55.5 60t48.5 17t71 -31t60 -31q37 0 65 49l16 -16q-33 -66 -75 -67q-7 -1 -21 3q-14 5 -54.5 30.5t-59.5 25.5zM470 680h195v-43h-73v-637h-53l-391 583h-2v-541h74v-42h-195v42h72v595h-72v43h124l393 -589h2v546
h-74v43z" />
    <glyph glyph-name="Ograve" unicode="&#xd2;" horiz-adv-x="670" 
d="M335 730l-81 140h46l65 -140h-30zM335 647q-55 0 -96 -17t-65 -44t-38.5 -68t-19 -81.5t-4.5 -91.5q0 -65 8.5 -115.5t31 -98t69 -73.5t114.5 -26t114.5 26t68.5 74t30.5 97.5t8.5 115.5q0 51 -4.5 91.5t-18.5 81.5t-38 68t-65 44t-96 17zM335 -10q-66 0 -115.5 19
t-80 50.5t-49.5 78.5t-26 96.5t-7 110.5q0 60 7 108t26 93.5t49.5 76t80 49t115.5 18.5t115.5 -18.5t80 -49t49 -76t25.5 -93.5t7 -108q0 -61 -7 -110.5t-25.5 -96.5t-49 -78.5t-80 -50.5t-115.5 -19z" />
    <glyph glyph-name="Oacute" unicode="&#xd3;" horiz-adv-x="670" 
d="M432 870l-81 -140h-30l65 140h46zM335 647q-55 0 -96 -17t-65 -44t-38.5 -68t-19 -81.5t-4.5 -91.5q0 -65 8.5 -115.5t31 -98t69 -73.5t114.5 -26t114.5 26t68.5 74t30.5 97.5t8.5 115.5q0 51 -4.5 91.5t-18.5 81.5t-38 68t-65 44t-96 17zM335 -10q-66 0 -115.5 19
t-80 50.5t-49.5 78.5t-26 96.5t-7 110.5q0 60 7 108t26 93.5t49.5 76t80 49t115.5 18.5t115.5 -18.5t80 -49t49 -76t25.5 -93.5t7 -108q0 -61 -7 -110.5t-25.5 -96.5t-49 -78.5t-80 -50.5t-115.5 -19z" />
    <glyph glyph-name="Ocircumflex" unicode="&#xd4;" horiz-adv-x="670" 
d="M335 840l-92 -110h-30l104 140h37l104 -140h-30zM335 647q-55 0 -96 -17t-65 -44t-38.5 -68t-19 -81.5t-4.5 -91.5q0 -65 8.5 -115.5t31 -98t69 -73.5t114.5 -26t114.5 26t68.5 74t30.5 97.5t8.5 115.5q0 51 -4.5 91.5t-18.5 81.5t-38 68t-65 44t-96 17zM335 -10
q-66 0 -115.5 19t-80 50.5t-49.5 78.5t-26 96.5t-7 110.5q0 60 7 108t26 93.5t49.5 76t80 49t115.5 18.5t115.5 -18.5t80 -49t49 -76t25.5 -93.5t7 -108q0 -61 -7 -110.5t-25.5 -96.5t-49 -78.5t-80 -50.5t-115.5 -19z" />
    <glyph glyph-name="Otilde" unicode="&#xd5;" horiz-adv-x="670" 
d="M282 807q-21 0 -36.5 -8.5t-52.5 -45.5l-17 14q33 43 55.5 60t48.5 17t71 -31t60 -31q37 0 65 49l16 -16q-33 -66 -75 -67q-7 -1 -21 3q-14 5 -54.5 30.5t-59.5 25.5zM335 647q-55 0 -96 -17t-65 -44t-38.5 -68t-19 -81.5t-4.5 -91.5q0 -65 8.5 -115.5t31 -98t69 -73.5
t114.5 -26t114.5 26t68.5 74t30.5 97.5t8.5 115.5q0 51 -4.5 91.5t-18.5 81.5t-38 68t-65 44t-96 17zM335 -10q-66 0 -115.5 19t-80 50.5t-49.5 78.5t-26 96.5t-7 110.5q0 60 7 108t26 93.5t49.5 76t80 49t115.5 18.5t115.5 -18.5t80 -49t49 -76t25.5 -93.5t7 -108
q0 -61 -7 -110.5t-25.5 -96.5t-49 -78.5t-80 -50.5t-115.5 -19z" />
    <glyph glyph-name="Odieresis" unicode="&#xd6;" horiz-adv-x="670" 
d="M185 870h45v-110h-45v110zM445 870h45v-110h-45v110zM335 647q-55 0 -96 -17t-65 -44t-38.5 -68t-19 -81.5t-4.5 -91.5q0 -65 8.5 -115.5t31 -98t69 -73.5t114.5 -26t114.5 26t68.5 74t30.5 97.5t8.5 115.5q0 51 -4.5 91.5t-18.5 81.5t-38 68t-65 44t-96 17zM335 -10
q-66 0 -115.5 19t-80 50.5t-49.5 78.5t-26 96.5t-7 110.5q0 60 7 108t26 93.5t49.5 76t80 49t115.5 18.5t115.5 -18.5t80 -49t49 -76t25.5 -93.5t7 -108q0 -61 -7 -110.5t-25.5 -96.5t-49 -78.5t-80 -50.5t-115.5 -19z" />
    <glyph glyph-name="multiply" unicode="&#xd7;" horiz-adv-x="526" 
d="M435 407l-142 -142l142 -142l-30 -30l-142 142l-142 -142l-30 30l142 142l-142 142l30 30l142 -142l142 142z" />
    <glyph glyph-name="Oslash" unicode="&#xd8;" horiz-adv-x="670" 
d="M335 -10q-137 0 -204 81l-77 -98l-19 16l80 100q-58 86 -58 256q0 60 7 108t26 93.5t49.5 76t80 49t115.5 18.5q129 0 198 -74l82 103l20 -15l-85 -106q62 -81 62 -253q0 -61 -7 -110.5t-25.5 -96.5t-49 -78.5t-80 -50.5t-115.5 -19zM335 35q55 0 96 18t64.5 46t38 70.5
t19 83.5t4.5 92q0 140 -43 208l-350 -442q53 -76 171 -76zM335 645q-69 0 -115 -24t-68.5 -69t-31 -93.5t-8.5 -113.5q0 -140 40 -209l350 440q-54 69 -167 69z" />
    <glyph glyph-name="Ugrave" unicode="&#xd9;" horiz-adv-x="680" 
d="M319 730l-81 140h46l65 -140h-30zM457 680h198v-43h-73v-397q0 -129 -59 -189.5t-183 -60.5t-183.5 60.5t-59.5 189.5v397h-72v43h197v-43h-72v-397q0 -31 2 -52.5t12.5 -53.5t30 -52t58 -35t91.5 -15q50 0 86.5 15t55 35.5t29 51.5t13 54t2.5 52v397h-73v43z" />
    <glyph glyph-name="Uacute" unicode="&#xda;" horiz-adv-x="680" 
d="M437 870l-81 -140h-30l65 140h46zM457 680h198v-43h-73v-397q0 -129 -59 -189.5t-183 -60.5t-183.5 60.5t-59.5 189.5v397h-72v43h197v-43h-72v-397q0 -31 2 -52.5t12.5 -53.5t30 -52t58 -35t91.5 -15q50 0 86.5 15t55 35.5t29 51.5t13 54t2.5 52v397h-73v43z" />
    <glyph glyph-name="Ucircumflex" unicode="&#xdb;" horiz-adv-x="680" 
d="M346 840l-92 -110h-30l104 140h37l104 -140h-30zM457 680h198v-43h-73v-397q0 -129 -59 -189.5t-183 -60.5t-183.5 60.5t-59.5 189.5v397h-72v43h197v-43h-72v-397q0 -31 2 -52.5t12.5 -53.5t30 -52t58 -35t91.5 -15q50 0 86.5 15t55 35.5t29 51.5t13 54t2.5 52v397h-73
v43z" />
    <glyph glyph-name="Udieresis" unicode="&#xdc;" horiz-adv-x="680" 
d="M187 870h45v-110h-45v110zM447 870h45v-110h-45v110zM457 680h198v-43h-73v-397q0 -129 -59 -189.5t-183 -60.5t-183.5 60.5t-59.5 189.5v397h-72v43h197v-43h-72v-397q0 -31 2 -52.5t12.5 -53.5t30 -52t58 -35t91.5 -15q50 0 86.5 15t55 35.5t29 51.5t13 54t2.5 52v397
h-73v43z" />
    <glyph glyph-name="Yacute" unicode="&#xdd;" horiz-adv-x="660" 
d="M439 870l-81 -140h-30l65 140h46zM356 42h73v-42h-198v42h73v188l-223 407h-56v43h221v-43h-108l195 -355h2l193 355h-106v43h213v-43h-55l-224 -407v-188z" />
    <glyph glyph-name="Thorn" unicode="&#xde;" horiz-adv-x="620" 
d="M150 527h217q93 0 144 -52t51 -135q0 -88 -50.5 -138t-144.5 -50h-217v-152h-125v42h72v595h-72v43h125v-153zM150 485v-290h212q70 0 108.5 37.5t38.5 107.5q0 66 -39 105.5t-108 39.5h-212z" />
    <glyph glyph-name="germandbls" unicode="&#xdf;" horiz-adv-x="645" 
d="M107 42v420h-82v34l82 4q0 200 213 200q92 0 142 -39.5t50 -110.5q0 -43 -20.5 -76.5t-45 -49.5t-45 -34t-20.5 -34q0 -25 49 -45q86 -29 124 -67t38 -96q0 -81 -54.5 -119.5t-133.5 -38.5q-66 0 -129 20l7 40q61 -20 118 -20q46 0 77 14t43 36t16 37t4 30q0 27 -10.5 49
t-31 36.5t-35 22.5t-38.5 16.5t-26 9.5q-37 15 -52 30.5t-15 39.5q0 21 19.5 41.5t42.5 36t42.5 45.5t19.5 68q0 35 -14 59.5t-37.5 36.5t-45 16.5t-43.5 4.5q-50 0 -84 -16.5t-49 -45.5t-20.5 -56.5t-5.5 -63.5v-477h-122v42h72z" />
    <glyph glyph-name="agrave" unicode="&#xe0;" horiz-adv-x="535" 
d="M129 382h-43v109q94 19 179 19q88 0 130 -36.5t42 -126.5v-305h73v-42h-123v50h-2q-74 -58 -157 -59q-27 -2 -53 3q-54 8 -86 40.5t-35 84.5q-1 20 2 44q17 117 206 117h125v65q0 62 -30.5 92t-101.5 30q-56 0 -126 -12v-73zM387 84v163h-118q-91 0 -129 -28t-38 -84
q0 -47 34.5 -76t98.5 -29q88 0 152 54zM265 560l-81 140h46l65 -140h-30z" />
    <glyph glyph-name="aacute" unicode="&#xe1;" horiz-adv-x="535" 
d="M129 382h-43v109q94 19 179 19q88 0 130 -36.5t42 -126.5v-305h73v-42h-123v50h-2q-74 -58 -157 -59q-27 -2 -53 3q-54 8 -86 40.5t-35 84.5q-1 20 2 44q17 117 206 117h125v65q0 62 -30.5 92t-101.5 30q-56 0 -126 -12v-73zM387 84v163h-118q-91 0 -129 -28t-38 -84
q0 -47 34.5 -76t98.5 -29q88 0 152 54zM354 700l-81 -140h-30l65 140h46z" />
    <glyph glyph-name="acircumflex" unicode="&#xe2;" horiz-adv-x="535" 
d="M129 382h-43v109q94 19 179 19q88 0 130 -36.5t42 -126.5v-305h73v-42h-123v50h-2q-74 -58 -157 -59q-27 -2 -53 3q-54 8 -86 40.5t-35 84.5q-1 20 2 44q17 117 206 117h125v65q0 62 -30.5 92t-101.5 30q-56 0 -126 -12v-73zM387 84v163h-118q-91 0 -129 -28t-38 -84
q0 -47 34.5 -76t98.5 -29q88 0 152 54zM269 670l-92 -110h-30l104 140h37l104 -140h-30z" />
    <glyph glyph-name="atilde" unicode="&#xe3;" horiz-adv-x="535" 
d="M129 382h-43v109q94 19 179 19q88 0 130 -36.5t42 -126.5v-305h73v-42h-123v50h-2q-74 -58 -157 -59q-27 -2 -53 3q-54 8 -86 40.5t-35 84.5q-1 20 2 44q17 117 206 117h125v65q0 62 -30.5 92t-101.5 30q-56 0 -126 -12v-73zM387 84v163h-118q-91 0 -129 -28t-38 -84
q0 -47 34.5 -76t98.5 -29q88 0 152 54zM219 637q-21 0 -36.5 -8.5t-52.5 -45.5l-17 14q33 43 55.5 60t48.5 17t71 -31t60 -31q37 0 65 49l16 -16q-33 -66 -75 -67q-7 -1 -21 3q-14 5 -54.5 30.5t-59.5 25.5z" />
    <glyph glyph-name="adieresis" unicode="&#xe4;" horiz-adv-x="535" 
d="M129 382h-43v109q94 19 179 19q88 0 130 -36.5t42 -126.5v-305h73v-42h-123v50h-2q-74 -58 -157 -59q-27 -2 -53 3q-54 8 -86 40.5t-35 84.5q-1 20 2 44q17 117 206 117h125v65q0 62 -30.5 92t-101.5 30q-56 0 -126 -12v-73zM387 84v163h-118q-91 0 -129 -28t-38 -84
q0 -47 34.5 -76t98.5 -29q88 0 152 54zM116 700h45v-110h-45v110zM376 700h45v-110h-45v110z" />
    <glyph glyph-name="aring" unicode="&#xe5;" horiz-adv-x="535" 
d="M129 382h-43v109q94 19 179 19q88 0 130 -36.5t42 -126.5v-305h73v-42h-123v50h-2q-74 -58 -157 -59q-27 -2 -53 3q-54 8 -86 40.5t-35 84.5q-1 20 2 44q17 117 206 117h125v65q0 62 -30.5 92t-101.5 30q-56 0 -126 -12v-73zM387 84v163h-118q-91 0 -129 -28t-38 -84
q0 -47 34.5 -76t98.5 -29q88 0 152 54zM184 650q0 35 25 60.5t61 25.5q35 0 60.5 -25.5t25.5 -60.5q0 -36 -25.5 -61t-60.5 -25q-36 0 -61 25t-25 61zM206 650q0 -27 18.5 -45.5t45.5 -18.5t45.5 18.5t18.5 45.5t-18.5 45.5t-45.5 18.5t-45.5 -18.5t-18.5 -45.5z" />
    <glyph glyph-name="ae" unicode="&#xe6;" horiz-adv-x="860" 
d="M255 467q-63 0 -126 -12v-73h-43v109q99 19 177 19q77 0 114 -30t46 -101q45 131 197 131q58 0 99 -19t60 -47t26.5 -65.5t5.5 -69t-9 -62.5h-361q2 -215 193 -215q90 0 156 20l7 -41q-76 -21 -170 -21q-146 0 -202 94q-85 -94 -208 -94q-76 0 -120.5 37.5t-44.5 103.5
q0 81 56 115t160 34h119v62q0 64 -29.5 94.5t-102.5 30.5zM235 30q103 0 176 75q-24 54 -24 142h-122q-90 0 -126.5 -28.5t-36.5 -83.5q0 -47 34.5 -76t98.5 -29zM617 470q-163 0 -176 -189h313q9 32 5 65.5t-16.5 61t-45 45t-80.5 17.5z" />
    <glyph glyph-name="ccedilla" unicode="&#xe7;" horiz-adv-x="495" 
d="M110 250q0 -98 43 -158t137 -60q78 0 155 20l10 -41q-84 -21 -163 -21v-48q35 -2 59.5 -18.5t24.5 -52.5q0 -35 -25 -55.5t-68 -20.5q-31 0 -68 12l4 20q32 -10 57 -10q36 0 51 18t15 39q0 53 -73 53v64q-212 10 -212 259q0 260 233 260q81 0 165 -21v-107h-43v72
q-56 13 -122 13q-94 0 -137 -59.5t-43 -157.5z" />
    <glyph glyph-name="egrave" unicode="&#xe8;" horiz-adv-x="530" 
d="M472 247h-362q2 -215 194 -215q90 0 156 20l7 -41q-76 -21 -170 -21q-240 0 -240 260t233 260q58 0 99 -19t60 -47t26.5 -65.5t5.5 -69t-9 -62.5zM287 470q-164 0 -177 -189h314q9 32 5 65.5t-16.5 61t-45 45t-80.5 17.5zM275 560l-81 140h46l65 -140h-30z" />
    <glyph glyph-name="eacute" unicode="&#xe9;" horiz-adv-x="530" 
d="M472 247h-362q2 -215 194 -215q90 0 156 20l7 -41q-76 -21 -170 -21q-240 0 -240 260t233 260q58 0 99 -19t60 -47t26.5 -65.5t5.5 -69t-9 -62.5zM287 470q-164 0 -177 -189h314q9 32 5 65.5t-16.5 61t-45 45t-80.5 17.5zM394 700l-81 -140h-30l65 140h46z" />
    <glyph glyph-name="ecircumflex" unicode="&#xea;" horiz-adv-x="530" 
d="M472 247h-362q2 -215 194 -215q90 0 156 20l7 -41q-76 -21 -170 -21q-240 0 -240 260t233 260q58 0 99 -19t60 -47t26.5 -65.5t5.5 -69t-9 -62.5zM287 470q-164 0 -177 -189h314q9 32 5 65.5t-16.5 61t-45 45t-80.5 17.5zM288 670l-92 -110h-30l104 140h37l104 -140h-30z
" />
    <glyph glyph-name="edieresis" unicode="&#xeb;" horiz-adv-x="530" 
d="M472 247h-362q2 -215 194 -215q90 0 156 20l7 -41q-76 -21 -170 -21q-240 0 -240 260t233 260q58 0 99 -19t60 -47t26.5 -65.5t5.5 -69t-9 -62.5zM287 470q-164 0 -177 -189h314q9 32 5 65.5t-16.5 61t-45 45t-80.5 17.5zM131 700h45v-110h-45v110zM391 700h45v-110h-45
v110z" />
    <glyph glyph-name="igrave" unicode="&#xec;" horiz-adv-x="245" 
d="M25 457v43h122v-458h73v-42h-195v42h72v415h-72zM94 560l-81 140h46l65 -140h-30z" />
    <glyph glyph-name="iacute" unicode="&#xed;" horiz-adv-x="245" 
d="M25 457v43h122v-458h73v-42h-195v42h72v415h-72zM220 700l-81 -140h-30l65 140h46z" />
    <glyph glyph-name="icircumflex" unicode="&#xee;" horiz-adv-x="245" 
d="M116 670l-92 -110h-30l104 140h37l104 -140h-30zM25 457v43h122v-458h73v-42h-195v42h72v415h-72z" />
    <glyph glyph-name="idieresis" unicode="&#xef;" horiz-adv-x="245" 
d="M25 457v43h122v-458h73v-42h-195v42h72v415h-72zM-33 700h45v-110h-45v110zM227 700h45v-110h-45v110z" />
    <glyph glyph-name="eth" unicode="&#xf0;" horiz-adv-x="550" 
d="M378 636l78 78l20 -20l-75 -76q91 -96 91 -318q0 -310 -225 -310q-91 0 -150.5 62.5t-59.5 167.5q0 112 54.5 173.5t152.5 61.5q105 0 176 -106l2 1q-6 160 -73 235l-81 -81l-20 21l76 77q-52 45 -127 45q-65 0 -131 -22l-8 39q75 26 143 26q94 0 157 -54zM439 305
q-30 47 -73 76.5t-90 29.5q-48 0 -82.5 -17.5t-52 -47.5t-24.5 -60.5t-7 -65.5q0 -88 47 -138t114 -50q176 0 168 273z" />
    <glyph glyph-name="ntilde" unicode="&#xf1;" horiz-adv-x="590" 
d="M372 0v42h70v295q0 130 -120 130q-83 0 -175 -76v-349h70v-42h-192v42h72v415h-72v43h122v-75h2q92 85 193 85q150 0 150 -163v-305h73v-42h-193zM247 637q-21 0 -36.5 -8.5t-52.5 -45.5l-17 14q33 43 55.5 60t48.5 17t71 -31t60 -31q37 0 65 49l16 -16q-33 -66 -75 -67
q-7 -1 -21 3q-14 5 -54.5 30.5t-59.5 25.5z" />
    <glyph glyph-name="ograve" unicode="&#xf2;" horiz-adv-x="550" 
d="M275 467q-165 0 -165 -217q0 -218 165 -218t165 218q0 217 -165 217zM275 -10q-218 0 -218 260t218 260q217 0 217 -260t-217 -260zM269 560l-81 140h46l65 -140h-30z" />
    <glyph glyph-name="oacute" unicode="&#xf3;" horiz-adv-x="550" 
d="M275 467q-165 0 -165 -217q0 -218 165 -218t165 218q0 217 -165 217zM275 -10q-218 0 -218 260t218 260q217 0 217 -260t-217 -260zM371 700l-81 -140h-30l65 140h46z" />
    <glyph glyph-name="ocircumflex" unicode="&#xf4;" horiz-adv-x="550" 
d="M275 467q-165 0 -165 -217q0 -218 165 -218t165 218q0 217 -165 217zM275 -10q-218 0 -218 260t218 260q217 0 217 -260t-217 -260zM274 670l-92 -110h-30l104 140h37l104 -140h-30z" />
    <glyph glyph-name="otilde" unicode="&#xf5;" horiz-adv-x="550" 
d="M275 467q-165 0 -165 -217q0 -218 165 -218t165 218q0 217 -165 217zM275 -10q-218 0 -218 260t218 260q217 0 217 -260t-217 -260zM223 637q-21 0 -36.5 -8.5t-52.5 -45.5l-17 14q33 43 55.5 60t48.5 17t71 -31t60 -31q37 0 65 49l16 -16q-33 -66 -75 -67q-7 -1 -21 3
q-14 5 -54.5 30.5t-59.5 25.5z" />
    <glyph glyph-name="odieresis" unicode="&#xf6;" horiz-adv-x="550" 
d="M275 467q-165 0 -165 -217q0 -218 165 -218t165 218q0 217 -165 217zM275 -10q-218 0 -218 260t218 260q217 0 217 -260t-217 -260zM122 700h45v-110h-45v110zM382 700h45v-110h-45v110z" />
    <glyph glyph-name="divide" unicode="&#xf7;" horiz-adv-x="500" 
d="M67 281h365v-32h-365v32zM227 165h45v-110h-45v110zM227 475h45v-110h-45v110z" />
    <glyph glyph-name="oslash" unicode="&#xf8;" horiz-adv-x="550" 
d="M275 -10q-102 0 -155 61l-66 -78l-19 16l67 79q-45 63 -45 182q0 260 218 260q99 0 154 -60l67 77l19 -15l-69 -80q46 -66 46 -182q0 -260 -217 -260zM275 32q165 0 165 218q0 86 -31 138l-257 -301q42 -55 123 -55zM275 467q-165 0 -165 -217q0 -88 30 -138l258 301
q-43 54 -123 54z" />
    <glyph glyph-name="ugrave" unicode="&#xf9;" horiz-adv-x="590" 
d="M25 457v43h122v-338q0 -130 120 -130q82 0 175 77v348h-95v43h145v-458h73v-42h-123v75h-2q-92 -85 -193 -85q-150 0 -150 162v305h-72zM274 560l-81 140h46l65 -140h-30z" />
    <glyph glyph-name="uacute" unicode="&#xfa;" horiz-adv-x="590" 
d="M25 457v43h122v-338q0 -130 120 -130q82 0 175 77v348h-95v43h145v-458h73v-42h-123v75h-2q-92 -85 -193 -85q-150 0 -150 162v305h-72zM376 700l-81 -140h-30l65 140h46z" />
    <glyph glyph-name="ucircumflex" unicode="&#xfb;" horiz-adv-x="590" 
d="M25 457v43h122v-338q0 -130 120 -130q82 0 175 77v348h-95v43h145v-458h73v-42h-123v75h-2q-92 -85 -193 -85q-150 0 -150 162v305h-72zM280 670l-92 -110h-30l104 140h37l104 -140h-30z" />
    <glyph glyph-name="udieresis" unicode="&#xfc;" horiz-adv-x="590" 
d="M25 457v43h122v-338q0 -130 120 -130q82 0 175 77v348h-95v43h145v-458h73v-42h-123v75h-2q-92 -85 -193 -85q-150 0 -150 162v305h-72zM127 700h45v-110h-45v110zM387 700h45v-110h-45v110z" />
    <glyph glyph-name="yacute" unicode="&#xfd;" horiz-adv-x="580" 
d="M368 457v43h186v-43h-48l-194 -498q-65 -169 -179 -169q-33 0 -59 6l5 41q28 -5 45 -5q30 0 54 13.5t42.5 42t27.5 47t22 52.5l-195 470h-50v43h194v-43h-88l169 -416h2l153 416h-87zM392 700l-81 -140h-30l65 140h46z" />
    <glyph glyph-name="thorn" unicode="&#xfe;" horiz-adv-x="560" 
d="M25 657v43h122v-250h2q69 60 166 60q187 0 187 -260q0 -120 -45.5 -190t-144.5 -70q-96 0 -163 59h-2v-207h73v-42h-195v42h72v815h-72zM450 250q0 217 -153 217q-81 0 -150 -53v-328q67 -54 150 -54q153 0 153 218z" />
    <glyph glyph-name="ydieresis" unicode="&#xff;" horiz-adv-x="580" 
d="M368 457v43h186v-43h-48l-194 -498q-65 -169 -179 -169q-33 0 -59 6l5 41q28 -5 45 -5q30 0 54 13.5t42.5 42t27.5 47t22 52.5l-195 470h-50v43h194v-43h-88l169 -416h2l153 416h-87zM143 700h45v-110h-45v110zM403 700h45v-110h-45v110z" />
    <glyph glyph-name="Amacron" unicode="&#x100;" horiz-adv-x="700" 
d="M235 805h235v-38h-235v38zM231 680h163l227 -638h54v-42h-203v42h91l-59 167h-301l-63 -167h85v-42h-200v42h63l222 595h-79v43zM358 632h-1l-142 -383h279z" />
    <glyph glyph-name="amacron" unicode="&#x101;" horiz-adv-x="535" 
d="M129 382h-43v109q94 19 179 19q88 0 130 -36.5t42 -126.5v-305h73v-42h-123v50h-2q-74 -58 -157 -59q-27 -2 -53 3q-54 8 -86 40.5t-35 84.5q-1 20 2 44q17 117 206 117h125v65q0 62 -30.5 92t-101.5 30q-56 0 -126 -12v-73zM387 84v163h-118q-91 0 -129 -28t-38 -84
q0 -47 34.5 -76t98.5 -29q88 0 152 54zM148 635h235v-38h-235v38z" />
    <glyph glyph-name="Abreve" unicode="&#x102;" horiz-adv-x="700" 
d="M353 784q85 0 109 96h24q-10 -66 -46 -97t-87 -31t-86.5 31.5t-45.5 96.5h25q22 -96 107 -96zM231 680h163l227 -638h54v-42h-203v42h91l-59 167h-301l-63 -167h85v-42h-200v42h63l222 595h-79v43zM358 632h-1l-142 -383h279z" />
    <glyph glyph-name="abreve" unicode="&#x103;" horiz-adv-x="535" 
d="M129 382h-43v109q94 19 179 19q88 0 130 -36.5t42 -126.5v-305h73v-42h-123v50h-2q-74 -58 -157 -59q-27 -2 -53 3q-54 8 -86 40.5t-35 84.5q-1 20 2 44q17 117 206 117h125v65q0 62 -30.5 92t-101.5 30q-56 0 -126 -12v-73zM387 84v163h-118q-91 0 -129 -28t-38 -84
q0 -47 34.5 -76t98.5 -29q88 0 152 54zM272 614q85 0 109 96h24q-10 -66 -46 -97t-87 -31t-86.5 31.5t-45.5 96.5h25q22 -96 107 -96z" />
    <glyph glyph-name="Aogonek" unicode="&#x104;" horiz-adv-x="700" 
d="M653 -153l4 -16q-37 -29 -85 -29q-31 0 -54 16.5t-23 49.5q0 68 85 132h-108v42h91l-59 167h-301l-63 -167h85v-42h-200v42h63l222 595h-79v43h163l227 -638h54v-42h-66q-33 -25 -56 -59t-23 -61q0 -26 15 -40.5t42 -14.5t66 22zM358 632h-1l-142 -383h279z" />
    <glyph glyph-name="aogonek" unicode="&#x105;" horiz-adv-x="535" 
d="M462 -153l4 -16q-37 -29 -85 -29q-31 0 -54 16.5t-23 49.5q0 68 83 132v50h-2q-78 -60 -168 -60q-76 0 -120.5 37.5t-44.5 103.5q0 149 210 149h125v65q0 62 -30.5 92t-101.5 30q-63 0 -126 -12v-73h-43v109q94 19 179 19q88 0 130 -36.5t42 -126.5v-305h73v-42h-92
q-33 -25 -56 -59t-23 -61q0 -26 15 -40.5t42 -14.5q28 0 66 22zM387 84v163h-122q-90 0 -126.5 -28.5t-36.5 -83.5q0 -47 34.5 -76t98.5 -29q88 0 152 54z" />
    <glyph glyph-name="Cacute" unicode="&#x106;" horiz-adv-x="610" 
d="M446 870l-81 -140h-30l65 140h46zM517 142h43v-120q-113 -32 -225 -32q-66 0 -115.5 18.5t-80 50t-49.5 78t-26 96.5t-7 112q0 60 7 108t26 93.5t49.5 76t80 49t115.5 18.5q113 0 225 -33v-120h-43v87q-97 23 -178 23q-68 0 -114.5 -24.5t-70 -69.5t-33 -94.5
t-9.5 -113.5q0 -68 9.5 -119.5t33 -98t70 -71t114.5 -24.5q82 0 178 24v86z" />
    <glyph glyph-name="cacute" unicode="&#x107;" horiz-adv-x="495" 
d="M455 382h-43v72q-56 13 -122 13q-94 0 -137 -59.5t-43 -157.5t43 -158t137 -60q78 0 155 20l10 -41q-84 -21 -165 -21q-233 0 -233 260t233 260q81 0 165 -21v-107zM372 700l-81 -140h-30l65 140h46z" />
    <glyph glyph-name="Ccircumflex" unicode="&#x108;" horiz-adv-x="610" 
d="M356 840l-92 -110h-30l104 140h37l104 -140h-30zM517 142h43v-120q-113 -32 -225 -32q-66 0 -115.5 18.5t-80 50t-49.5 78t-26 96.5t-7 112q0 60 7 108t26 93.5t49.5 76t80 49t115.5 18.5q113 0 225 -33v-120h-43v87q-97 23 -178 23q-68 0 -114.5 -24.5t-70 -69.5
t-33 -94.5t-9.5 -113.5q0 -68 9.5 -119.5t33 -98t70 -71t114.5 -24.5q82 0 178 24v86z" />
    <glyph glyph-name="ccircumflex" unicode="&#x109;" horiz-adv-x="495" 
d="M455 382h-43v72q-56 13 -122 13q-94 0 -137 -59.5t-43 -157.5t43 -158t137 -60q78 0 155 20l10 -41q-84 -21 -165 -21q-233 0 -233 260t233 260q81 0 165 -21v-107zM275 670l-92 -110h-30l104 140h37l104 -140h-30z" />
    <glyph glyph-name="Cdotaccent" unicode="&#x10a;" horiz-adv-x="610" 
d="M324 870h45v-110h-45v110zM517 142h43v-120q-113 -32 -225 -32q-66 0 -115.5 18.5t-80 50t-49.5 78t-26 96.5t-7 112q0 60 7 108t26 93.5t49.5 76t80 49t115.5 18.5q113 0 225 -33v-120h-43v87q-97 23 -178 23q-68 0 -114.5 -24.5t-70 -69.5t-33 -94.5t-9.5 -113.5
q0 -68 9.5 -119.5t33 -98t70 -71t114.5 -24.5q82 0 178 24v86z" />
    <glyph glyph-name="cdotaccent" unicode="&#x10b;" horiz-adv-x="495" 
d="M455 382h-43v72q-56 13 -122 13q-94 0 -137 -59.5t-43 -157.5t43 -158t137 -60q78 0 155 20l10 -41q-84 -21 -165 -21q-233 0 -233 260t233 260q81 0 165 -21v-107zM245 700h45v-110h-45v110z" />
    <glyph glyph-name="Ccaron" unicode="&#x10c;" horiz-adv-x="610" 
d="M255 870l92 -110l93 110h30l-104 -140h-37l-104 140h30zM517 142h43v-120q-113 -32 -225 -32q-66 0 -115.5 18.5t-80 50t-49.5 78t-26 96.5t-7 112q0 60 7 108t26 93.5t49.5 76t80 49t115.5 18.5q113 0 225 -33v-120h-43v87q-97 23 -178 23q-68 0 -114.5 -24.5t-70 -69.5
t-33 -94.5t-9.5 -113.5q0 -68 9.5 -119.5t33 -98t70 -71t114.5 -24.5q82 0 178 24v86z" />
    <glyph glyph-name="ccaron" unicode="&#x10d;" horiz-adv-x="495" 
d="M455 382h-43v72q-56 13 -122 13q-94 0 -137 -59.5t-43 -157.5t43 -158t137 -60q78 0 155 20l10 -41q-84 -21 -165 -21q-233 0 -233 260t233 260q81 0 165 -21v-107zM196 700l92 -110l93 110h30l-104 -140h-37l-104 140h30z" />
    <glyph glyph-name="Dcaron" unicode="&#x10e;" horiz-adv-x="660" 
d="M217 870l92 -110l93 110h30l-104 -140h-37l-104 140h30zM25 680h304q273 0 273 -335q0 -345 -273 -345h-304v42h72v595h-72v43zM150 42h179q218 0 218 303q0 63 -9.5 112t-33 91.5t-67.5 65.5t-108 23h-179v-595z" />
    <glyph glyph-name="dcaron" unicode="&#x10f;" horiz-adv-x="560" 
d="M340 657v43h122v-658h73v-42h-123v50h-2q-67 -60 -165 -60q-188 0 -188 260q0 119 45.5 189.5t144.5 70.5q97 0 163 -59h2v206h-72zM110 250q0 -218 152 -218q86 0 150 54v328q-66 53 -150 53q-152 0 -152 -217zM580 630h-20l15 107h-18v93h50v-93z" />
    <glyph glyph-name="Dcroat" unicode="&#x110;" horiz-adv-x="660" 
d="M25 680h304q273 0 273 -335q0 -345 -273 -345h-304v42h72v287h-72v32h72v276h-72v43zM150 42h179q218 0 218 303q0 63 -9.5 112t-33 91.5t-67.5 65.5t-108 23h-179v-276h107v-32h-107v-287z" />
    <glyph glyph-name="dcroat" unicode="&#x111;" horiz-adv-x="560" 
d="M412 700h50v-94h65v-32h-65v-532h73v-42h-123v50h-2q-76 -60 -168 -60q-93 0 -139 69t-46 191q0 119 45.5 189.5t144.5 70.5q97 0 163 -59h2v123h-102v32h102v94zM110 250q0 -218 152 -218q86 0 150 54v328q-66 53 -150 53q-152 0 -152 -217z" />
    <glyph glyph-name="Emacron" unicode="&#x112;" horiz-adv-x="570" 
d="M174 805h235v-38h-235v38zM25 680h487v-123h-42v80h-320v-262h312v-43h-312v-290h320v80h42v-122h-487v42h72v595h-72v43z" />
    <glyph glyph-name="emacron" unicode="&#x113;" horiz-adv-x="530" 
d="M472 247h-362q2 -215 194 -215q90 0 156 20l7 -41q-76 -21 -170 -21q-240 0 -240 260t233 260q58 0 99 -19t60 -47t26.5 -65.5t5.5 -69t-9 -62.5zM287 470q-164 0 -177 -189h314q9 32 5 65.5t-16.5 61t-45 45t-80.5 17.5zM165 635h235v-38h-235v38z" />
    <glyph glyph-name="Ebreve" unicode="&#x114;" horiz-adv-x="570" 
d="M308 784q85 0 109 96h24q-10 -66 -46 -97t-87 -31t-86.5 31.5t-45.5 96.5h25q22 -96 107 -96zM25 680h487v-123h-42v80h-320v-262h312v-43h-312v-290h320v80h42v-122h-487v42h72v595h-72v43z" />
    <glyph glyph-name="ebreve" unicode="&#x115;" horiz-adv-x="530" 
d="M472 247h-362q2 -215 194 -215q90 0 156 20l7 -41q-76 -21 -170 -21q-240 0 -240 260t233 260q58 0 99 -19t60 -47t26.5 -65.5t5.5 -69t-9 -62.5zM287 470q-164 0 -177 -189h314q9 32 5 65.5t-16.5 61t-45 45t-80.5 17.5zM286 614q85 0 109 96h24q-10 -66 -46 -97
t-87 -31t-86.5 31.5t-45.5 96.5h25q22 -96 107 -96z" />
    <glyph glyph-name="Edotaccent" unicode="&#x116;" horiz-adv-x="570" 
d="M269 870h45v-110h-45v110zM25 680h487v-123h-42v80h-320v-262h312v-43h-312v-290h320v80h42v-122h-487v42h72v595h-72v43z" />
    <glyph glyph-name="edotaccent" unicode="&#x117;" horiz-adv-x="530" 
d="M472 247h-362q2 -215 194 -215q90 0 156 20l7 -41q-76 -21 -170 -21q-240 0 -240 260t233 260q58 0 99 -19t60 -47t26.5 -65.5t5.5 -69t-9 -62.5zM287 470q-164 0 -177 -189h314q9 32 5 65.5t-16.5 61t-45 45t-80.5 17.5zM247 700h45v-110h-45v110z" />
    <glyph glyph-name="Eogonek" unicode="&#x118;" horiz-adv-x="570" 
d="M25 680h487v-123h-42v80h-320v-262h312v-43h-312v-290h320v80h42v-122q-33 -25 -55.5 -58.5t-22.5 -61.5q0 -55 56 -55q28 0 66 22l4 -16q-37 -29 -85 -29q-31 0 -54 16.5t-23 49.5q0 67 85 132h-458v42h72v595h-72v43z" />
    <glyph glyph-name="eogonek" unicode="&#x119;" horiz-adv-x="530" 
d="M511 -142l4 -15q-37 -29 -85 -29q-31 0 -54 16.5t-23 49.5q0 61 73 122q-56 -12 -129 -12q-240 0 -240 260t233 260q58 0 99 -19t60 -47t26.5 -65.5t5.5 -69t-9 -62.5h-361q2 -215 193 -215q90 0 156 20l7 -41q-33 -24 -55.5 -58t-22.5 -62q0 -55 56 -55q27 0 66 22z
M287 470q-163 0 -176 -189h313q9 32 5 65.5t-16.5 61t-45 45t-80.5 17.5z" />
    <glyph glyph-name="Ecaron" unicode="&#x11a;" horiz-adv-x="570" 
d="M205 870l92 -110l93 110h30l-104 -140h-37l-104 140h30zM25 680h487v-123h-42v80h-320v-262h312v-43h-312v-290h320v80h42v-122h-487v42h72v595h-72v43z" />
    <glyph glyph-name="ecaron" unicode="&#x11b;" horiz-adv-x="530" 
d="M472 247h-362q2 -215 194 -215q90 0 156 20l7 -41q-76 -21 -170 -21q-240 0 -240 260t233 260q58 0 99 -19t60 -47t26.5 -65.5t5.5 -69t-9 -62.5zM287 470q-164 0 -177 -189h314q9 32 5 65.5t-16.5 61t-45 45t-80.5 17.5zM189 700l92 -110l93 110h30l-104 -140h-37
l-104 140h30z" />
    <glyph glyph-name="Gcircumflex" unicode="&#x11c;" horiz-adv-x="620" 
d="M353 840l-92 -110h-30l104 140h37l104 -140h-30zM112 345q0 -63 11.5 -115.5t36.5 -98t70.5 -71t108.5 -25.5q96 0 168 49v203h-155v43h208v-279q-111 -61 -225 -61q-62 0 -110 19t-79 51t-51.5 78t-29 96.5t-8.5 110.5t7 108t26 93.5t49.5 76t80 49t115.5 18.5
q113 0 225 -33v-120h-43v87q-97 23 -178 23q-68 0 -114.5 -24.5t-70 -69.5t-33 -94.5t-9.5 -113.5z" />
    <glyph glyph-name="gcircumflex" unicode="&#x11d;" horiz-adv-x="555" 
d="M84 -73q0 -101 165 -101q94 0 152 31.5t58 91.5q0 67 -104 72l-189 10q-42 -26 -62 -48t-20 -56zM265 214q65 0 103 34t38 92q0 60 -39 97t-102 37q-71 0 -108 -36.5t-37 -97.5q0 -59 38.5 -92.5t106.5 -33.5zM135 40v2q-45 24 -36 72.5t57 83.5v2q-85 42 -85 140
q0 79 51 124.5t143 45.5q31 0 67 -10h165v-33h-112v-1q69 -37 69 -126q0 -78 -53 -120.5t-136 -42.5q-44 0 -81 14q-23 -22 -32.5 -48.5t0.5 -46.5t39 -21l180 -9q140 -8 140 -109q0 -79 -68 -123t-208 -44q-195 0 -195 130q0 69 95 120zM279 670l-92 -110h-30l104 140h37
l104 -140h-30z" />
    <glyph glyph-name="Gbreve" unicode="&#x11e;" horiz-adv-x="620" 
d="M346 784q85 0 109 96h24q-10 -66 -46 -97t-87 -31t-86.5 31.5t-45.5 96.5h25q22 -96 107 -96zM112 345q0 -63 11.5 -115.5t36.5 -98t70.5 -71t108.5 -25.5q96 0 168 49v203h-155v43h208v-279q-111 -61 -225 -61q-62 0 -110 19t-79 51t-51.5 78t-29 96.5t-8.5 110.5t7 108
t26 93.5t49.5 76t80 49t115.5 18.5q113 0 225 -33v-120h-43v87q-97 23 -178 23q-68 0 -114.5 -24.5t-70 -69.5t-33 -94.5t-9.5 -113.5z" />
    <glyph glyph-name="gbreve" unicode="&#x11f;" horiz-adv-x="555" 
d="M84 -73q0 -101 165 -101q94 0 152 31.5t58 91.5q0 67 -104 72l-189 10q-42 -26 -62 -48t-20 -56zM265 214q65 0 103 34t38 92q0 60 -39 97t-102 37q-71 0 -108 -36.5t-37 -97.5q0 -59 38.5 -92.5t106.5 -33.5zM135 40v2q-45 24 -36 72.5t57 83.5v2q-85 42 -85 140
q0 79 51 124.5t143 45.5q31 0 67 -10h165v-33h-112v-1q69 -37 69 -126q0 -78 -53 -120.5t-136 -42.5q-44 0 -81 14q-23 -22 -32.5 -48.5t0.5 -46.5t39 -21l180 -9q140 -8 140 -109q0 -79 -68 -123t-208 -44q-195 0 -195 130q0 69 95 120zM286 614q85 0 109 96h24
q-10 -66 -46 -97t-87 -31t-86.5 31.5t-45.5 96.5h25q22 -96 107 -96z" />
    <glyph glyph-name="Gdotaccent" unicode="&#x120;" horiz-adv-x="620" 
d="M323 870h45v-110h-45v110zM112 345q0 -63 11.5 -115.5t36.5 -98t70.5 -71t108.5 -25.5q96 0 168 49v203h-155v43h208v-279q-111 -61 -225 -61q-62 0 -110 19t-79 51t-51.5 78t-29 96.5t-8.5 110.5t7 108t26 93.5t49.5 76t80 49t115.5 18.5q113 0 225 -33v-120h-43v87
q-97 23 -178 23q-68 0 -114.5 -24.5t-70 -69.5t-33 -94.5t-9.5 -113.5z" />
    <glyph glyph-name="gdotaccent" unicode="&#x121;" horiz-adv-x="555" 
d="M84 -73q0 -101 165 -101q94 0 152 31.5t58 91.5q0 67 -104 72l-189 10q-42 -26 -62 -48t-20 -56zM265 214q65 0 103 34t38 92q0 60 -39 97t-102 37q-71 0 -108 -36.5t-37 -97.5q0 -59 38.5 -92.5t106.5 -33.5zM135 40v2q-45 24 -36 72.5t57 83.5v2q-85 42 -85 140
q0 79 51 124.5t143 45.5q31 0 67 -10h165v-33h-112v-1q69 -37 69 -126q0 -78 -53 -120.5t-136 -42.5q-44 0 -81 14q-23 -22 -32.5 -48.5t0.5 -46.5t39 -21l180 -9q140 -8 140 -109q0 -79 -68 -123t-208 -44q-195 0 -195 130q0 69 95 120zM233 700h45v-110h-45v110z" />
    <glyph glyph-name="Gcommaaccent" unicode="&#x122;" horiz-adv-x="620" 
d="M112 345q0 -63 11.5 -115.5t36.5 -98t70.5 -71t108.5 -25.5q96 0 168 49v203h-155v43h208v-279q-111 -61 -225 -61q-62 0 -110 19t-79 51t-51.5 78t-29 96.5t-8.5 110.5t7 108t26 93.5t49.5 76t80 49t115.5 18.5q113 0 225 -33v-120h-43v87q-97 23 -178 23
q-68 0 -114.5 -24.5t-70 -69.5t-33 -94.5t-9.5 -113.5zM334 -240h-20l15 107h-18v93h50v-93z" />
    <glyph glyph-name="gcommaaccent" unicode="&#x123;" horiz-adv-x="555" 
d="M84 -73q0 -101 165 -101q94 0 152 31.5t58 91.5q0 67 -104 72l-189 10q-42 -26 -62 -48t-20 -56zM265 214q65 0 103 34t38 92q0 60 -39 97t-102 37q-71 0 -108 -36.5t-37 -97.5q0 -59 38.5 -92.5t106.5 -33.5zM135 40v2q-45 24 -36 72.5t57 83.5v2q-85 42 -85 140
q0 79 51 124.5t143 45.5q31 0 67 -10h165v-33h-112v-1q69 -37 69 -126q0 -78 -53 -120.5t-136 -42.5q-44 0 -81 14q-23 -22 -32.5 -48.5t0.5 -46.5t39 -21l180 -9q140 -8 140 -109q0 -79 -68 -123t-208 -44q-195 0 -195 130q0 69 95 120zM257 850h20l-15 -130h17v-115h-50
v115z" />
    <glyph glyph-name="Hcircumflex" unicode="&#x124;" horiz-adv-x="680" 
d="M339 840l-92 -110h-30l104 140h37l104 -140h-30zM457 42h73v290h-380v-290h72v-42h-197v42h72v595h-72v43h197v-43h-72v-262h380v262h-73v43h198v-43h-73v-595h73v-42h-198v42z" />
    <glyph glyph-name="hcircumflex" unicode="&#x125;" horiz-adv-x="590" 
d="M372 0v42h70v295q0 130 -120 130q-83 0 -175 -76v-349h70v-42h-192v42h72v615h-72v43h122v-275h2q92 85 193 85q150 0 150 -163v-305h73v-42h-193zM115 860l-92 -110h-30l104 140h37l104 -140h-30z" />
    <glyph glyph-name="Hbar" unicode="&#x126;" horiz-adv-x="680" 
d="M457 42h73v290h-380v-290h72v-42h-197v42h72v479h-65v20h65v96h-72v43h197v-43h-72v-96h380v96h-73v43h198v-43h-73v-96h65v-20h-65v-479h73v-42h-198v42zM150 375h380v146h-380v-146z" />
    <glyph glyph-name="hbar" unicode="&#x127;" horiz-adv-x="590" 
d="M372 0v42h70v295q0 130 -120 130q-83 0 -175 -76v-349h70v-42h-192v42h72v532h-65v32h65v94h50v-94h103v-32h-103v-149h2q89 80 183 84q31 0 45 -2q115 -16 115 -160v-305h73v-42h-193z" />
    <glyph glyph-name="Itilde" unicode="&#x128;" horiz-adv-x="247" 
d="M72 807q-21 0 -36.5 -8.5t-52.5 -45.5l-17 14q33 43 55.5 60t48.5 17t71 -31t60 -31q37 0 65 49l16 -16q-33 -66 -75 -67q-7 -1 -21 3q-14 5 -54.5 30.5t-59.5 25.5zM25 42h72v595h-72v43h197v-43h-72v-595h72v-42h-197v42z" />
    <glyph glyph-name="itilde" unicode="&#x129;" horiz-adv-x="245" 
d="M25 457v43h122v-458h73v-42h-195v42h72v415h-72zM66 637q-21 0 -36.5 -8.5t-52.5 -45.5l-17 14q33 43 55.5 60t48.5 17t71 -31t60 -31q37 0 65 49l16 -16q-33 -66 -75 -67q-7 -1 -21 3q-14 5 -54.5 30.5t-59.5 25.5z" />
    <glyph glyph-name="Imacron" unicode="&#x12a;" horiz-adv-x="247" 
d="M6 805h235v-38h-235v38zM25 42h72v595h-72v43h197v-43h-72v-595h72v-42h-197v42z" />
    <glyph glyph-name="imacron" unicode="&#x12b;" horiz-adv-x="245" 
d="M25 457v43h122v-458h73v-42h-195v42h72v415h-72zM-1 635h235v-38h-235v38z" />
    <glyph glyph-name="Ibreve" unicode="&#x12c;" horiz-adv-x="247" 
d="M123 784q85 0 109 96h24q-10 -66 -46 -97t-87 -31t-86.5 31.5t-45.5 96.5h25q22 -96 107 -96zM25 42h72v595h-72v43h197v-43h-72v-595h72v-42h-197v42z" />
    <glyph glyph-name="ibreve" unicode="&#x12d;" horiz-adv-x="245" 
d="M25 457v43h122v-458h73v-42h-195v42h72v415h-72zM117 614q85 0 109 96h24q-10 -66 -46 -97t-87 -31t-86.5 31.5t-45.5 96.5h25q22 -96 107 -96z" />
    <glyph glyph-name="Iogonek" unicode="&#x12e;" horiz-adv-x="247" 
d="M192 -153l4 -16q-37 -29 -85 -29q-31 0 -54 16.5t-23 49.5q0 68 85 132h-94v42h72v595h-72v43h197v-43h-72v-595h72v-42h-74q-33 -25 -56 -59t-23 -61q0 -26 15 -40.5t42 -14.5q28 0 66 22z" />
    <glyph glyph-name="iogonek" unicode="&#x12f;" horiz-adv-x="245" 
d="M184 -153l4 -16q-37 -29 -85 -29q-31 0 -54 16.5t-23 49.5q0 67 85 132h-86v42h72v415h-72v43h122v-458h73v-42h-80q-33 -25 -55.5 -58.5t-22.5 -61.5q0 -55 56 -55q28 0 66 22zM97 700h50v-113h-50v113z" />
    <glyph glyph-name="Idotaccent" unicode="&#x130;" horiz-adv-x="247" 
d="M101 870h45v-110h-45v110zM25 42h72v595h-72v43h197v-43h-72v-595h72v-42h-197v42z" />
    <glyph glyph-name="dotlessi" unicode="&#x131;" horiz-adv-x="245" 
d="M25 457v43h122v-458h73v-42h-195v42h72v415h-72z" />
    <glyph glyph-name="IJ" unicode="&#x132;" horiz-adv-x="570" 
d="M25 42h72v595h-72v43h197v-43h-72v-595h72v-42h-197v42zM347 680h198v-43h-73v-477q0 -94 -34.5 -132t-105.5 -38q-42 0 -78 6l5 43q31 -5 61 -5q55 0 77.5 30t22.5 96v477h-73v43z" />
    <glyph glyph-name="ij" unicode="&#x133;" horiz-adv-x="430" 
d="M25 457v43h122v-458h73v-42h-195v42h72v415h-72zM97 700h50v-113h-50v113zM230 457v43h132v-584q0 -69 -30 -97.5t-102 -28.5q-36 0 -73 6l6 40q30 -5 57 -5q53 0 72.5 20t19.5 72v534h-82zM312 700h50v-113h-50v113z" />
    <glyph glyph-name="Jcircumflex" unicode="&#x134;" horiz-adv-x="337" 
d="M213 840l-92 -110h-30l104 140h37l104 -140h-30zM115 680h197v-43h-72v-477q0 -94 -34.5 -132t-105.5 -38q-42 0 -79 6l5 43q32 -5 61 -5q55 0 77.5 30t22.5 96v477h-72v43z" />
    <glyph glyph-name="jcircumflex" unicode="&#x135;" horiz-adv-x="225" 
d="M25 457v43h132v-584q0 -69 -30 -97.5t-102 -28.5q-35 0 -73 6l6 40q30 -5 57 -5q53 0 72.5 20t19.5 72v534h-82zM125 670l-92 -110h-30l104 140h37l104 -140h-30z" />
    <glyph glyph-name="Kcommaaccent" unicode="&#x136;" horiz-adv-x="680" 
d="M326 -233h-20l15 107h-18v93h50v-93zM25 680h197v-43h-72v-362l348 362h-86v43h233v-43h-84l-227 -236l241 -359h80v-42h-235v42h89l-215 322l-144 -147v-175h72v-42h-197v42h72v595h-72v43z" />
    <glyph glyph-name="kcommaaccent" unicode="&#x137;" horiz-adv-x="600" 
d="M25 657v43h122v-453l277 210h-69v43h210v-43h-82l-165 -125l183 -290h74v-42h-210v42h74l-163 262l-129 -97v-165h73v-42h-195v42h72v615h-72zM301 -240h-20l15 107h-18v93h50v-93z" />
    <glyph glyph-name="kgreenlandic" unicode="&#x138;" horiz-adv-x="600" 
d="M25 457v43h122v-253l277 210h-67v43h208v-43h-82l-165 -125l183 -290h74v-42h-210v42h74l-163 262l-129 -97v-165h73v-42h-195v42h72v415h-72z" />
    <glyph glyph-name="Lacute" unicode="&#x139;" horiz-adv-x="550" 
d="M223 870l-81 -140h-30l65 140h46zM467 122h43v-122h-485v42h72v595h-72v43h197v-43h-72v-595h317v80z" />
    <glyph glyph-name="lacute" unicode="&#x13a;" horiz-adv-x="290" 
d="M25 657v43h122v-658h73v-42h-195v42h72v615h-72zM211 890l-81 -140h-30l65 140h46z" />
    <glyph glyph-name="Lcommaaccent" unicode="&#x13b;" horiz-adv-x="550" 
d="M290 -238h-20l15 107h-18v93h50v-93zM467 122h43v-122h-485v42h72v595h-72v43h197v-43h-72v-595h317v80z" />
    <glyph glyph-name="lcommaaccent" unicode="&#x13c;" horiz-adv-x="290" 
d="M25 657v43h122v-658h73v-42h-195v42h72v615h-72zM120 -240h-20l15 107h-18v93h50v-93z" />
    <glyph glyph-name="Lcaron" unicode="&#x13d;" horiz-adv-x="550" 
d="M325 480h-20l15 107h-18v93h50v-93zM467 122h43v-122h-485v42h72v595h-72v43h197v-43h-72v-595h317v80z" />
    <glyph glyph-name="lcaron" unicode="&#x13e;" horiz-adv-x="290" 
d="M25 657v43h122v-658h73v-42h-195v42h72v615h-72zM235 630h-20l15 107h-18v93h50v-93z" />
    <glyph glyph-name="Ldot" unicode="&#x13f;" horiz-adv-x="550" 
d="M287 405h45v-110h-45v110zM467 122h43v-122h-485v42h72v595h-72v43h197v-43h-72v-595h317v80z" />
    <glyph glyph-name="ldot" unicode="&#x140;" horiz-adv-x="267" 
d="M25 657v43h122v-658h73v-42h-195v42h72v615h-72zM212 415h45v-110h-45v110z" />
    <glyph glyph-name="Lslash" unicode="&#x141;" horiz-adv-x="550" 
d="M25 331l72 21v285h-72v43h197v-43h-72v-270l72 22v-28l-72 -21v-298h317v80h43v-122h-485v42h72v282l-72 -20v27z" />
    <glyph glyph-name="lslash" unicode="&#x142;" horiz-adv-x="290" 
d="M25 657v43h122v-328l73 22v-28l-73 -22v-302h73v-42h-195v42h72v288l-72 -21v27l72 21v300h-72z" />
    <glyph glyph-name="Nacute" unicode="&#x143;" horiz-adv-x="690" 
d="M445 870l-81 -140h-30l65 140h46zM470 680h195v-43h-73v-637h-53l-391 583h-2v-541h74v-42h-195v42h72v595h-72v43h124l393 -589h2v546h-74v43z" />
    <glyph glyph-name="nacute" unicode="&#x144;" horiz-adv-x="590" 
d="M372 0v42h70v295q0 130 -120 130q-83 0 -175 -76v-349h70v-42h-192v42h72v415h-72v43h122v-75h2q92 85 193 85q150 0 150 -163v-305h73v-42h-193zM379 700l-81 -140h-30l65 140h46z" />
    <glyph glyph-name="Ncommaaccent" unicode="&#x145;" horiz-adv-x="690" 
d="M342 -240h-20l15 107h-18v93h50v-93zM470 680h195v-43h-73v-637h-53l-391 583h-2v-541h74v-42h-195v42h72v595h-72v43h124l393 -589h2v546h-74v43z" />
    <glyph glyph-name="ncommaaccent" unicode="&#x146;" horiz-adv-x="590" 
d="M372 0v42h70v295q0 130 -120 130q-83 0 -175 -76v-349h70v-42h-192v42h72v415h-72v43h122v-75h2q92 85 193 85q150 0 150 -163v-305h73v-42h-193zM295 -240h-20l15 107h-18v93h50v-93z" />
    <glyph glyph-name="Ncaron" unicode="&#x147;" horiz-adv-x="690" 
d="M252 870l92 -110l93 110h30l-104 -140h-37l-104 140h30zM470 680h195v-43h-73v-637h-53l-391 583h-2v-541h74v-42h-195v42h72v595h-72v43h124l393 -589h2v546h-74v43z" />
    <glyph glyph-name="ncaron" unicode="&#x148;" horiz-adv-x="590" 
d="M372 0v42h70v295q0 130 -120 130q-83 0 -175 -76v-349h70v-42h-192v42h72v415h-72v43h122v-75h2q92 85 193 85q150 0 150 -163v-305h73v-42h-193zM204 700l92 -110l93 110h30l-104 -140h-37l-104 140h30z" />
    <glyph glyph-name="napostrophe" unicode="&#x149;" horiz-adv-x="590" 
d="M372 0v42h70v295q0 130 -120 130q-83 0 -175 -76v-349h70v-42h-192v42h72v415h-72v43h122v-75h2q92 85 193 85q150 0 150 -163v-305h73v-42h-193zM118 581h-20l15 107h-18v93h50v-93z" />
    <glyph glyph-name="Eng" unicode="&#x14a;" horiz-adv-x="690" 
d="M592 637v-677q0 -90 -30 -128t-93 -41q-17 -2 -37 0q-33 0 -58 5l5 45q31 -5 61 -5q55 0 77.5 30t22.5 96l-7 48l-385 569h-2v-537h74v-42h-195v42h72v595h-72v43h125l392 -584h2v541h-74v43h195v-43h-73z" />
    <glyph glyph-name="eng" unicode="&#x14b;" horiz-adv-x="560" 
d="M442 -45v382q0 130 -120 130q-83 0 -175 -76v-349h70v-42h-192v42h72v415h-72v43h122v-75h2q92 85 193 85q150 0 150 -163v-392q0 -90 -30.5 -127.5t-101.5 -37.5q-36 0 -73 6l6 40q30 -5 57 -5q53 0 72.5 29.5t19.5 94.5z" />
    <glyph glyph-name="Omacron" unicode="&#x14c;" horiz-adv-x="670" 
d="M218 805h235v-38h-235v38zM335 647q-55 0 -96 -17t-65 -44t-38.5 -68t-19 -81.5t-4.5 -91.5q0 -65 8.5 -115.5t31 -98t69 -73.5t114.5 -26t114.5 26t68.5 74t30.5 97.5t8.5 115.5q0 51 -4.5 91.5t-18.5 81.5t-38 68t-65 44t-96 17zM335 -10q-66 0 -115.5 19t-80 50.5
t-49.5 78.5t-26 96.5t-7 110.5q0 60 7 108t26 93.5t49.5 76t80 49t115.5 18.5t115.5 -18.5t80 -49t49 -76t25.5 -93.5t7 -108q0 -61 -7 -110.5t-25.5 -96.5t-49 -78.5t-80 -50.5t-115.5 -19z" />
    <glyph glyph-name="omacron" unicode="&#x14d;" horiz-adv-x="550" 
d="M275 467q-165 0 -165 -217q0 -218 165 -218t165 218q0 217 -165 217zM275 -10q-218 0 -218 260t218 260q217 0 217 -260t-217 -260zM157 635h235v-38h-235v38z" />
    <glyph glyph-name="Obreve" unicode="&#x14e;" horiz-adv-x="670" 
d="M335 784q85 0 109 96h24q-10 -66 -46 -97t-87 -31t-86.5 31.5t-45.5 96.5h25q22 -96 107 -96zM335 647q-55 0 -96 -17t-65 -44t-38.5 -68t-19 -81.5t-4.5 -91.5q0 -65 8.5 -115.5t31 -98t69 -73.5t114.5 -26t114.5 26t68.5 74t30.5 97.5t8.5 115.5q0 51 -4.5 91.5
t-18.5 81.5t-38 68t-65 44t-96 17zM335 -10q-66 0 -115.5 19t-80 50.5t-49.5 78.5t-26 96.5t-7 110.5q0 60 7 108t26 93.5t49.5 76t80 49t115.5 18.5t115.5 -18.5t80 -49t49 -76t25.5 -93.5t7 -108q0 -61 -7 -110.5t-25.5 -96.5t-49 -78.5t-80 -50.5t-115.5 -19z" />
    <glyph glyph-name="obreve" unicode="&#x14f;" horiz-adv-x="550" 
d="M275 467q-165 0 -165 -217q0 -218 165 -218t165 218q0 217 -165 217zM275 -10q-218 0 -218 260t218 260q217 0 217 -260t-217 -260zM274 614q85 0 109 96h24q-10 -66 -46 -97t-87 -31t-86.5 31.5t-45.5 96.5h25q22 -96 107 -96z" />
    <glyph glyph-name="Ohungarumlaut" unicode="&#x150;" horiz-adv-x="670" 
d="M338 870l-81 -140h-30l65 140h46zM508 870l-81 -140h-30l65 140h46zM335 647q-55 0 -96 -17t-65 -44t-38.5 -68t-19 -81.5t-4.5 -91.5q0 -65 8.5 -115.5t31 -98t69 -73.5t114.5 -26t114.5 26t68.5 74t30.5 97.5t8.5 115.5q0 51 -4.5 91.5t-18.5 81.5t-38 68t-65 44
t-96 17zM335 -10q-66 0 -115.5 19t-80 50.5t-49.5 78.5t-26 96.5t-7 110.5q0 60 7 108t26 93.5t49.5 76t80 49t115.5 18.5t115.5 -18.5t80 -49t49 -76t25.5 -93.5t7 -108q0 -61 -7 -110.5t-25.5 -96.5t-49 -78.5t-80 -50.5t-115.5 -19z" />
    <glyph glyph-name="ohungarumlaut" unicode="&#x151;" horiz-adv-x="550" 
d="M275 467q-165 0 -165 -217q0 -218 165 -218t165 218q0 217 -165 217zM275 -10q-218 0 -218 260t218 260q217 0 217 -260t-217 -260zM284 700l-81 -140h-30l65 140h46zM454 700l-81 -140h-30l65 140h46z" />
    <glyph glyph-name="OE" unicode="&#x152;" horiz-adv-x="1032" 
d="M335 647q-55 0 -96 -17t-65 -44t-38.5 -68t-19 -81.5t-4.5 -91.5q0 -65 8.5 -115.5t31 -98t69 -73.5t114.5 -26q55 0 96 18.5t65 47t38 72.5t18.5 87t4.5 97q0 63 -9 111t-31.5 91.5t-68.5 67t-113 23.5zM975 0h-425v159q-20 -80 -70.5 -124.5t-144.5 -44.5
q-82 0 -138.5 27.5t-86 79t-41.5 111t-12 137.5q0 60 7 108t26 93.5t49.5 76t80 49t115.5 18.5q173 0 216 -165v155h424v-123h-43v80h-320v-262h313v-43h-313v-290h320v80h43v-122z" />
    <glyph glyph-name="oe" unicode="&#x153;" horiz-adv-x="913" 
d="M855 247h-361q2 -215 192 -215q91 0 157 20l7 -41q-77 -21 -170 -21q-175 0 -213 152q-37 -152 -192 -152q-218 0 -218 260t218 260q155 0 192 -153q39 153 206 153q58 0 99 -19t60 -47t26.5 -65.5t5.5 -69t-9 -62.5zM275 467q-165 0 -165 -217q0 -218 165 -218t165 218
q0 217 -165 217zM670 470q-163 0 -176 -189h313q9 32 5 65.5t-16.5 61t-45 45t-80.5 17.5z" />
    <glyph glyph-name="Racute" unicode="&#x154;" horiz-adv-x="650" 
d="M386 870l-81 -140h-30l65 140h46zM25 680h342q93 0 144 -54.5t51 -139.5q0 -76 -44 -127.5t-120 -58.5l174 -258h53v-42h-207v42h88l-165 250h-191v-250h72v-42h-197v42h72v595h-72v43zM150 637v-302h205q70 0 112 40.5t42 110.5q0 66 -39.5 108.5t-107.5 42.5h-212z" />
    <glyph glyph-name="racute" unicode="&#x155;" horiz-adv-x="400" 
d="M25 457v43h122v-80h2q100 90 203 90v-48q-55 0 -111 -23.5t-94 -52.5v-344h88v-42h-210v42h72v415h-72zM237 700l-81 -140h-30l65 140h46z" />
    <glyph glyph-name="Rcommaaccent" unicode="&#x156;" horiz-adv-x="650" 
d="M317 -234h-20l15 107h-18v93h50v-93zM25 680h342q93 0 144 -54.5t51 -139.5q0 -76 -44 -127.5t-120 -58.5l174 -258h53v-42h-207v42h88l-165 250h-191v-250h72v-42h-197v42h72v595h-72v43zM150 637v-302h205q70 0 112 40.5t42 110.5q0 66 -39.5 108.5t-107.5 42.5h-212z
" />
    <glyph glyph-name="rcommaaccent" unicode="&#x157;" horiz-adv-x="400" 
d="M25 457v43h122v-80h2q100 90 203 90v-48q-55 0 -111 -23.5t-94 -52.5v-344h88v-42h-210v42h72v415h-72zM120 -240h-20l15 107h-18v93h50v-93z" />
    <glyph glyph-name="Rcaron" unicode="&#x158;" horiz-adv-x="650" 
d="M220 870l92 -110l93 110h30l-104 -140h-37l-104 140h30zM25 680h342q93 0 144 -54.5t51 -139.5q0 -76 -44 -127.5t-120 -58.5l174 -258h53v-42h-207v42h88l-165 250h-191v-250h72v-42h-197v42h72v595h-72v43zM150 637v-302h205q70 0 112 40.5t42 110.5q0 66 -39.5 108.5
t-107.5 42.5h-212z" />
    <glyph glyph-name="rcaron" unicode="&#x159;" horiz-adv-x="400" 
d="M25 457v43h122v-80h2q100 90 203 90v-48q-55 0 -111 -23.5t-94 -52.5v-344h88v-42h-210v42h72v415h-72zM109 700l92 -110l93 110h30l-104 -140h-37l-104 140h30z" />
    <glyph glyph-name="Sacute" unicode="&#x15a;" horiz-adv-x="580" 
d="M400 870l-81 -140h-30l65 140h46zM57 145h43v-85q99 -25 190 -25t134 41.5t43 98.5q0 29 -13.5 52.5t-30 37.5t-46.5 27t-46.5 18t-45.5 12q-58 14 -104 36.5t-81 65t-35 96.5q0 87 61 128.5t161 41.5q110 0 220 -33v-122h-42v86q-98 24 -178 24q-90 0 -128.5 -34.5
t-38.5 -89.5q0 -105 195 -154q207 -46 207 -187q0 -91 -63.5 -140.5t-168.5 -49.5q-120 0 -233 32v123z" />
    <glyph glyph-name="sacute" unicode="&#x15b;" horiz-adv-x="480" 
d="M422 382h-42v72q-66 15 -145 15q-34 0 -59 -8t-37 -18t-19 -24t-8.5 -22t-1.5 -16q0 -36 27 -61t106 -41q94 -20 139 -51.5t45 -93.5q0 -69 -44 -106.5t-128 -37.5q-119 0 -203 21v106h43v-71q63 -15 155 -15q34 0 59.5 9t38 20.5t19.5 27t8.5 25t1.5 18.5
q0 35 -28.5 59.5t-109.5 41.5q-86 17 -132.5 49t-46.5 99q0 62 44 96t128 34q106 0 190 -21v-107zM347 700l-81 -140h-30l65 140h46z" />
    <glyph glyph-name="Scircumflex" unicode="&#x15c;" horiz-adv-x="580" 
d="M297 840l-92 -110h-30l104 140h37l104 -140h-30zM57 145h43v-85q99 -25 190 -25t134 41.5t43 98.5q0 29 -13.5 52.5t-30 37.5t-46.5 27t-46.5 18t-45.5 12q-58 14 -104 36.5t-81 65t-35 96.5q0 87 61 128.5t161 41.5q110 0 220 -33v-122h-42v86q-98 24 -178 24
q-90 0 -128.5 -34.5t-38.5 -89.5q0 -105 195 -154q207 -46 207 -187q0 -91 -63.5 -140.5t-168.5 -49.5q-120 0 -233 32v123z" />
    <glyph glyph-name="scircumflex" unicode="&#x15d;" horiz-adv-x="480" 
d="M422 382h-42v72q-66 15 -145 15q-34 0 -59 -8t-37 -18t-19 -24t-8.5 -22t-1.5 -16q0 -36 27 -61t106 -41q94 -20 139 -51.5t45 -93.5q0 -69 -44 -106.5t-128 -37.5q-119 0 -203 21v106h43v-71q63 -15 155 -15q34 0 59.5 9t38 20.5t19.5 27t8.5 25t1.5 18.5
q0 35 -28.5 59.5t-109.5 41.5q-86 17 -132.5 49t-46.5 99q0 62 44 96t128 34q106 0 190 -21v-107zM245 670l-92 -110h-30l104 140h37l104 -140h-30z" />
    <glyph glyph-name="Scedilla" unicode="&#x15e;" horiz-adv-x="580" 
d="M274 -73v63q-121 3 -217 32v123h43v-85q99 -25 190 -25t134 41.5t43 98.5q0 29 -13.5 52.5t-30 37.5t-46.5 27t-46.5 18t-45.5 12q-58 14 -104 36.5t-81 65t-35 96.5q0 87 61 128.5t161 41.5q110 0 220 -33v-122h-42v86q-98 24 -178 24q-90 0 -128.5 -34.5t-38.5 -89.5
q0 -105 195 -154q207 -46 207 -187q0 -90 -62 -139t-164 -51v-48q84 -4 84 -71q0 -35 -25 -55.5t-68 -20.5q-31 0 -68 12l4 20q32 -10 58 -10q36 0 51 18t15 39q0 20 -16 36.5t-57 16.5z" />
    <glyph glyph-name="scedilla" unicode="&#x15f;" horiz-adv-x="480" 
d="M235 -73v63q-108 3 -183 21v106h43v-71q63 -15 155 -15q34 0 59.5 9t38 20.5t19.5 27t8.5 25t1.5 18.5q0 35 -28.5 59.5t-109.5 41.5q-86 17 -132.5 49t-46.5 99q0 62 44 96t128 34q106 0 190 -21v-107h-42v72q-66 15 -145 15q-34 0 -59 -8t-37 -18t-19 -24t-8.5 -22
t-1.5 -16q0 -36 27 -61t106 -41q94 -20 139 -51.5t45 -93.5q0 -68 -43 -105.5t-126 -38.5v-48q35 -2 59.5 -18.5t24.5 -52.5q0 -35 -25 -55.5t-68 -20.5q-31 0 -68 12l4 20q32 -10 57 -10q36 0 51 18t15 39q0 20 -16 36.5t-57 16.5z" />
    <glyph glyph-name="Scaron" unicode="&#x160;" horiz-adv-x="580" 
d="M197 870l92 -110l93 110h30l-104 -140h-37l-104 140h30zM57 145h43v-85q99 -25 190 -25t134 41.5t43 98.5q0 29 -13.5 52.5t-30 37.5t-46.5 27t-46.5 18t-45.5 12q-58 14 -104 36.5t-81 65t-35 96.5q0 87 61 128.5t161 41.5q110 0 220 -33v-122h-42v86q-98 24 -178 24
q-90 0 -128.5 -34.5t-38.5 -89.5q0 -105 195 -154q207 -46 207 -187q0 -91 -63.5 -140.5t-168.5 -49.5q-120 0 -233 32v123z" />
    <glyph glyph-name="scaron" unicode="&#x161;" horiz-adv-x="480" 
d="M422 382h-42v72q-66 15 -145 15q-34 0 -59 -8t-37 -18t-19 -24t-8.5 -22t-1.5 -16q0 -36 27 -61t106 -41q94 -20 139 -51.5t45 -93.5q0 -69 -44 -106.5t-128 -37.5q-119 0 -203 21v106h43v-71q63 -15 155 -15q34 0 59.5 9t38 20.5t19.5 27t8.5 25t1.5 18.5
q0 35 -28.5 59.5t-109.5 41.5q-86 17 -132.5 49t-46.5 99q0 62 44 96t128 34q106 0 190 -21v-107zM156 700l92 -110l93 110h30l-104 -140h-37l-104 140h30z" />
    <glyph glyph-name="Tcommaaccent" unicode="&#x162;" horiz-adv-x="580" 
d="M287 -240h-20l15 107h-18v93h50v-93zM55 680h470v-123h-43v80h-166v-595h73v-42h-198v42h73v595h-167v-80h-42v123z" />
    <glyph glyph-name="tcommaaccent" unicode="&#x163;" horiz-adv-x="375" 
d="M107 148v314h-82v34l82 4l7 140h43v-140h155v-38h-155v-307q0 -64 21 -94t77 -30q26 0 57 5l5 -40q-36 -6 -77 -6q-70 0 -101.5 35t-31.5 123zM178 -240h-20l15 107h-18v93h50v-93z" />
    <glyph glyph-name="Tcaron" unicode="&#x164;" horiz-adv-x="580" 
d="M197 870l92 -110l93 110h30l-104 -140h-37l-104 140h30zM55 680h470v-123h-43v80h-166v-595h73v-42h-198v42h73v595h-167v-80h-42v123z" />
    <glyph glyph-name="tcaron" unicode="&#x165;" horiz-adv-x="375" 
d="M107 148v314h-82v34l82 4l7 140h43v-140h155v-38h-155v-307q0 -64 21 -94t77 -30q26 0 57 5l5 -40q-36 -6 -77 -6q-70 0 -101.5 35t-31.5 123zM300 610h-20l15 107h-18v93h50v-93z" />
    <glyph glyph-name="Tbar" unicode="&#x166;" horiz-adv-x="580" 
d="M55 680h470v-123h-43v80h-166v-311h93v-32h-93v-252h73v-42h-198v42h73v252h-93v32h93v311h-167v-80h-42v123z" />
    <glyph glyph-name="tbar" unicode="&#x167;" horiz-adv-x="375" 
d="M107 257h-60v33h60v172h-82v34l82 4l7 140h43v-140h155v-38h-155v-172h145v-33h-145v-102q0 -64 21 -94t77 -30q26 0 57 5l5 -40q-36 -6 -77 -6q-70 0 -101.5 35t-31.5 123v109z" />
    <glyph glyph-name="Utilde" unicode="&#x168;" horiz-adv-x="680" 
d="M286 807q-21 0 -36.5 -8.5t-52.5 -45.5l-17 14q33 43 55.5 60t48.5 17t71 -31t60 -31q37 0 65 49l16 -16q-33 -66 -75 -67q-7 -1 -21 3q-14 5 -54.5 30.5t-59.5 25.5zM457 680h198v-43h-73v-397q0 -129 -59 -189.5t-183 -60.5t-183.5 60.5t-59.5 189.5v397h-72v43h197
v-43h-72v-397q0 -31 2 -52.5t12.5 -53.5t30 -52t58 -35t91.5 -15q50 0 86.5 15t55 35.5t29 51.5t13 54t2.5 52v397h-73v43z" />
    <glyph glyph-name="utilde" unicode="&#x169;" horiz-adv-x="590" 
d="M25 457v43h122v-338q0 -130 120 -130q82 0 175 77v348h-95v43h145v-458h73v-42h-123v75h-2q-92 -85 -193 -85q-150 0 -150 162v305h-72zM243 637q-21 0 -36.5 -8.5t-52.5 -45.5l-17 14q33 43 55.5 60t48.5 17t71 -31t60 -31q37 0 65 49l16 -16q-33 -66 -75 -67
q-7 -1 -21 3q-14 5 -54.5 30.5t-59.5 25.5z" />
    <glyph glyph-name="Umacron" unicode="&#x16a;" horiz-adv-x="680" 
d="M222 805h235v-38h-235v38zM457 680h198v-43h-73v-397q0 -129 -59 -189.5t-183 -60.5t-183.5 60.5t-59.5 189.5v397h-72v43h197v-43h-72v-397q0 -31 2 -52.5t12.5 -53.5t30 -52t58 -35t91.5 -15q50 0 86.5 15t55 35.5t29 51.5t13 54t2.5 52v397h-73v43z" />
    <glyph glyph-name="umacron" unicode="&#x16b;" horiz-adv-x="590" 
d="M25 457v43h122v-338q0 -130 120 -130q82 0 175 77v348h-95v43h145v-458h73v-42h-123v75h-2q-92 -85 -193 -85q-150 0 -150 162v305h-72zM167 635h235v-38h-235v38z" />
    <glyph glyph-name="Ubreve" unicode="&#x16c;" horiz-adv-x="680" 
d="M339 784q85 0 109 96h24q-10 -66 -46 -97t-87 -31t-86.5 31.5t-45.5 96.5h25q22 -96 107 -96zM457 680h198v-43h-73v-397q0 -129 -59 -189.5t-183 -60.5t-183.5 60.5t-59.5 189.5v397h-72v43h197v-43h-72v-397q0 -31 2 -52.5t12.5 -53.5t30 -52t58 -35t91.5 -15
q50 0 86.5 15t55 35.5t29 51.5t13 54t2.5 52v397h-73v43z" />
    <glyph glyph-name="ubreve" unicode="&#x16d;" horiz-adv-x="590" 
d="M25 457v43h122v-338q0 -130 120 -130q82 0 175 77v348h-95v43h145v-458h73v-42h-123v75h-2q-92 -85 -193 -85q-150 0 -150 162v305h-72zM293 614q85 0 109 96h24q-10 -66 -46 -97t-87 -31t-86.5 31.5t-45.5 96.5h25q22 -96 107 -96z" />
    <glyph glyph-name="Uring" unicode="&#x16e;" horiz-adv-x="680" 
d="M256 820q0 35 25 60.5t61 25.5q35 0 60.5 -25.5t25.5 -60.5q0 -36 -25.5 -61t-60.5 -25q-36 0 -61 25t-25 61zM278 820q0 -27 18.5 -45.5t45.5 -18.5t45.5 18.5t18.5 45.5t-18.5 45.5t-45.5 18.5t-45.5 -18.5t-18.5 -45.5zM457 680h198v-43h-73v-397q0 -129 -59 -189.5
t-183 -60.5t-183.5 60.5t-59.5 189.5v397h-72v43h197v-43h-72v-397q0 -31 2 -52.5t12.5 -53.5t30 -52t58 -35t91.5 -15q50 0 86.5 15t55 35.5t29 51.5t13 54t2.5 52v397h-73v43z" />
    <glyph glyph-name="uring" unicode="&#x16f;" horiz-adv-x="590" 
d="M25 457v43h122v-338q0 -130 120 -130q82 0 175 77v348h-95v43h145v-458h73v-42h-123v75h-2q-92 -85 -193 -85q-150 0 -150 162v305h-72zM209 650q0 35 25 60.5t61 25.5q35 0 60.5 -25.5t25.5 -60.5q0 -36 -25.5 -61t-60.5 -25q-36 0 -61 25t-25 61zM231 650
q0 -27 18.5 -45.5t45.5 -18.5t45.5 18.5t18.5 45.5t-18.5 45.5t-45.5 18.5t-45.5 -18.5t-18.5 -45.5z" />
    <glyph glyph-name="Uhungarumlaut" unicode="&#x170;" horiz-adv-x="680" 
d="M347 870l-81 -140h-30l65 140h46zM517 870l-81 -140h-30l65 140h46zM457 680h198v-43h-73v-397q0 -129 -59 -189.5t-183 -60.5t-183.5 60.5t-59.5 189.5v397h-72v43h197v-43h-72v-397q0 -31 2 -52.5t12.5 -53.5t30 -52t58 -35t91.5 -15q50 0 86.5 15t55 35.5t29 51.5
t13 54t2.5 52v397h-73v43z" />
    <glyph glyph-name="uhungarumlaut" unicode="&#x171;" horiz-adv-x="590" 
d="M25 457v43h122v-338q0 -130 120 -130q82 0 175 77v348h-95v43h145v-458h73v-42h-123v75h-2q-92 -85 -193 -85q-150 0 -150 162v305h-72zM300 700l-81 -140h-30l65 140h46zM470 700l-81 -140h-30l65 140h46z" />
    <glyph glyph-name="Uogonek" unicode="&#x172;" horiz-adv-x="680" 
d="M457 680h198v-43h-73v-397q0 -125 -55.5 -185.5t-172.5 -64.5q-29 -24 -47.5 -54.5t-18.5 -55.5q0 -55 56 -55q28 0 66 22l4 -16q-37 -29 -85 -29q-31 0 -54 16.5t-23 49.5q0 64 73 123q-117 3 -172.5 63.5t-55.5 185.5v397h-72v43h197v-43h-72v-397q0 -31 2 -52.5
t12.5 -53.5t30 -52t58 -35t91.5 -15q50 0 86.5 15t55 35.5t29 51.5t13 54t2.5 52v397h-73v43z" />
    <glyph glyph-name="uogonek" unicode="&#x173;" horiz-adv-x="590" 
d="M492 42h73v-42h-92q-33 -25 -56 -59t-23 -61q0 -26 15 -40.5t42 -14.5t66 22l4 -16q-37 -29 -85 -29q-31 0 -54 16.5t-23 49.5q0 68 83 132v75h-2q-92 -85 -193 -85q-150 0 -150 162v305h-72v43h122v-338q0 -130 120 -130q82 0 175 77v348h-95v43h145v-458z" />
    <glyph glyph-name="Wcircumflex" unicode="&#x174;" horiz-adv-x="980" 
d="M487 840l-92 -110h-30l104 140h37l104 -140h-30zM25 680h217v-43h-107l160 -573h1l169 616h58l171 -616h1l157 573h-107v43h210v-43h-51l-178 -642h-71l-164 591h-2l-162 -591h-71l-180 642h-51v43z" />
    <glyph glyph-name="wcircumflex" unicode="&#x175;" horiz-adv-x="810" 
d="M598 457v43h186v-43h-48l-145 -462h-53l-133 418h-2l-126 -418h-53l-151 462h-48v43h194v-43h-93l128 -400h2l131 443h42l136 -446h2l120 403h-89zM406 670l-92 -110h-30l104 140h37l104 -140h-30z" />
    <glyph glyph-name="Ycircumflex" unicode="&#x176;" horiz-adv-x="660" 
d="M335 840l-92 -110h-30l104 140h37l104 -140h-30zM356 42h73v-42h-198v42h73v188l-223 407h-56v43h221v-43h-108l195 -355h2l193 355h-106v43h213v-43h-55l-224 -407v-188z" />
    <glyph glyph-name="ycircumflex" unicode="&#x177;" horiz-adv-x="580" 
d="M368 457v43h186v-43h-48l-194 -498q-65 -169 -179 -169q-33 0 -59 6l5 41q28 -5 45 -5q30 0 54 13.5t42.5 42t27.5 47t22 52.5l-195 470h-50v43h194v-43h-88l169 -416h2l153 416h-87zM296 670l-92 -110h-30l104 140h37l104 -140h-30z" />
    <glyph glyph-name="Ydieresis" unicode="&#x178;" horiz-adv-x="660" 
d="M181 870h45v-110h-45v110zM441 870h45v-110h-45v110zM356 42h73v-42h-198v42h73v188l-223 407h-56v43h221v-43h-108l195 -355h2l193 355h-106v43h213v-43h-55l-224 -407v-188z" />
    <glyph glyph-name="Zacute" unicode="&#x179;" horiz-adv-x="560" 
d="M375 870l-81 -140h-30l65 140h46zM62 680h438v-40l-384 -596v-2h359v80h42v-122h-467v40l386 595v2h-331v-80h-43v123z" />
    <glyph glyph-name="zacute" unicode="&#x17a;" horiz-adv-x="470" 
d="M42 500h384v-40l-326 -418v-2h295v77h42v-117h-401v40l328 418v2h-279v-78h-43v118zM319 700l-81 -140h-30l65 140h46z" />
    <glyph glyph-name="Zdotaccent" unicode="&#x17b;" horiz-adv-x="560" 
d="M253 870h45v-110h-45v110zM62 680h438v-40l-384 -596v-2h359v80h42v-122h-467v40l386 595v2h-331v-80h-43v123z" />
    <glyph glyph-name="zdotaccent" unicode="&#x17c;" horiz-adv-x="470" 
d="M42 500h384v-40l-326 -418v-2h295v77h42v-117h-401v40l328 418v2h-279v-78h-43v118zM204 700h45v-110h-45v110z" />
    <glyph glyph-name="Zcaron" unicode="&#x17d;" horiz-adv-x="560" 
d="M197 870l92 -110l93 110h30l-104 -140h-37l-104 140h30zM62 680h438v-40l-384 -596v-2h359v80h42v-122h-467v40l386 595v2h-331v-80h-43v123z" />
    <glyph glyph-name="zcaron" unicode="&#x17e;" horiz-adv-x="470" 
d="M42 500h384v-40l-326 -418v-2h295v77h42v-117h-401v40l328 418v2h-279v-78h-43v118zM159 700l92 -110l93 110h30l-104 -140h-37l-104 140h30z" />
    <glyph glyph-name="longs" unicode="&#x17f;" horiz-adv-x="282" 
d="M107 -45v587q0 88 31.5 123t101.5 35q24 0 72 -6l-5 -40q-42 5 -57 5q-54 0 -73.5 -29.5t-19.5 -94.5v-580q0 -90 -30.5 -127.5t-101.5 -37.5q-35 0 -73 6l6 40q30 -5 57 -5q53 0 72.5 29.5t19.5 94.5z" />
    <glyph glyph-name="florin" unicode="&#x192;" horiz-adv-x="460" 
d="M182 -45v507h-82v34l82 4v42q0 88 31.5 123t101.5 35q24 0 72 -6l-5 -40q-42 5 -57 5q-54 0 -73.5 -29.5t-19.5 -94.5v-35h150v-38h-150v-507q0 -90 -30.5 -127.5t-101.5 -37.5q-36 0 -73 6l6 40q30 -5 57 -5q53 0 72.5 29.5t19.5 94.5z" />
    <glyph glyph-name="AEacute" unicode="&#x1fc;" horiz-adv-x="916" 
d="M576 870l-81 -140h-30l65 140h46zM396 637h-79v43h541v-123h-42v80h-320v-262h312v-43h-312v-290h320v80h42v-122h-415v296h-179q-131 -236 -154 -277h64l-5 -19h-159v42h58zM441 631l-158 -292h160v292h-2z" />
    <glyph glyph-name="aeacute" unicode="&#x1fd;" horiz-adv-x="860" 
d="M535 700l-81 -140h-30l65 140h46zM255 467q-63 0 -126 -12v-73h-43v109q99 19 177 19q77 0 114 -30t46 -101q45 131 197 131q58 0 99 -19t60 -47t26.5 -65.5t5.5 -69t-9 -62.5h-361q2 -215 193 -215q90 0 156 20l7 -41q-76 -21 -170 -21q-146 0 -202 94q-85 -94 -208 -94
q-76 0 -120.5 37.5t-44.5 103.5q0 81 56 115t160 34h119v62q0 64 -29.5 94.5t-102.5 30.5zM235 30q103 0 176 75q-24 54 -24 142h-122q-90 0 -126.5 -28.5t-36.5 -83.5q0 -47 34.5 -76t98.5 -29zM617 470q-163 0 -176 -189h313q9 32 5 65.5t-16.5 61t-45 45t-80.5 17.5z" />
    <glyph glyph-name="Oslashacute" unicode="&#x1fe;" horiz-adv-x="670" 
d="M425 870l-81 -140h-30l65 140h46zM335 -10q-137 0 -204 81l-77 -98l-19 16l80 100q-58 86 -58 256q0 60 7 108t26 93.5t49.5 76t80 49t115.5 18.5q129 0 198 -74l82 103l20 -15l-85 -106q62 -81 62 -253q0 -61 -7 -110.5t-25.5 -96.5t-49 -78.5t-80 -50.5t-115.5 -19z
M335 35q55 0 96 18t64.5 46t38 70.5t19 83.5t4.5 92q0 140 -43 208l-350 -442q53 -76 171 -76zM335 645q-69 0 -115 -24t-68.5 -69t-31 -93.5t-8.5 -113.5q0 -140 40 -209l350 440q-54 69 -167 69z" />
    <glyph glyph-name="oslashacute" unicode="&#x1ff;" horiz-adv-x="550" 
d="M369 700l-81 -140h-30l65 140h46zM275 -10q-102 0 -155 61l-66 -78l-19 16l67 79q-45 63 -45 182q0 260 218 260q99 0 154 -60l67 77l19 -15l-69 -80q46 -66 46 -182q0 -260 -217 -260zM275 32q165 0 165 218q0 86 -31 138l-257 -301q42 -55 123 -55zM275 467
q-165 0 -165 -217q0 -88 30 -138l258 301q-43 54 -123 54z" />
    <glyph glyph-name="Scommaaccent" unicode="&#x218;" horiz-adv-x="580" 
d="M291 -240h-20l15 107h-18v93h50v-93zM57 145h43v-85q99 -25 190 -25t134 41.5t43 98.5q0 29 -13.5 52.5t-30 37.5t-46.5 27t-46.5 18t-45.5 12q-58 14 -104 36.5t-81 65t-35 96.5q0 87 61 128.5t161 41.5q110 0 220 -33v-122h-42v86q-98 24 -178 24q-90 0 -128.5 -34.5
t-38.5 -89.5q0 -105 195 -154q207 -46 207 -187q0 -91 -63.5 -140.5t-168.5 -49.5q-120 0 -233 32v123z" />
    <glyph glyph-name="scommaaccent" unicode="&#x219;" horiz-adv-x="480" 
d="M422 382h-42v72q-66 15 -145 15q-34 0 -59 -8t-37 -18t-19 -24t-8.5 -22t-1.5 -16q0 -36 27 -61t106 -41q94 -20 139 -51.5t45 -93.5q0 -69 -44 -106.5t-128 -37.5q-119 0 -203 21v106h43v-71q63 -15 155 -15q34 0 59.5 9t38 20.5t19.5 27t8.5 25t1.5 18.5
q0 35 -28.5 59.5t-109.5 41.5q-86 17 -132.5 49t-46.5 99q0 62 44 96t128 34q106 0 190 -21v-107zM219 -240h-20l15 107h-18v93h50v-93z" />
    <glyph glyph-name="uni021A" unicode="&#x21a;" horiz-adv-x="580" 
d="M287 -237h-20l15 107h-18v93h50v-93zM55 680h470v-123h-43v80h-166v-595h73v-42h-198v42h73v595h-167v-80h-42v123z" />
    <glyph glyph-name="uni021B" unicode="&#x21b;" horiz-adv-x="375" 
d="M107 148v314h-82v34l82 4l7 140h43v-140h155v-38h-155v-307q0 -64 21 -94t77 -30q26 0 57 5l5 -40q-36 -6 -77 -6q-70 0 -101.5 35t-31.5 123zM189 -242h-20l15 107h-18v93h50v-93z" />
    <glyph glyph-name="circumflex" unicode="&#x2c6;" horiz-adv-x="420" 
d="M209 670l-92 -110h-30l104 140h37l104 -140h-30z" />
    <glyph glyph-name="caron" unicode="&#x2c7;" horiz-adv-x="420" 
d="M117 700l92 -110l93 110h30l-104 -140h-37l-104 140h30z" />
    <glyph glyph-name="uni02C9" unicode="&#x2c9;" horiz-adv-x="440" 
d="M72 635h295v-38h-295v38z" />
    <glyph glyph-name="breve" unicode="&#x2d8;" horiz-adv-x="408" 
d="M204 614q85 0 109 96h24q-10 -66 -46 -97t-87 -31t-86.5 31.5t-45.5 96.5h25q22 -96 107 -96z" />
    <glyph glyph-name="dotaccent" unicode="&#x2d9;" horiz-adv-x="250" 
d="M87 700h45v-110h-45v110z" />
    <glyph glyph-name="ring" unicode="&#x2da;" horiz-adv-x="300" 
d="M64 650q0 35 25 60.5t61 25.5q35 0 60.5 -25.5t25.5 -60.5q0 -36 -25.5 -61t-60.5 -25q-36 0 -61 25t-25 61zM86 650q0 -27 18.5 -45.5t45.5 -18.5t45.5 18.5t18.5 45.5t-18.5 45.5t-45.5 18.5t-45.5 -18.5t-18.5 -45.5z" />
    <glyph glyph-name="ogonek" unicode="&#x2db;" horiz-adv-x="314" 
d="M242 -153l4 -16q-37 -29 -85 -29q-31 0 -54 16.5t-23 49.5q0 68 85 132h29q-33 -25 -56 -59t-23 -61q0 -26 15 -40.5t42 -14.5q28 0 66 22z" />
    <glyph glyph-name="tilde" unicode="&#x2dc;" horiz-adv-x="450" 
d="M175 637q-21 0 -36.5 -8.5t-52.5 -45.5l-17 14q33 43 55.5 60t48.5 17t71 -31t60 -31q37 0 65 49l16 -16q-33 -66 -75 -67q-7 -1 -21 3q-14 5 -54.5 30.5t-59.5 25.5z" />
    <glyph glyph-name="hungarumlaut" unicode="&#x2dd;" horiz-adv-x="460" 
d="M188 700l-81 -140h-30l65 140h46zM358 700l-81 -140h-30l65 140h46z" />
    <glyph glyph-name="uni037E" unicode="&#x37e;" horiz-adv-x="185" 
d="M67 307h50v-115h-50v115z" />
    <glyph glyph-name="tonos" unicode="&#x384;" horiz-adv-x="290" 
d="M188 680l-81 -140h-30l65 140h46z" />
    <glyph glyph-name="dieresistonos" unicode="&#x385;" horiz-adv-x="600" 
d="M368 730l-91 -170h-30l72 170h49zM87 700h45v-110h-45v110zM467 700h45v-110h-45v110z" />
    <glyph glyph-name="anoteleia" unicode="&#x387;" horiz-adv-x="480" 
d="M87 700h45v-110h-45v110zM347 700h45v-110h-45v110z" />
    <glyph glyph-name="uni03BC" unicode="&#x3bc;" horiz-adv-x="590" 
d="M25 457v43h122v-338q0 -130 120 -130q82 0 175 77v348h-95v43h145v-458h73v-42h-123v75h-2q-83 -76 -170 -80q-92 -4 -123 60v-69q0 -98 -20.5 -141.5t-79.5 -51.5q-18 -3 -40 -3q-32 2 -65 6l6 40q30 -5 57 -5q53 0 72.5 29.5t19.5 94.5v502h-72z" />
    <glyph glyph-name="pi" unicode="&#x3c0;" horiz-adv-x="590" 
d="M372 42h70v415h-295v-415h70v-42h-192v42h72v415h-72v43h540v-43h-73v-415h73v-42h-193v42z" />
    <glyph glyph-name="uni03C2" unicode="&#x3c2;" horiz-adv-x="513" 
d="M100 249q0 68 48 114l-78 90l8 8l79 -90q44 36 100 36q55 0 99 -36l78 90l9 -8l-78 -89q50 -47 50 -115t-49 -114l76 -86l-9 -9l-77 87q-43 -35 -99 -35q-57 0 -100 35l-76 -87l-9 9l76 86q-48 46 -48 114zM112 249q0 -59 43 -102t102 -43t102.5 43t43.5 102t-43.5 102.5
t-102.5 43.5t-102 -43.5t-43 -102.5z" />
    <glyph glyph-name="sigma" unicode="&#x3c3;" horiz-adv-x="513" 
d="M100 249q0 68 48 114l-78 90l8 8l79 -90q44 36 100 36q55 0 99 -36l78 90l9 -8l-78 -89q50 -47 50 -115t-49 -114l76 -86l-9 -9l-77 87q-43 -35 -99 -35q-57 0 -100 35l-76 -87l-9 9l76 86q-48 46 -48 114zM112 249q0 -59 43 -102t102 -43t102.5 43t43.5 102t-43.5 102.5
t-102.5 43.5t-102 -43.5t-43 -102.5z" />
    <glyph glyph-name="Wgrave" unicode="&#x1e80;" horiz-adv-x="980" 
d="M477 730l-81 140h46l65 -140h-30zM25 680h217v-43h-107l160 -573h1l169 616h58l171 -616h1l157 573h-107v43h210v-43h-51l-178 -642h-71l-164 591h-2l-162 -591h-71l-180 642h-51v43z" />
    <glyph glyph-name="wgrave" unicode="&#x1e81;" horiz-adv-x="810" 
d="M598 457v43h186v-43h-48l-145 -462h-53l-133 418h-2l-126 -418h-53l-151 462h-48v43h194v-43h-93l128 -400h2l131 443h42l136 -446h2l120 403h-89zM388 560l-81 140h46l65 -140h-30z" />
    <glyph glyph-name="Wacute" unicode="&#x1e82;" horiz-adv-x="980" 
d="M592 870l-81 -140h-30l65 140h46zM25 680h217v-43h-107l160 -573h1l169 616h58l171 -616h1l157 573h-107v43h210v-43h-51l-178 -642h-71l-164 591h-2l-162 -591h-71l-180 642h-51v43z" />
    <glyph glyph-name="wacute" unicode="&#x1e83;" horiz-adv-x="810" 
d="M598 457v43h186v-43h-48l-145 -462h-53l-133 418h-2l-126 -418h-53l-151 462h-48v43h194v-43h-93l128 -400h2l131 443h42l136 -446h2l120 403h-89zM504 698l-81 -140h-30l65 140h46z" />
    <glyph glyph-name="Wdieresis" unicode="&#x1e84;" horiz-adv-x="980" 
d="M340 870h45v-110h-45v110zM600 870h45v-110h-45v110zM25 680h217v-43h-107l160 -573h1l169 616h58l171 -616h1l157 573h-107v43h210v-43h-51l-178 -642h-71l-164 591h-2l-162 -591h-71l-180 642h-51v43z" />
    <glyph glyph-name="wdieresis" unicode="&#x1e85;" horiz-adv-x="810" 
d="M598 457v43h186v-43h-48l-145 -462h-53l-133 418h-2l-126 -418h-53l-151 462h-48v43h194v-43h-93l128 -400h2l131 443h42l136 -446h2l120 403h-89zM254 700h45v-110h-45v110zM514 700h45v-110h-45v110z" />
    <glyph glyph-name="Ygrave" unicode="&#x1ef2;" horiz-adv-x="660" 
d="M325 730l-81 140h46l65 -140h-30zM356 42h73v-42h-198v42h73v188l-223 407h-56v43h221v-43h-108l195 -355h2l193 355h-106v43h213v-43h-55l-224 -407v-188z" />
    <glyph glyph-name="ygrave" unicode="&#x1ef3;" horiz-adv-x="580" 
d="M368 457v43h186v-43h-48l-194 -498q-65 -169 -179 -169q-33 0 -59 6l5 41q28 -5 45 -5q30 0 54 13.5t42.5 42t27.5 47t22 52.5l-195 470h-50v43h194v-43h-88l169 -416h2l153 416h-87zM276 560l-81 140h46l65 -140h-30z" />
    <glyph glyph-name="figuredash" unicode="&#x2012;" horiz-adv-x="600" 
d="M67 286h465v-42h-465v42z" />
    <glyph glyph-name="endash" unicode="&#x2013;" horiz-adv-x="600" 
d="M67 286h465v-42h-465v42z" />
    <glyph glyph-name="emdash" unicode="&#x2014;" horiz-adv-x="700" 
d="M67 286h565v-42h-565v42z" />
    <glyph glyph-name="quoteleft" unicode="&#x2018;" horiz-adv-x="185" 
d="M95 680h20l-15 -130h17v-115h-50v115z" />
    <glyph glyph-name="quoteright" unicode="&#x2019;" horiz-adv-x="185" 
d="M90 435h-20l15 130h-18v115h50v-115z" />
    <glyph glyph-name="quotesinglbase" unicode="&#x201a;" horiz-adv-x="185" 
d="M90 -130h-20l15 130h-18v115h50v-115z" />
    <glyph glyph-name="quotedblleft" unicode="&#x201c;" horiz-adv-x="405" 
d="M315 680h20l-15 -130h17v-115h-50v115zM95 680h20l-15 -130h17v-115h-50v115z" />
    <glyph glyph-name="quotedblright" unicode="&#x201d;" horiz-adv-x="405" 
d="M90 435h-20l15 130h-18v115h50v-115zM310 435h-20l15 130h-18v115h50v-115z" />
    <glyph glyph-name="quotedblbase" unicode="&#x201e;" horiz-adv-x="405" 
d="M90 -130h-20l15 130h-18v115h50v-115zM310 -130h-20l15 130h-18v115h50v-115z" />
    <glyph glyph-name="dagger" unicode="&#x2020;" horiz-adv-x="580" 
d="M512 452l-198 3l2 -455h-52l2 455l-199 -3v48l199 -3l-2 203h52l-2 -203l198 3v-48z" />
    <glyph glyph-name="daggerdbl" unicode="&#x2021;" horiz-adv-x="580" 
d="M266 255v190l-199 -3v48l199 -3l-2 213h52l-2 -213l198 3v-48l-198 3v-190l198 2v-47l-198 2l2 -212h-52l2 212l-199 -2v47z" />
    <glyph glyph-name="bullet" unicode="&#x2022;" horiz-adv-x="230" 
d="M67 307h50v-115h-50v115z" />
    <glyph glyph-name="onedotenleader" unicode="&#x2024;" horiz-adv-x="185" 
d="M67 115h50v-115h-50v115z" />
    <glyph glyph-name="twodotenleader" unicode="&#x2025;" horiz-adv-x="385" 
d="M67 115h50v-115h-50v115zM267 115h50v-115h-50v115z" />
    <glyph glyph-name="ellipsis" unicode="&#x2026;" horiz-adv-x="625" 
d="M87 115h50v-115h-50v115zM287 115h50v-115h-50v115zM487 115h50v-115h-50v115z" />
    <glyph glyph-name="perthousand" unicode="&#x2030;" horiz-adv-x="1110" 
d="M582 680l-370 -680h-35l370 680h35zM181 403q-62 0 -95.5 35.5t-33.5 96.5q0 62 33.5 97t95.5 35t95.5 -35t33.5 -97t-33.5 -97t-95.5 -35zM181 429q47 0 72 28t25 78t-25 78t-72 28t-71.5 -28t-24.5 -78t24.5 -78t71.5 -28zM578 12q-62 0 -95.5 35.5t-33.5 97.5
q0 61 33.5 96.5t95.5 35.5t95.5 -35t33.5 -97t-33.5 -97.5t-95.5 -35.5zM578 39q47 0 72 28t25 78t-25 78t-72 28t-71.5 -28t-24.5 -78t24.5 -78t71.5 -28zM928 12q-62 0 -95.5 35.5t-33.5 97.5q0 61 33.5 96.5t95.5 35.5t95.5 -35t33.5 -97t-33.5 -97.5t-95.5 -35.5z
M928 39q47 0 72 28t25 78t-25 78t-72 28t-71.5 -28t-24.5 -78t24.5 -78t71.5 -28z" />
    <glyph glyph-name="guilsinglleft" unicode="&#x2039;" horiz-adv-x="380" 
d="M67 266l245 154v-53l-192 -117l192 -118v-52l-245 154v32z" />
    <glyph glyph-name="guilsinglright" unicode="&#x203a;" horiz-adv-x="380" 
d="M67 420l245 -154v-32l-245 -154v52l193 118l-193 117v53z" />
    <glyph glyph-name="exclamdbl" unicode="&#x203c;" horiz-adv-x="385" 
d="M67 115h50v-115h-50v115zM67 700h50l-2 -480h-45zM267 115h50v-115h-50v115zM267 700h50l-2 -480h-45z" />
    <glyph glyph-name="fraction" unicode="&#x2044;" horiz-adv-x="540" 
d="M477 680l-370 -680h-45l370 680h45z" />
    <glyph glyph-name="zerosuperior" unicode="&#x2070;" horiz-adv-x="279" 
d="M140 861q-86 0 -86 -148q0 -155 86 -155q85 0 85 155q0 148 -85 148zM140 535q-115 0 -115 178q0 172 115 172q114 0 114 -172q0 -178 -114 -178z" />
    <glyph glyph-name="foursuperior" unicode="&#x2074;" horiz-adv-x="289" 
d="M54 664h132v187h-1q-47 -93 -131 -187zM186 563v78h-161v23q108 117 154 219h34v-219h51v-23h-51v-78h36v-23h-99v23h36z" />
    <glyph glyph-name="fivesuperior" unicode="&#x2075;" horiz-adv-x="268" 
d="M229 880v-63h-23v38h-136l-8 -141h1q30 39 80 39q47 0 73.5 -28t26.5 -78q0 -53 -31.5 -82.5t-85.5 -29.5q-49 0 -101 25v52h23v-37q39 -17 77 -17q40 0 64.5 23.5t24.5 64.5q0 34 -19 58.5t-61 24.5q-46 0 -76 -41l-21 2l9 190h183z" />
    <glyph glyph-name="sixsuperior" unicode="&#x2076;" horiz-adv-x="269" 
d="M53 717l1 -1q34 52 87 52q49 0 76 -31t27 -87q0 -53 -30 -84t-75 -31q-114 0 -114 155q0 103 37.5 149t99.5 46q36 0 72 -12v-56h-24v38q-22 6 -46 6q-32 0 -55 -15.5t-34.5 -39.5t-16.5 -46t-5 -43zM55 692q-4 -134 81 -134q33 0 56 24.5t23 67.5q0 38 -18 65.5
t-63 27.5q-44 0 -79 -51z" />
    <glyph glyph-name="sevensuperior" unicode="&#x2077;" horiz-adv-x="246" 
d="M25 880h196v-21q-111 -175 -134 -319h-31q10 69 50 158t84 156v1h-142v-38h-23v63z" />
    <glyph glyph-name="eightsuperior" unicode="&#x2078;" horiz-adv-x="279" 
d="M166 720v-1q43 -17 65.5 -38t22.5 -55q0 -43 -30 -67t-85 -24q-54 0 -84 23.5t-30 65.5q0 61 88 91v1q-78 29 -78 85q0 39 29 61.5t77 22.5q46 0 74.5 -22t28.5 -60q0 -31 -19.5 -49.5t-58.5 -33.5zM54 626q0 -30 20.5 -50t66.5 -20q45 0 65 19.5t20 48.5q0 22 -15 38.5
t-31 24t-44 17.5q-82 -26 -82 -78zM139 863q-28 0 -52 -14t-24 -47q0 -50 80 -72q35 12 54 28t19 42q0 34 -24 48.5t-53 14.5z" />
    <glyph glyph-name="ninesuperior" unicode="&#x2079;" horiz-adv-x="269" 
d="M216 703l-1 1q-33 -51 -87 -51q-48 0 -75.5 30.5t-27.5 86.5q0 53 30 84t76 31q113 0 113 -155q0 -195 -136 -195q-38 0 -72 12v55h23v-37q26 -7 46 -7q32 0 55 15.5t34.5 39.5t16.5 46.5t5 43.5zM214 728q4 133 -81 133q-33 0 -56 -24.5t-23 -66.5q0 -38 18 -65.5
t63 -27.5q46 0 79 51z" />
    <glyph glyph-name="parenleftsuperior" unicode="&#x207d;" horiz-adv-x="154" 
d="M25 710q0 127 84 240h20q-76 -123 -76 -240q0 -116 76 -240h-20q-84 113 -84 240z" />
    <glyph glyph-name="parenrightsuperior" unicode="&#x207e;" horiz-adv-x="154" 
d="M129 710q0 -127 -84 -240h-20q76 124 76 240q0 117 -76 240h20q84 -113 84 -240z" />
    <glyph glyph-name="nsuperior" unicode="&#x207f;" horiz-adv-x="320" 
d="M198 430v23h34v145q0 63 -59 63q-41 0 -85 -36v-172h34v-23h-97v23h35v203h-35v24h63v-38h1q45 43 96 43q75 0 75 -81v-151h35v-23h-97z" />
    <glyph glyph-name="zeroinferior" unicode="&#x2080;" horiz-adv-x="279" 
d="M140 121q-86 0 -86 -148q0 -155 86 -155q85 0 85 155q0 148 -85 148zM140 -205q-115 0 -115 178q0 172 115 172q114 0 114 -172q0 -178 -114 -178z" />
    <glyph glyph-name="oneinferior" unicode="&#x2081;" horiz-adv-x="206" 
d="M117 -177h64v-23h-156v23h64v292l-60 -6v20l75 14h13v-320z" />
    <glyph glyph-name="twoinferior" unicode="&#x2082;" horiz-adv-x="266" 
d="M217 -138h24v-62h-216v28q175 119 175 210q0 26 -8.5 43.5t-22.5 25t-25 10.5t-23 3q-36 0 -73 -18v-36h-23v54q52 25 102 25t76 -28.5t26 -71.5q0 -104 -165 -219v-1h153v37z" />
    <glyph glyph-name="threeinferior" unicode="&#x2083;" horiz-adv-x="268" 
d="M25 -182v55h23v-39q35 -16 79 -16q87 0 87 71q0 31 -23 50t-70 19h-41v24h40q41 0 63.5 21t22.5 51q0 25 -17.5 46t-61.5 21q-37 0 -71 -16v-39h-23v55q42 24 99 24q48 0 74.5 -23.5t26.5 -65.5q0 -31 -19.5 -52.5t-49.5 -30.5v-1q36 -5 57.5 -28t21.5 -57
q0 -92 -114 -92q-63 0 -104 23z" />
    <glyph glyph-name="fourinferior" unicode="&#x2084;" horiz-adv-x="289" 
d="M54 -76h132v187h-1q-47 -93 -131 -187zM186 -177v78h-161v23q108 117 154 219h34v-219h51v-23h-51v-78h36v-23h-99v23h36z" />
    <glyph glyph-name="fiveinferior" unicode="&#x2085;" horiz-adv-x="268" 
d="M229 140v-63h-23v38h-136l-8 -141h1q30 39 80 39q47 0 73.5 -28t26.5 -78q0 -53 -31.5 -82.5t-85.5 -29.5q-49 0 -101 25v52h23v-37q39 -17 77 -17q40 0 64.5 23.5t24.5 64.5q0 34 -19 58.5t-61 24.5q-46 0 -76 -41l-21 2l9 190h183z" />
    <glyph glyph-name="sixinferior" unicode="&#x2086;" horiz-adv-x="269" 
d="M53 -23l1 -1q34 52 87 52q49 0 76 -31t27 -87q0 -53 -30 -84t-75 -31q-114 0 -114 155q0 103 37.5 149t99.5 46q36 0 72 -12v-56h-24v38q-22 6 -46 6q-32 0 -55 -15.5t-34.5 -39.5t-16.5 -46t-5 -43zM55 -48q-4 -134 81 -134q33 0 56 24.5t23 67.5q0 38 -18 65.5
t-63 27.5q-44 0 -79 -51z" />
    <glyph glyph-name="seveninferior" unicode="&#x2087;" horiz-adv-x="246" 
d="M25 140h196v-21q-111 -175 -134 -319h-31q10 69 50 158t84 156v1h-142v-38h-23v63z" />
    <glyph glyph-name="eightinferior" unicode="&#x2088;" horiz-adv-x="279" 
d="M166 -20v-1q43 -17 65.5 -38t22.5 -55q0 -43 -30 -67t-85 -24q-54 0 -84 23.5t-30 65.5q0 61 88 91v1q-78 29 -78 85q0 39 29 61.5t77 22.5q46 0 74.5 -22t28.5 -60q0 -31 -19.5 -49.5t-58.5 -33.5zM54 -114q0 -30 20.5 -50t66.5 -20q45 0 65 19.5t20 48.5q0 22 -15 38.5
t-31 24t-44 17.5q-82 -26 -82 -78zM139 123q-28 0 -52 -14t-24 -47q0 -50 80 -72q35 12 54 28t19 42q0 34 -24 48.5t-53 14.5z" />
    <glyph glyph-name="nineinferior" unicode="&#x2089;" horiz-adv-x="269" 
d="M216 -37l-1 1q-33 -51 -87 -51q-48 0 -75.5 30.5t-27.5 86.5q0 53 30 84t76 31q113 0 113 -155q0 -195 -136 -195q-38 0 -72 12v55h23v-37q26 -7 46 -7q32 0 55 15.5t34.5 39.5t16.5 46.5t5 43.5zM214 -12q4 133 -81 133q-33 0 -56 -24.5t-23 -66.5q0 -38 18 -65.5
t63 -27.5q46 0 79 51z" />
    <glyph glyph-name="parenleftinferior" unicode="&#x208d;" horiz-adv-x="154" 
d="M25 -30q0 127 84 240h20q-76 -123 -76 -240q0 -116 76 -240h-20q-84 113 -84 240z" />
    <glyph glyph-name="parenrightinferior" unicode="&#x208e;" horiz-adv-x="154" 
d="M129 -30q0 -127 -84 -240h-20q76 124 76 240q0 117 -76 240h20q84 -113 84 -240z" />
    <glyph glyph-name="colonmonetary" unicode="&#x20a1;" horiz-adv-x="610" 
d="M517 142h43v-120q-68 -19 -125 -26v-96h-25v93q-38 -3 -75 -3q-29 0 -50 4v-94h-25v97q-59 12 -100 43t-63 79.5t-31 102.5t-9 123q0 66 9 118.5t31 99.5t63 77.5t100 42.5v97h25v-94q30 4 50 4q42 0 75 -4v94h25v-96q59 -9 125 -27v-120h-43v87q-97 23 -178 23
q-68 0 -114.5 -24.5t-70 -69.5t-33 -94.5t-9.5 -113.5q0 -68 9.5 -119.5t33 -98t70 -71t114.5 -24.5q82 0 178 24v86z" />
    <glyph glyph-name="franc" unicode="&#x20a3;" horiz-adv-x="650" 
d="M32 282h67q-2 40 -2 63q0 35 2 52h-67v28h69q12 124 75.5 194.5t198.5 70.5q113 0 225 -33v-120h-43v87q-97 23 -178 23q-110 0 -160 -60t-61 -162h209l-3 -28h-210q-2 -17 -2 -52q0 -21 2 -63h213l-3 -27h-205q12 -104 62 -163.5t158 -59.5q82 0 178 24v86h43v-120
q-113 -32 -225 -32q-134 0 -196.5 70t-76.5 195h-70v27z" />
    <glyph glyph-name="lira" unicode="&#x20a4;" horiz-adv-x="650" 
d="M32 282h67q-2 40 -2 63q0 35 2 52h-67v28h69q12 124 75.5 194.5t198.5 70.5q113 0 225 -33v-120h-43v87q-97 23 -178 23q-110 0 -160 -60t-61 -162h209l-3 -28h-210q-2 -17 -2 -52q0 -21 2 -63h213l-3 -27h-205q12 -104 62 -163.5t158 -59.5q82 0 178 24v86h43v-120
q-113 -32 -225 -32q-134 0 -196.5 70t-76.5 195h-70v27z" />
    <glyph glyph-name="peseta" unicode="&#x20a7;" horiz-adv-x="650" 
d="M32 282h67q-2 40 -2 63q0 35 2 52h-67v28h69q12 124 75.5 194.5t198.5 70.5q113 0 225 -33v-120h-43v87q-97 23 -178 23q-110 0 -160 -60t-61 -162h209l-3 -28h-210q-2 -17 -2 -52q0 -21 2 -63h213l-3 -27h-205q12 -104 62 -163.5t158 -59.5q82 0 178 24v86h43v-120
q-113 -32 -225 -32q-134 0 -196.5 70t-76.5 195h-70v27z" />
    <glyph glyph-name="Euro" unicode="&#x20ac;" horiz-adv-x="650" 
d="M32 282h67q-2 40 -2 63q0 35 2 52h-67v28h69q12 124 75.5 194.5t198.5 70.5q113 0 225 -33v-120h-43v87q-97 23 -178 23q-110 0 -160 -60t-61 -162h209l-3 -28h-210q-2 -17 -2 -52q0 -21 2 -63h213l-3 -27h-205q12 -104 62 -163.5t158 -59.5q82 0 178 24v86h43v-120
q-113 -32 -225 -32q-134 0 -196.5 70t-76.5 195h-70v27z" />
    <glyph glyph-name="litre" unicode="&#x2113;" horiz-adv-x="449" 
d="M42 156l-12 11l94 99v243q0 102 40 151q42 50 100 50q44 0 70 -27t26 -72q0 -51 -31 -112q-31 -63 -129 -176v-168q0 -75 23 -106q22 -29 60 -29q35 0 64 29q32 29 54 103h18q-21 -83 -68 -127q-37 -35 -89 -35q-43 0 -77.5 24.5t-49.5 65.5q-11 33 -11 107v52zM200 543
v-193q134 155 134 242q0 41 -19 65t-48 24t-48 -28t-19 -110z" />
    <glyph glyph-name="afii61352" unicode="&#x2116;" horiz-adv-x="1044" 
d="M867 350q-81 0 -124 45t-43 125t43 125t124 45t124 -45t43 -125t-43 -125t-124 -45zM700 290h334v-33h-334v33zM867 380q62 0 96 37t34 103t-33.5 102.5t-96.5 36.5t-96.5 -36.5t-33.5 -102.5t33.5 -103t96.5 -37zM470 680h195v-43h-73v-637h-55l-389 579h-2v-537h74v-42
h-195v42h72v595h-72v43h125l392 -584h2v541h-74v43z" />
    <glyph glyph-name="trademark" unicode="&#x2122;" horiz-adv-x="800" 
d="M22 680h286v-79h-28v49h-99v-286h53v-28h-138v28h53v286h-99v-49h-28v79zM683 680h95v-28h-53v-288h53v-28h-138v28h51v254h-1l-118 -282h-25l-115 282h-2v-254h52v-28h-134v28h52v288h-52v28h95l118 -290h1z" />
    <glyph glyph-name="Omega" unicode="&#x2126;" horiz-adv-x="670" 
d="M335 690q142 0 209.5 -84t67.5 -216q0 -101 -52 -176t-146 -85v-92h198v-37h-236v154q91 4 136 71t45 165q0 52 -11 95.5t-35.5 80.5t-69 58t-106.5 21q-50 0 -89 -14t-63.5 -38t-41 -57.5t-23 -69t-6.5 -76.5q0 -97 45.5 -164.5t136.5 -71.5v-154h-237v37h199v92
q-94 10 -146.5 85t-52.5 176q0 132 68 216t210 84z" />
    <glyph glyph-name="estimated" unicode="&#x212e;" horiz-adv-x="736" 
d="M706 349h-528v-235q81 -78 190 -78q163 0 252 157l46 -26q-64 -91 -130 -134q-67 -43 -168 -43q-153 0 -244 103q-94 100 -94 256q0 158 94 259q94 102 244 102q135 0 234 -91q98 -94 104 -270zM178 397h380v189q-82 77 -191 77q-110 0 -189 -77v-189z" />
    <glyph glyph-name="onethird" unicode="&#x2153;" horiz-adv-x="800" 
d="M582 680l-370 -680h-20l370 680h20zM167 363h64v-23h-156v23h64v292l-60 -6v20l75 14h13v-320zM507 18v55h23v-39q35 -16 79 -16q87 0 87 71q0 31 -23 50t-70 19h-41v24h40q41 0 63.5 21t22.5 51q0 25 -17.5 46t-61.5 21q-39 0 -71 -16v-39h-23v55q41 24 99 24
q48 0 74.5 -23.5t26.5 -65.5q0 -31 -19.5 -52.5t-50.5 -30.5v-1q37 -5 58.5 -28t21.5 -57q0 -92 -114 -92q-63 0 -104 23z" />
    <glyph glyph-name="twothirds" unicode="&#x2154;" horiz-adv-x="800" 
d="M602 680l-370 -680h-20l370 680h20zM507 18v55h23v-39q35 -16 79 -16q87 0 87 71q0 31 -23 50t-70 19h-41v24h40q41 0 63.5 21t22.5 51q0 25 -17.5 46t-61.5 21q-39 0 -71 -16v-39h-23v55q41 24 99 24q48 0 74.5 -23.5t26.5 -65.5q0 -31 -19.5 -52.5t-50.5 -30.5v-1
q37 -5 58.5 -28t21.5 -57q0 -92 -114 -92q-63 0 -104 23zM267 402h24v-62h-216v28q175 119 175 210q0 26 -8.5 43.5t-22.5 25t-25 10.5t-23 3q-36 0 -73 -18v-36h-23v54q52 25 102 25t76 -28.5t26 -71.5q0 -104 -165 -219v-1h153v37z" />
    <glyph glyph-name="oneeighth" unicode="&#x215b;" horiz-adv-x="800" 
d="M582 680l-370 -680h-20l370 680h20zM167 363h64v-23h-156v23h64v292l-60 -6v20l75 14h13v-320zM636 180v-1q43 -18 66 -38.5t23 -54.5q0 -43 -30.5 -67t-85.5 -24q-53 0 -83.5 23.5t-30.5 65.5q0 61 89 91v1q-79 30 -79 85q0 39 29.5 61.5t76.5 22.5q46 0 75 -22t29 -60
q0 -31 -19.5 -49.5t-59.5 -33.5zM524 86q0 -30 20.5 -50t66.5 -20q45 0 65 19.5t20 48.5q0 22 -15 38.5t-31 24t-44 17.5q-82 -27 -82 -78zM609 323q-28 0 -52 -14t-24 -47q0 -50 80 -72q36 12 55 28t19 42q0 34 -24.5 48.5t-53.5 14.5z" />
    <glyph glyph-name="threeeighths" unicode="&#x215c;" horiz-adv-x="800" 
d="M592 680l-370 -680h-20l370 680h20zM636 180v-1q43 -18 66 -38.5t23 -54.5q0 -43 -30.5 -67t-85.5 -24q-53 0 -83.5 23.5t-30.5 65.5q0 61 89 91v1q-79 30 -79 85q0 39 29.5 61.5t76.5 22.5q46 0 75 -22t29 -60q0 -31 -19.5 -49.5t-59.5 -33.5zM524 86q0 -30 20.5 -50
t66.5 -20q45 0 65 19.5t20 48.5q0 22 -15 38.5t-31 24t-44 17.5q-82 -27 -82 -78zM609 323q-28 0 -52 -14t-24 -47q0 -50 80 -72q36 12 55 28t19 42q0 34 -24.5 48.5t-53.5 14.5zM75 358v55h23v-39q35 -16 79 -16q87 0 87 71q0 31 -23 50t-70 19h-41v24h40q41 0 63.5 21
t22.5 51q0 25 -17.5 46t-61.5 21q-37 0 -71 -16v-39h-23v55q42 24 99 24q48 0 74.5 -23.5t26.5 -65.5q0 -31 -19.5 -52.5t-49.5 -30.5v-1q36 -5 57.5 -28t21.5 -57q0 -92 -114 -92q-63 0 -104 23z" />
    <glyph glyph-name="fiveeighths" unicode="&#x215d;" horiz-adv-x="800" 
d="M592 680l-370 -680h-20l370 680h20zM636 180v-1q43 -18 66 -38.5t23 -54.5q0 -43 -30.5 -67t-85.5 -24q-53 0 -83.5 23.5t-30.5 65.5q0 61 89 91v1q-79 30 -79 85q0 39 29.5 61.5t76.5 22.5q46 0 75 -22t29 -60q0 -31 -19.5 -49.5t-59.5 -33.5zM524 86q0 -30 20.5 -50
t66.5 -20q45 0 65 19.5t20 48.5q0 22 -15 38.5t-31 24t-44 17.5q-82 -27 -82 -78zM609 323q-28 0 -52 -14t-24 -47q0 -50 80 -72q36 12 55 28t19 42q0 34 -24.5 48.5t-53.5 14.5zM279 680v-63h-23v38h-136l-8 -141h1q30 39 80 39q47 0 73.5 -28t26.5 -78q0 -53 -31.5 -82.5
t-85.5 -29.5q-49 0 -101 25v52h23v-37q39 -17 77 -17q40 0 64.5 23.5t24.5 64.5q0 34 -19 58.5t-61 24.5q-46 0 -76 -41l-21 2l9 190h183z" />
    <glyph glyph-name="seveneighths" unicode="&#x215e;" horiz-adv-x="800" 
d="M544 680l-370 -680h-20l370 680h20zM636 180v-1q43 -18 66 -38.5t23 -54.5q0 -43 -30.5 -67t-85.5 -24q-53 0 -83.5 23.5t-30.5 65.5q0 61 89 91v1q-79 30 -79 85q0 39 29.5 61.5t76.5 22.5q46 0 75 -22t29 -60q0 -31 -19.5 -49.5t-59.5 -33.5zM524 86q0 -30 20.5 -50
t66.5 -20q45 0 65 19.5t20 48.5q0 22 -15 38.5t-31 24t-44 17.5q-82 -27 -82 -78zM609 323q-28 0 -52 -14t-24 -47q0 -50 80 -72q36 12 55 28t19 42q0 34 -24.5 48.5t-53.5 14.5zM75 680h196v-21q-111 -175 -134 -319h-31q10 69 50 158t84 156v1h-142v-38h-23v63z" />
    <glyph glyph-name="partialdiff" unicode="&#x2202;" horiz-adv-x="573" 
d="M461 349l3 1q4 24 2 55t-5 64t-16.5 65t-32.5 57t-53.5 40.5t-78.5 15.5q-65 0 -135 -22l-1 39q76 26 146 26q123 0 184 -91.5t32 -298.5q-43 -310 -269 -310q-91 0 -141.5 62t-35.5 168q16 112 79 173.5t161 61.5q52 0 93.5 -28.5t67.5 -77.5zM453 305q-24 47 -62 76.5
t-86 29.5t-85 -17.5t-58.5 -47.5t-32.5 -60.5t-16 -65.5q-12 -88 27.5 -138t107.5 -50q176 0 205 273z" />
    <glyph glyph-name="Delta" unicode="&#x2206;" horiz-adv-x="628" 
d="M294 710l284 -710h-528zM286 626l-205 -601h442z" />
    <glyph glyph-name="product" unicode="&#x220f;" horiz-adv-x="680" 
d="M457 42h73v595h-380v-595h72v-42h-197v42h72v595h-72v43h630v-43h-73v-595h73v-42h-198v42z" />
    <glyph glyph-name="summation" unicode="&#x2211;" horiz-adv-x="520" 
d="M470 122v-122h-430v40l191 298l-191 302v40h430v-123h-43v80h-321v-2l191 -296l-190 -295v-2h320v80h43z" />
    <glyph glyph-name="minus" unicode="&#x2212;" horiz-adv-x="500" 
d="M67 286h365v-42h-365v42z" />
    <glyph glyph-name="uni2215" unicode="&#x2215;" horiz-adv-x="540" 
d="M477 680l-370 -680h-45l370 680h45z" />
    <glyph glyph-name="uni2219" unicode="&#x2219;" horiz-adv-x="185" 
d="M67 307h50v-115h-50v115z" />
    <glyph glyph-name="radical" unicode="&#x221a;" horiz-adv-x="800" 
d="M87 357v33h205l128 -336h2l244 646h54l-271 -705h-59l-143 362h-160z" />
    <glyph glyph-name="infinity" unicode="&#x221e;" horiz-adv-x="680" 
d="M176 137q48 0 85.5 34.5t55.5 75.5q-18 45 -57.5 79.5t-81.5 34.5q-59 0 -89 -32.5t-30 -79.5q0 -46 29 -79t88 -33zM336 224q-22 -49 -66 -83.5t-102 -34.5q-66 0 -104.5 39t-38.5 105q0 65 41.5 104.5t113.5 39.5q98 0 161 -122q65 122 170 122q66 0 105 -39.5
t39 -104.5q0 -62 -40.5 -103t-111.5 -41q-47 0 -93 30.5t-74 87.5zM504 363q-47 0 -86 -36.5t-59 -78.5q18 -44 59 -77t84 -33q58 0 88.5 32.5t30.5 79.5q0 46 -29 79.5t-88 33.5z" />
    <glyph glyph-name="integral" unicode="&#x222b;" horiz-adv-x="360" 
d="M155 -45v595q0 88 31 122.5t101 34.5q35 0 73 -6l-5 -40q-31 5 -58 5q-53 0 -72.5 -29.5t-19.5 -94.5v-587q0 -90 -30.5 -127.5t-102.5 -37.5q-34 0 -72 6l5 40q31 -5 57 -5q54 0 73.5 29.5t19.5 94.5z" />
    <glyph glyph-name="approxequal" unicode="&#x2248;" horiz-adv-x="500" 
d="M175 377q-12 0 -20.5 -2.5t-26 -14.5t-42.5 -37l-17 14q33 43 55.5 60t48.5 17t96 -31t85 -31q37 0 65 49l16 -16q-17 -33 -33.5 -49.5t-41.5 -17.5q-2 0 -21 2q-17 4 -81 30.5t-83 26.5zM175 177q-12 0 -20.5 -2.5t-26 -14.5t-42.5 -37l-17 14q33 43 55.5 60t48.5 17
t96 -31t85 -31q37 0 65 49l16 -16q-17 -33 -33.5 -49.5t-41.5 -17.5q-2 0 -21 2q-17 4 -81 30.5t-83 26.5z" />
    <glyph glyph-name="notequal" unicode="&#x2260;" horiz-adv-x="500" 
d="M67 186h127l86 158h-213v42h236l119 219h25l-119 -219h104v-42h-127l-86 -158h213v-42h-236l-119 -219h-25l119 219h-104v42z" />
    <glyph glyph-name="lessequal" unicode="&#x2264;" horiz-adv-x="480" 
d="M67 316l345 164v-38l-292 -140l292 -140v-37l-345 164v27zM67 70h345v-33h-345v33z" />
    <glyph glyph-name="greaterequal" unicode="&#x2265;" horiz-adv-x="480" 
d="M67 480l345 -164v-27l-345 -164v37l293 140l-293 140v38zM67 70h345v-33h-345v33z" />
    <glyph glyph-name="lozenge" unicode="&#x25ca;" horiz-adv-x="472" 
d="M229 -30l-199 374l199 374h14l199 -374l-199 -374h-14zM72 344l164 -307l163 307l-163 306z" />
    <glyph glyph-name="undercommaaccent" unicode="&#xf005;" horiz-adv-x="230" 
d="M90 -240h-20l15 107h-18v93h50v-93z" />
    <glyph glyph-name="Abreve.small" unicode="&#xf66d;" horiz-adv-x="632" 
d="M323 694q85 0 109 96h24q-10 -66 -46 -97t-87 -31t-86.5 31.5t-45.5 96.5h25q22 -96 107 -96zM205 585h153l203 -544h48v-41h-186v41h81l-51 139h-267l-54 -139h74v-41h-183v41h57l196 503h-71v41zM324 536h-2l-124 -318h245z" />
    <glyph glyph-name="Amacron.small" unicode="&#xf66e;" horiz-adv-x="632" 
d="M206 715h235v-38h-235v38zM205 585h153l203 -544h48v-41h-186v41h81l-51 139h-267l-54 -139h74v-41h-183v41h57l196 503h-71v41zM324 536h-2l-124 -318h245z" />
    <glyph glyph-name="AEacute.small" unicode="&#xf670;" horiz-adv-x="827" 
d="M353 544h-71v41h493v-111h-41v70h-283v-220h279v-41h-279v-242h283v70h41v-111h-376v248h-163l-143 -248h-83v41h52zM397 539l-140 -250h142v250h-2zM545 780l-81 -140h-30l65 140h46z" />
    <glyph glyph-name="Cacute.small" unicode="&#xf671;" horiz-adv-x="551" 
d="M464 126h42v-108q-103 -28 -203 -28q-74 0 -125 23.5t-77.5 68t-37.5 96t-11 119.5q0 65 11 115t37.5 93.5t77.5 66.5t125 23q105 0 203 -28v-108h-42v75q-88 20 -157 20q-60 0 -101.5 -21t-62 -59.5t-29 -80.5t-8.5 -96q0 -46 4.5 -82t18 -71.5t35.5 -59t58 -38
t85 -14.5q79 0 157 20v74zM414 780l-81 -140h-30l65 140h46z" />
    <glyph glyph-name="Ccaron.small" unicode="&#xf672;" horiz-adv-x="551" 
d="M464 126h42v-108q-103 -28 -203 -28q-74 0 -125 23.5t-77.5 68t-37.5 96t-11 119.5q0 65 11 115t37.5 93.5t77.5 66.5t125 23q105 0 203 -28v-108h-42v75q-88 20 -157 20q-60 0 -101.5 -21t-62 -59.5t-29 -80.5t-8.5 -96q0 -46 4.5 -82t18 -71.5t35.5 -59t58 -38
t85 -14.5q79 0 157 20v74zM234 780l92 -110l93 110h30l-104 -140h-37l-104 140h30z" />
    <glyph glyph-name="Ccircumflex.small" unicode="&#xf673;" horiz-adv-x="551" 
d="M464 126h42v-108q-103 -28 -203 -28q-74 0 -125 23.5t-77.5 68t-37.5 96t-11 119.5q0 65 11 115t37.5 93.5t77.5 66.5t125 23q105 0 203 -28v-108h-42v75q-88 20 -157 20q-60 0 -101.5 -21t-62 -59.5t-29 -80.5t-8.5 -96q0 -46 4.5 -82t18 -71.5t35.5 -59t58 -38
t85 -14.5q79 0 157 20v74zM317 740l-92 -110h-30l104 140h37l104 -140h-30z" />
    <glyph glyph-name="Cdotaccent.small" unicode="&#xf674;" horiz-adv-x="551" 
d="M464 126h42v-108q-103 -28 -203 -28q-74 0 -125 23.5t-77.5 68t-37.5 96t-11 119.5q0 65 11 115t37.5 93.5t77.5 66.5t125 23q105 0 203 -28v-108h-42v75q-88 20 -157 20q-60 0 -101.5 -21t-62 -59.5t-29 -80.5t-8.5 -96q0 -46 4.5 -82t18 -71.5t35.5 -59t58 -38
t85 -14.5q79 0 157 20v74zM282 780h45v-110h-45v110z" />
    <glyph glyph-name="Dcaron.small" unicode="&#xf675;" horiz-adv-x="596" 
d="M23 585h274q247 0 247 -288q0 -297 -247 -297h-274v41h65v503h-65v41zM139 41h158q194 0 194 256q0 247 -194 247h-158v-503zM198 780l92 -110l93 110h30l-104 -140h-37l-104 140h30z" />
    <glyph glyph-name="Ebreve.small" unicode="&#xf677;" horiz-adv-x="515" 
d="M23 585h440v-111h-41v70h-283v-220h279v-41h-279v-242h283v70h41v-111h-440v41h65v503h-65v41zM273 694q85 0 109 96h24q-10 -66 -46 -97t-87 -31t-86.5 31.5t-45.5 96.5h25q22 -96 107 -96z" />
    <glyph glyph-name="Ecaron.small" unicode="&#xf678;" horiz-adv-x="515" 
d="M23 585h440v-111h-41v70h-283v-220h279v-41h-279v-242h283v70h41v-111h-440v41h65v503h-65v41zM177 780l92 -110l93 110h30l-104 -140h-37l-104 140h30z" />
    <glyph glyph-name="Edotaccent.small" unicode="&#xf679;" horiz-adv-x="515" 
d="M23 585h440v-111h-41v70h-283v-220h279v-41h-279v-242h283v70h41v-111h-440v41h65v503h-65v41zM227 780h45v-110h-45v110z" />
    <glyph glyph-name="Emacron.small" unicode="&#xf67a;" horiz-adv-x="515" 
d="M23 585h440v-111h-41v70h-283v-220h279v-41h-279v-242h283v70h41v-111h-440v41h65v503h-65v41zM154 715h235v-38h-235v38z" />
    <glyph glyph-name="Gbreve.small" unicode="&#xf67d;" horiz-adv-x="560" 
d="M106 297q0 -54 10 -98.5t32.5 -83t62.5 -60t96 -21.5q83 0 148 42v166h-137v42h188v-243q-104 -51 -203 -51q-70 0 -120 24t-78 68t-40.5 97t-12.5 118t11 115t37.5 93.5t77.5 66.5t125 23q105 0 203 -28v-108h-42v75q-88 20 -157 20q-60 0 -101.5 -21t-62 -59.5
t-29 -80.5t-8.5 -96zM319 694q85 0 109 96h24q-10 -66 -46 -97t-87 -31t-86.5 31.5t-45.5 96.5h25q22 -96 107 -96z" />
    <glyph glyph-name="Gcircumflex.small" unicode="&#xf67e;" horiz-adv-x="560" 
d="M106 297q0 -54 10 -98.5t32.5 -83t62.5 -60t96 -21.5q83 0 148 42v166h-137v42h188v-243q-104 -51 -203 -51q-70 0 -120 24t-78 68t-40.5 97t-12.5 118t11 115t37.5 93.5t77.5 66.5t125 23q105 0 203 -28v-108h-42v75q-88 20 -157 20q-60 0 -101.5 -21t-62 -59.5
t-29 -80.5t-8.5 -96zM318 740l-92 -110h-30l104 140h37l104 -140h-30z" />
    <glyph glyph-name="Gcommaaccent.small" unicode="&#xf67f;" horiz-adv-x="560" 
d="M106 297q0 -54 10 -98.5t32.5 -83t62.5 -60t96 -21.5q83 0 148 42v166h-137v42h188v-243q-104 -51 -203 -51q-70 0 -120 24t-78 68t-40.5 97t-12.5 118t11 115t37.5 93.5t77.5 66.5t125 23q105 0 203 -28v-108h-42v75q-88 20 -157 20q-60 0 -101.5 -21t-62 -59.5
t-29 -80.5t-8.5 -96zM311 -240h-20l15 107h-18v93h50v-93z" />
    <glyph glyph-name="Gdotaccent.small" unicode="&#xf680;" horiz-adv-x="560" 
d="M106 297q0 -54 10 -98.5t32.5 -83t62.5 -60t96 -21.5q83 0 148 42v166h-137v42h188v-243q-104 -51 -203 -51q-70 0 -120 24t-78 68t-40.5 97t-12.5 118t11 115t37.5 93.5t77.5 66.5t125 23q105 0 203 -28v-108h-42v75q-88 20 -157 20q-60 0 -101.5 -21t-62 -59.5
t-29 -80.5t-8.5 -96zM281 780h45v-110h-45v110z" />
    <glyph glyph-name="Hcircumflex.small" unicode="&#xf682;" horiz-adv-x="614" 
d="M410 41h65v242h-336v-242h65v-41h-181v41h65v503h-65v41h181v-41h-65v-220h336v220h-65v41h181v-41h-65v-503h65v-41h-181v41zM316 740l-92 -110h-30l104 140h37l104 -140h-30z" />
    <glyph glyph-name="Ibreve.small" unicode="&#xf683;" horiz-adv-x="227" 
d="M23 41h65v503h-65v41h181v-41h-65v-503h65v-41h-181v41zM113 694q85 0 109 96h24q-10 -66 -46 -97t-87 -31t-86.5 31.5t-45.5 96.5h25q22 -96 107 -96z" />
    <glyph glyph-name="Imacron.small" unicode="&#xf685;" horiz-adv-x="227" 
d="M23 41h65v503h-65v41h181v-41h-65v-503h65v-41h-181v41zM-5 715h235v-38h-235v38z" />
    <glyph glyph-name="Itilde.small" unicode="&#xf687;" horiz-adv-x="227" 
d="M23 41h65v503h-65v41h181v-41h-65v-503h65v-41h-181v41zM62 717q-21 0 -36.5 -8.5t-52.5 -45.5l-17 14q33 43 55.5 60t48.5 17t71 -31t60 -31q37 0 65 49l16 -16q-33 -66 -75 -67q-7 -1 -21 3q-14 5 -54.5 30.5t-59.5 25.5z" />
    <glyph glyph-name="Jcircumflex.small" unicode="&#xf688;" horiz-adv-x="308" 
d="M104 585h181v-41h-65v-405q0 -82 -31.5 -115.5t-96.5 -33.5q-39 0 -72 6l5 41q29 -4 55 -4q48 0 68.5 25.5t20.5 80.5v405h-65v41zM193 740l-92 -110h-30l104 140h37l104 -140h-30z" />
    <glyph glyph-name="Kcommaaccent.small" unicode="&#xf689;" horiz-adv-x="614" 
d="M23 585h181v-41h-65v-305l306 305h-75v41h212v-41h-74l-204 -201l217 -302h70v-41h-214v41h77l-189 268l-126 -124v-144h65v-41h-181v41h65v503h-65v41zM298 -240h-20l15 107h-18v93h50v-93z" />
    <glyph glyph-name="Lacute.small" unicode="&#xf68a;" horiz-adv-x="497" 
d="M419 111h42v-111h-438v41h65v503h-65v41h181v-41h-65v-503h280v70zM209 780l-81 -140h-30l65 140h46z" />
    <glyph glyph-name="Lcaron.small" unicode="&#xf68b;" horiz-adv-x="497" 
d="M419 111h42v-111h-438v41h65v503h-65v41h181v-41h-65v-503h280v70zM317 385h-20l15 107h-18v93h50v-93z" />
    <glyph glyph-name="Lcommaaccent.small" unicode="&#xf68c;" horiz-adv-x="497" 
d="M419 111h42v-111h-438v41h65v503h-65v41h181v-41h-65v-503h280v70zM255 -240h-20l15 107h-18v93h50v-93z" />
    <glyph glyph-name="Ldot.small" unicode="&#xf68d;" horiz-adv-x="497" 
d="M419 111h42v-111h-438v41h65v503h-65v41h181v-41h-65v-503h280v70zM274 392h45v-110h-45v110z" />
    <glyph glyph-name="Nacute.small" unicode="&#xf68e;" horiz-adv-x="623" 
d="M422 585h178v-41h-65v-544h-46l-351 495l-2 -2v-452h65v-41h-178v41h65v503h-65v41h109l354 -500l2 2v457h-66v41zM422 780l-81 -140h-30l65 140h46z" />
    <glyph glyph-name="Ncaron.small" unicode="&#xf68f;" horiz-adv-x="623" 
d="M422 585h178v-41h-65v-544h-46l-351 495l-2 -2v-452h65v-41h-178v41h65v503h-65v41h109l354 -500l2 2v457h-66v41zM223 780l92 -110l93 110h30l-104 -140h-37l-104 140h30z" />
    <glyph glyph-name="Ncommaaccent.small" unicode="&#xf690;" horiz-adv-x="623" 
d="M422 585h178v-41h-65v-544h-46l-351 495l-2 -2v-452h65v-41h-178v41h65v503h-65v41h109l354 -500l2 2v457h-66v41zM316 -240h-20l15 107h-18v93h50v-93z" />
    <glyph glyph-name="Obreve.small" unicode="&#xf691;" horiz-adv-x="605" 
d="M303 554q-49 0 -85 -14.5t-57.5 -37.5t-34 -58t-16.5 -69.5t-4 -77.5q0 -44 4 -79t16.5 -71t33.5 -60t57.5 -39.5t85.5 -15.5q60 0 101 22t61 62t27.5 82.5t7.5 98.5q0 55 -7.5 96.5t-27.5 80t-61 59.5t-101 21zM303 -10q-74 0 -125 24t-77.5 68.5t-37.5 96t-11 118.5
q0 65 11 115t37.5 93.5t77.5 66.5t125 23q59 0 104 -16t72.5 -42.5t44 -65.5t23 -80.5t6.5 -93.5q0 -67 -11 -118.5t-37 -96t-77 -68.5t-125 -24zM301 694q85 0 109 96h24q-10 -66 -46 -97t-87 -31t-86.5 31.5t-45.5 96.5h25q22 -96 107 -96z" />
    <glyph glyph-name="Ohungarumlaut.small" unicode="&#xf692;" horiz-adv-x="605" 
d="M303 554q-49 0 -85 -14.5t-57.5 -37.5t-34 -58t-16.5 -69.5t-4 -77.5q0 -44 4 -79t16.5 -71t33.5 -60t57.5 -39.5t85.5 -15.5q60 0 101 22t61 62t27.5 82.5t7.5 98.5q0 55 -7.5 96.5t-27.5 80t-61 59.5t-101 21zM303 -10q-74 0 -125 24t-77.5 68.5t-37.5 96t-11 118.5
q0 65 11 115t37.5 93.5t77.5 66.5t125 23q59 0 104 -16t72.5 -42.5t44 -65.5t23 -80.5t6.5 -93.5q0 -67 -11 -118.5t-37 -96t-77 -68.5t-125 -24zM318 780l-81 -140h-30l65 140h46zM488 780l-81 -140h-30l65 140h46z" />
    <glyph glyph-name="Omacron.small" unicode="&#xf693;" horiz-adv-x="605" 
d="M303 554q-49 0 -85 -14.5t-57.5 -37.5t-34 -58t-16.5 -69.5t-4 -77.5q0 -44 4 -79t16.5 -71t33.5 -60t57.5 -39.5t85.5 -15.5q60 0 101 22t61 62t27.5 82.5t7.5 98.5q0 55 -7.5 96.5t-27.5 80t-61 59.5t-101 21zM303 -10q-74 0 -125 24t-77.5 68.5t-37.5 96t-11 118.5
q0 65 11 115t37.5 93.5t77.5 66.5t125 23q59 0 104 -16t72.5 -42.5t44 -65.5t23 -80.5t6.5 -93.5q0 -67 -11 -118.5t-37 -96t-77 -68.5t-125 -24zM184 715h235v-38h-235v38z" />
    <glyph glyph-name="Oslashacute.small" unicode="&#xf694;" horiz-adv-x="605" 
d="M415 780l-81 -140h-30l65 140h46zM303 -10q-121 0 -183 69l-70 -82l-18 14l72 85q-52 73 -52 221q0 65 11 115t37.5 93.5t77.5 66.5t125 23q115 0 178 -65l74 89l18 -14l-76 -91q56 -69 56 -217q0 -67 -11 -118.5t-37 -96t-77 -68.5t-125 -24zM303 34q60 0 101 21.5
t61 61.5t27.5 82.5t7.5 97.5q0 115 -38 173l-310 -371q48 -65 151 -65zM303 551q-61 0 -102 -20.5t-60.5 -58.5t-27 -79t-7.5 -96q0 -117 35 -174l309 369q-49 59 -147 59z" />
    <glyph glyph-name="Racute.small" unicode="&#xf695;" horiz-adv-x="587" 
d="M361 780l-81 -140h-30l65 140h46zM23 585h309q83 0 129.5 -47.5t46.5 -120.5q0 -65 -38.5 -109.5t-106.5 -51.5l154 -215h47v-41h-190v41h82l-144 208h-173v-208h64v-41h-180v41h65v503h-65v41zM139 544v-254h181q61 0 98.5 34t37.5 93q0 55 -35 91t-94 36h-188z" />
    <glyph glyph-name="Rcaron.small" unicode="&#xf696;" horiz-adv-x="587" 
d="M197 780l92 -110l93 110h30l-104 -140h-37l-104 140h30zM23 585h309q83 0 129.5 -47.5t46.5 -120.5q0 -65 -38.5 -109.5t-106.5 -51.5l154 -215h47v-41h-190v41h82l-144 208h-173v-208h64v-41h-180v41h65v503h-65v41zM139 544v-254h181q61 0 98.5 34t37.5 93q0 55 -35 91
t-94 36h-188z" />
    <glyph glyph-name="Rcommaaccent.small" unicode="&#xf697;" horiz-adv-x="587" 
d="M299 -240h-20l15 107h-18v93h50v-93zM23 585h309q83 0 129.5 -47.5t46.5 -120.5q0 -65 -38.5 -109.5t-106.5 -51.5l154 -215h47v-41h-190v41h82l-144 208h-173v-208h64v-41h-180v41h65v503h-65v41zM139 544v-254h181q61 0 98.5 34t37.5 93q0 55 -35 91t-94 36h-188z" />
    <glyph glyph-name="Sacute.small" unicode="&#xf698;" horiz-adv-x="524" 
d="M52 129h41v-73q96 -22 169 -22q80 0 118.5 35t38.5 82q0 24 -12.5 44t-26.5 31.5t-42 22.5t-40.5 14.5t-41.5 10.5q-84 21 -141 62t-57 109q0 76 55.5 113t146.5 37q100 0 198 -28v-111h-41v76q-86 19 -157 19q-79 0 -113.5 -29.5t-34.5 -74.5q0 -89 174 -128
q186 -40 186 -163q0 -80 -58 -123t-152 -43q-103 0 -210 29v110zM357 780l-81 -140h-30l65 140h46z" />
    <glyph glyph-name="Scircumflex.small" unicode="&#xf69a;" horiz-adv-x="524" 
d="M52 129h41v-73q96 -22 169 -22q80 0 118.5 35t38.5 82q0 24 -12.5 44t-26.5 31.5t-42 22.5t-40.5 14.5t-41.5 10.5q-84 21 -141 62t-57 109q0 76 55.5 113t146.5 37q100 0 198 -28v-111h-41v76q-86 19 -157 19q-79 0 -113.5 -29.5t-34.5 -74.5q0 -89 174 -128
q186 -40 186 -163q0 -80 -58 -123t-152 -43q-103 0 -210 29v110zM276 740l-92 -110h-30l104 140h37l104 -140h-30z" />
    <glyph glyph-name="Scommaaccent.small" unicode="&#xf69b;" horiz-adv-x="524" 
d="M52 129h41v-73q96 -22 169 -22q80 0 118.5 35t38.5 82q0 24 -12.5 44t-26.5 31.5t-42 22.5t-40.5 14.5t-41.5 10.5q-84 21 -141 62t-57 109q0 76 55.5 113t146.5 37q100 0 198 -28v-111h-41v76q-86 19 -157 19q-79 0 -113.5 -29.5t-34.5 -74.5q0 -89 174 -128
q186 -40 186 -163q0 -80 -58 -123t-152 -43q-103 0 -210 29v110zM265 -240h-20l15 107h-18v93h50v-93z" />
    <glyph glyph-name="Tcaron.small" unicode="&#xf69d;" horiz-adv-x="524" 
d="M49 585h427v-111h-43v70h-145v-503h64v-41h-180v41h64v503h-145v-70h-42v111zM169 780l92 -110l93 110h30l-104 -140h-37l-104 140h30z" />
    <glyph glyph-name="Tcommaaccent.small" unicode="&#xf69e;" horiz-adv-x="524" 
d="M49 585h427v-111h-43v70h-145v-503h64v-41h-180v41h64v503h-145v-70h-42v111zM260 -240h-20l15 107h-18v93h50v-93z" />
    <glyph glyph-name="Ubreve.small" unicode="&#xf69f;" horiz-adv-x="614" 
d="M410 585h181v-41h-65v-338q0 -111 -54 -163.5t-165 -52.5t-165 52.5t-54 163.5v338h-65v41h181v-41h-65v-338q0 -25 2 -44t11.5 -45.5t26.5 -43t50.5 -29t80.5 -12.5q44 0 76 12.5t48.5 29.5t26.5 43t12 45t2 44v338h-65v41zM306 694q85 0 109 96h24q-10 -66 -46 -97
t-87 -31t-86.5 31.5t-45.5 96.5h25q22 -96 107 -96z" />
    <glyph glyph-name="Uhungarumlaut.small" unicode="&#xf6a0;" horiz-adv-x="614" 
d="M410 585h181v-41h-65v-338q0 -111 -54 -163.5t-165 -52.5t-165 52.5t-54 163.5v338h-65v41h181v-41h-65v-338q0 -25 2 -44t11.5 -45.5t26.5 -43t50.5 -29t80.5 -12.5q44 0 76 12.5t48.5 29.5t26.5 43t12 45t2 44v338h-65v41zM333 780l-81 -140h-30l65 140h46zM503 780
l-81 -140h-30l65 140h46z" />
    <glyph glyph-name="Umacron.small" unicode="&#xf6a1;" horiz-adv-x="614" 
d="M410 585h181v-41h-65v-338q0 -111 -54 -163.5t-165 -52.5t-165 52.5t-54 163.5v338h-65v41h181v-41h-65v-338q0 -25 2 -44t11.5 -45.5t26.5 -43t50.5 -29t80.5 -12.5q44 0 76 12.5t48.5 29.5t26.5 43t12 45t2 44v338h-65v41zM189 715h235v-38h-235v38z" />
    <glyph glyph-name="Uring.small" unicode="&#xf6a3;" horiz-adv-x="614" 
d="M410 585h181v-41h-65v-338q0 -111 -54 -163.5t-165 -52.5t-165 52.5t-54 163.5v338h-65v41h181v-41h-65v-338q0 -25 2 -44t11.5 -45.5t26.5 -43t50.5 -29t80.5 -12.5q44 0 76 12.5t48.5 29.5t26.5 43t12 45t2 44v338h-65v41zM221 730q0 35 25 60.5t61 25.5
q35 0 60.5 -25.5t25.5 -60.5q0 -36 -25.5 -61t-60.5 -25q-36 0 -61 25t-25 61zM243 730q0 -27 18.5 -45.5t45.5 -18.5t45.5 18.5t18.5 45.5t-18.5 45.5t-45.5 18.5t-45.5 -18.5t-18.5 -45.5z" />
    <glyph glyph-name="Utilde.small" unicode="&#xf6a4;" horiz-adv-x="614" 
d="M410 585h181v-41h-65v-338q0 -111 -54 -163.5t-165 -52.5t-165 52.5t-54 163.5v338h-65v41h181v-41h-65v-338q0 -25 2 -44t11.5 -45.5t26.5 -43t50.5 -29t80.5 -12.5q44 0 76 12.5t48.5 29.5t26.5 43t12 45t2 44v338h-65v41zM256 717q-21 0 -36.5 -8.5t-52.5 -45.5
l-17 14q33 43 55.5 60t48.5 17t71 -31t60 -31q37 0 65 49l16 -16q-33 -66 -75 -67q-7 -1 -21 3q-14 5 -54.5 30.5t-59.5 25.5z" />
    <glyph glyph-name="Wacute.small" unicode="&#xf6a5;" horiz-adv-x="884" 
d="M23 585h199v-41h-97l143 -482h1l148 523h57l152 -523h1l140 482h-97v41h191v-41h-46l-157 -548h-70l-144 498h-2l-144 -498h-69l-160 548h-46v41zM540 780l-81 -140h-30l65 140h46z" />
    <glyph glyph-name="Wcircumflex.small" unicode="&#xf6a6;" horiz-adv-x="884" 
d="M23 585h199v-41h-97l143 -482h1l148 523h57l152 -523h1l140 482h-97v41h191v-41h-46l-157 -548h-70l-144 498h-2l-144 -498h-69l-160 548h-46v41zM441 740l-92 -110h-30l104 140h37l104 -140h-30z" />
    <glyph glyph-name="Wdieresis.small" unicode="&#xf6a7;" horiz-adv-x="884" 
d="M23 585h199v-41h-97l143 -482h1l148 523h57l152 -523h1l140 482h-97v41h191v-41h-46l-157 -548h-70l-144 498h-2l-144 -498h-69l-160 548h-46v41zM289 780h45v-110h-45v110zM549 780h45v-110h-45v110z" />
    <glyph glyph-name="Wgrave.small" unicode="&#xf6a8;" horiz-adv-x="884" 
d="M23 585h199v-41h-97l143 -482h1l148 523h57l152 -523h1l140 482h-97v41h191v-41h-46l-157 -548h-70l-144 498h-2l-144 -498h-69l-160 548h-46v41zM433 640l-81 140h46l65 -140h-30z" />
    <glyph glyph-name="Ycircumflex.small" unicode="&#xf6a9;" horiz-adv-x="596" 
d="M324 41h64v-41h-180v41h64v157l-199 346h-50v41h202v-41h-94l170 -297h2l167 297h-92v41h195v-41h-49l-200 -346v-157zM297 740l-92 -110h-30l104 140h37l104 -140h-30z" />
    <glyph glyph-name="Ygrave.small" unicode="&#xf6aa;" horiz-adv-x="596" 
d="M324 41h64v-41h-180v41h64v157l-199 346h-50v41h202v-41h-94l170 -297h2l167 297h-92v41h195v-41h-49l-200 -346v-157zM291 640l-81 140h46l65 -140h-30z" />
    <glyph glyph-name="Zacute.small" unicode="&#xf6ab;" horiz-adv-x="506" 
d="M57 585h395v-39l-342 -503v-2h316v70h41v-111h-422v39l345 503v1h-292v-69h-41v111zM343 780l-81 -140h-30l65 140h46z" />
    <glyph glyph-name="Zdotaccent.small" unicode="&#xf6ac;" horiz-adv-x="506" 
d="M57 585h395v-39l-342 -503v-2h316v70h41v-111h-422v39l345 503v1h-292v-69h-41v111zM230 780h45v-110h-45v110z" />
    <glyph glyph-name="Idotaccent.small" unicode="&#xf6ad;" horiz-adv-x="227" 
d="M23 41h65v503h-65v41h181v-41h-65v-503h65v-41h-181v41zM90 780h45v-110h-45v110z" />
    <glyph glyph-name="dotlessj" unicode="&#xf6be;" horiz-adv-x="225" 
d="M25 457v43h132v-584q0 -69 -30 -97.5t-102 -28.5q-35 0 -73 6l6 40q30 -5 57 -5q53 0 72.5 20t19.5 72v534h-82z" />
    <glyph glyph-name="commaaccent" unicode="&#xf6c3;" horiz-adv-x="230" 
d="M90 -240h-20l15 107h-18v93h50v-93z" />
    <glyph glyph-name="Acute" unicode="&#xf6c9;" horiz-adv-x="290" 
d="M188 870l-81 -140h-30l65 140h46z" />
    <glyph glyph-name="Caron" unicode="&#xf6ca;" horiz-adv-x="420" 
d="M117 870l92 -110l93 110h30l-104 -140h-37l-104 140h30z" />
    <glyph glyph-name="Dieresis" unicode="&#xf6cb;" horiz-adv-x="480" 
d="M87 870h45v-110h-45v110zM347 870h45v-110h-45v110z" />
    <glyph glyph-name="DieresisAcute" unicode="&#xf6cc;" horiz-adv-x="630" 
d="M368 900l-91 -170h-30l72 170h49zM87 870h45v-110h-45v110zM467 870h45v-110h-45v110z" />
    <glyph glyph-name="DieresisGrave" unicode="&#xf6cd;" horiz-adv-x="630" 
d="M345 730l-91 170h49l72 -170h-30zM467 870h45v-110h-45v110zM87 870h45v-110h-45v110z" />
    <glyph glyph-name="Grave" unicode="&#xf6ce;" horiz-adv-x="290" 
d="M180 730l-81 140h46l65 -140h-30z" />
    <glyph glyph-name="Hungarumlaut" unicode="&#xf6cf;" horiz-adv-x="460" 
d="M188 870l-81 -140h-30l65 140h46zM358 870l-81 -140h-30l65 140h46z" />
    <glyph glyph-name="Macron" unicode="&#xf6d0;" horiz-adv-x="380" 
d="M72 805h235v-38h-235v38z" />
    <glyph glyph-name="cyrBreve" unicode="&#xf6d1;" horiz-adv-x="408" 
d="M204 784q85 0 109 96h24q-10 -66 -46 -97t-87 -31t-86.5 31.5t-45.5 96.5h25q22 -96 107 -96z" />
    <glyph glyph-name="cyrFlex" unicode="&#xf6d2;" horiz-adv-x="420" 
d="M209 840l-92 -110h-30l104 140h37l104 -140h-30z" />
    <glyph glyph-name="dblGrave" unicode="&#xf6d3;" horiz-adv-x="460" 
d="M351 730l-81 140h46l65 -140h-30zM181 730l-81 140h46l65 -140h-30z" />
    <glyph glyph-name="cyrbreve" unicode="&#xf6d4;" horiz-adv-x="408" 
d="M204 614q85 0 109 96h24q-10 -66 -46 -97t-87 -31t-86.5 31.5t-45.5 96.5h25q22 -96 107 -96z" />
    <glyph glyph-name="cyrflex" unicode="&#xf6d5;" horiz-adv-x="420" 
d="M209 670l-92 -110h-30l104 140h37l104 -140h-30z" />
    <glyph glyph-name="dblgrave" unicode="&#xf6d6;" horiz-adv-x="460" 
d="M351 560l-81 140h46l65 -140h-30zM181 560l-81 140h46l65 -140h-30z" />
    <glyph glyph-name="dieresisacute" unicode="&#xf6d7;" horiz-adv-x="630" 
d="M368 730l-91 -170h-30l72 170h49zM87 700h45v-110h-45v110zM467 700h45v-110h-45v110z" />
    <glyph glyph-name="dieresisgrave" unicode="&#xf6d8;" horiz-adv-x="630" 
d="M345 560l-91 170h49l72 -170h-30zM467 700h45v-110h-45v110zM87 700h45v-110h-45v110z" />
    <glyph glyph-name="rupiah" unicode="&#xf6dd;" horiz-adv-x="1170" 
d="M630 457v43h122v-50h2q69 60 166 60q187 0 187 -260q0 -120 -45.5 -190t-144.5 -70q-96 0 -163 59h-2v-207h73v-42h-195v42h72v158h-284v42h88l-165 250h-191v-250h72v-42h-197v42h72v595h-72v43h342q93 0 144 -54.5t51 -139.5q0 -76 -44 -127.5t-120 -58.5l174 -258h130
v415h-72zM1055 250q0 217 -153 217q-81 0 -150 -53v-328q67 -54 150 -54q153 0 153 218zM150 637v-302h205q70 0 112 40.5t42 110.5q0 66 -39.5 108.5t-107.5 42.5h-212z" />
    <glyph glyph-name="threequartersemdash" unicode="&#xf6de;" horiz-adv-x="700" 
d="M67 286h565v-42h-565v42z" />
    <glyph glyph-name="asuperior" unicode="&#xf6e9;" horiz-adv-x="280" 
d="M65 620h-24v55q53 10 91 10q44 0 65.5 -18t21.5 -63v-151h36v-23h-64v25h-1q-38 -29 -77 -30q-18 0 -26 1q-58 10 -61 63v23q8 59 104 59h61v31q0 30 -15 44.5t-50 14.5q-27 0 -61 -6v-35zM191 473v80h-57q-45 0 -63.5 -13.5t-18.5 -41.5q0 -23 17 -37t48 -14q43 0 74 26
z" />
    <glyph glyph-name="bsuperior" unicode="&#xf6ea;" horiz-adv-x="290" 
d="M25 756v24h63v-125h1q32 30 82 30q94 0 94 -130t-95 -130q-50 0 -82 29h-1l-6 -24h-56v23h35v303h-35zM235 555q0 106 -74 106q-42 0 -73 -26v-160q32 -27 73 -27q74 0 74 107z" />
    <glyph glyph-name="dsuperior" unicode="&#xf6eb;" horiz-adv-x="290" 
d="M166 756v24h63v-327h36v-23h-64v25h-1q-34 -30 -81 -30q-94 0 -94 130t95 130q48 0 80 -29h1v100h-35zM54 555q0 -107 74 -107q43 0 73 27v160q-29 26 -73 26q-74 0 -74 -106z" />
    <glyph glyph-name="esuperior" unicode="&#xf6ec;" horiz-adv-x="264" 
d="M234 553h-179q2 -105 94 -105q45 0 79 10l3 -22q-35 -11 -85 -11q-121 0 -121 130t117 130q47 0 71.5 -24t24 -53.5t-3.5 -54.5zM141 663q-79 0 -86 -92h152q8 37 -6.5 64.5t-59.5 27.5z" />
    <glyph glyph-name="isuperior" unicode="&#xf6ed;" horiz-adv-x="149" 
d="M25 656v24h63v-227h36v-23h-99v23h35v203h-35zM60 780h28v-57h-28v57z" />
    <glyph glyph-name="lsuperior" unicode="&#xf6ee;" horiz-adv-x="149" 
d="M25 756v24h63v-327h36v-23h-99v23h35v303h-35z" />
    <glyph glyph-name="msuperior" unicode="&#xf6ef;" horiz-adv-x="470" 
d="M186 430v23h35v146q0 62 -59 62q-30 0 -74 -36v-172h34v-23h-97v23h35v203h-35v24h63v-38h1q39 41 79 42q8 1 25 -1q39 -7 51 -44q44 46 91 46q75 0 75 -81v-151h35v-23h-97v23h34v145q0 63 -59 63q-36 0 -76 -38q2 -14 2 -24v-146h34v-23h-97z" />
    <glyph glyph-name="osuperior" unicode="&#xf6f0;" horiz-adv-x="269" 
d="M135 661q-81 0 -81 -106q0 -107 81 -107q80 0 80 107q0 106 -80 106zM135 425q-110 0 -110 130t110 130q109 0 109 -130t-109 -130z" />
    <glyph glyph-name="rsuperior" unicode="&#xf6f1;" horiz-adv-x="215" 
d="M25 656v24h63v-40h1q47 45 101 45v-26q-54 0 -102 -38v-168h43v-23h-106v23h35v203h-35z" />
    <glyph glyph-name="ssuperior" unicode="&#xf6f2;" horiz-adv-x="239" 
d="M211 620h-23v35q-31 7 -71 7q-26 0 -41 -9.5t-17.5 -17.5t-2.5 -15q0 -17 13 -29.5t52 -20.5q46 -9 69.5 -25t23.5 -48q0 -72 -87 -72q-61 0 -102 11v54h23v-35q31 -7 76 -7q20 0 34 6t19 15t7 15t2 12q0 17 -14 28.5t-53 19.5q-44 9 -67 25t-23 50q0 66 86 66
q49 0 96 -11v-54z" />
    <glyph glyph-name="tsuperior" unicode="&#xf6f3;" horiz-adv-x="197" 
d="M65 504v155h-40v19l40 2l3 70h25v-70h77v-21h-77v-151q0 -32 10.5 -46t37.5 -14q16 0 28 2l3 -22q-18 -3 -40 -3q-35 0 -51 17.5t-16 61.5z" />
    <glyph glyph-name="Brevesmall" unicode="&#xf6f4;" horiz-adv-x="408" 
d="M204 694q85 0 109 96h24q-10 -66 -46 -97t-87 -31t-86.5 31.5t-45.5 96.5h25q22 -96 107 -96z" />
    <glyph glyph-name="Caronsmall" unicode="&#xf6f5;" horiz-adv-x="420" 
d="M117 780l92 -110l93 110h30l-104 -140h-37l-104 140h30z" />
    <glyph glyph-name="Circumflexsmall" unicode="&#xf6f6;" horiz-adv-x="420" 
d="M209 740l-92 -110h-30l104 140h37l104 -140h-30z" />
    <glyph glyph-name="Dotaccentsmall" unicode="&#xf6f7;" horiz-adv-x="250" 
d="M87 780h45v-110h-45v110z" />
    <glyph glyph-name="Hungarumlautsmall" unicode="&#xf6f8;" horiz-adv-x="460" 
d="M188 780l-81 -140h-30l65 140h46zM358 780l-81 -140h-30l65 140h46z" />
    <glyph glyph-name="Lslashsmall" unicode="&#xf6f9;" horiz-adv-x="497" 
d="M23 285l65 18v241h-65v41h181v-41h-65v-226l65 17v-26l-65 -18v-250h280v70h42v-111h-438v41h65v235l-65 -18v27z" />
    <glyph glyph-name="OEsmall" unicode="&#xf6fa;" horiz-adv-x="930" 
d="M303 552q-49 0 -85 -14.5t-57.5 -37t-34 -57.5t-16.5 -69t-4 -77q0 -44 4 -78.5t16.5 -71t34 -60.5t57.5 -39t85 -15q60 0 101 22t61 62.5t27.5 84.5t7.5 102q0 53 -8 94t-28 77.5t-61 56.5t-100 20zM878 0h-371v132q-52 -142 -204 -142q-74 0 -125 24t-77.5 68.5
t-37.5 96t-11 118.5q0 65 11 115t37.5 93.5t77.5 66.5t125 23q158 0 204 -139v129h371v-111h-41v70h-284v-220h280v-41h-280v-242h284v70h41v-111z" />
    <glyph glyph-name="Ogoneksmall" unicode="&#xf6fb;" horiz-adv-x="314" 
d="M242 -153l4 -16q-37 -29 -85 -29q-31 0 -54 16.5t-23 49.5q0 68 85 132h29q-33 -25 -56 -59t-23 -61q0 -26 15 -40.5t42 -14.5q28 0 66 22z" />
    <glyph glyph-name="Ringsmall" unicode="&#xf6fc;" horiz-adv-x="300" 
d="M64 730q0 35 25 60.5t61 25.5q35 0 60.5 -25.5t25.5 -60.5q0 -36 -25.5 -61t-60.5 -25q-36 0 -61 25t-25 61zM86 730q0 -27 18.5 -45.5t45.5 -18.5t45.5 18.5t18.5 45.5t-18.5 45.5t-45.5 18.5t-45.5 -18.5t-18.5 -45.5z" />
    <glyph glyph-name="Scaronsmall" unicode="&#xf6fd;" horiz-adv-x="524" 
d="M52 129h41v-73q96 -22 169 -22q80 0 118.5 35t38.5 82q0 24 -12.5 44t-26.5 31.5t-42 22.5t-40.5 14.5t-41.5 10.5q-84 21 -141 62t-57 109q0 76 55.5 113t146.5 37q100 0 198 -28v-111h-41v76q-86 19 -157 19q-79 0 -113.5 -29.5t-34.5 -74.5q0 -89 174 -128
q186 -40 186 -163q0 -80 -58 -123t-152 -43q-103 0 -210 29v110zM177 780l92 -110l93 110h30l-104 -140h-37l-104 140h30z" />
    <glyph glyph-name="Tildesmall" unicode="&#xf6fe;" horiz-adv-x="450" 
d="M175 717q-21 0 -36.5 -8.5t-52.5 -45.5l-17 14q33 43 55.5 60t48.5 17t71 -31t60 -31q37 0 65 49l16 -16q-33 -66 -75 -67q-7 -1 -21 3q-14 5 -54.5 30.5t-59.5 25.5z" />
    <glyph glyph-name="Zcaronsmall" unicode="&#xf6ff;" horiz-adv-x="506" 
d="M57 585h395v-39l-342 -503v-2h316v70h41v-111h-422v39l345 503v1h-292v-69h-41v111zM160 780l92 -110l93 110h30l-104 -140h-37l-104 140h30z" />
    <glyph glyph-name="exclamsmall" unicode="&#xf721;" horiz-adv-x="185" 
d="M67 115h50v-115h-50v115zM67 600h50l-2 -380h-45z" />
    <glyph glyph-name="dollaroldstyle" unicode="&#xf724;" horiz-adv-x="510" 
d="M270 -130h-30v100h30v-100zM270 530h-30v100h30v-100zM434 382h-43v72q-66 15 -145 15q-34 0 -59 -8t-37 -18t-19 -24t-8.5 -22t-1.5 -16q0 -36 27 -61t106 -41q94 -20 139.5 -51.5t45.5 -93.5q0 -68 -44.5 -106t-128.5 -38q-118 0 -202 21v106h42v-71q63 -15 155 -15
q34 0 59.5 9t38 20.5t20 27t9 25t1.5 18.5q0 35 -28.5 59.5t-110.5 41.5q-86 17 -132.5 49t-46.5 99q0 62 44 96t129 34q106 0 190 -21v-107z" />
    <glyph glyph-name="ampersandsmall" unicode="&#xf726;" horiz-adv-x="905" 
d="M627 148v99h-506q2 -96 53 -155.5t140 -59.5q67 0 154 34l7 -40q-83 -36 -168 -36q-109 0 -174.5 72t-65.5 188q0 115 63.5 187.5t169.5 72.5q49 0 86 -16t56 -41t31.5 -56t12.5 -61t-1 -55h142l7 219h43v-219h155v-34h-155v-92q0 -64 21 -94t77 -30q26 0 57 5l5 -40
q-36 -6 -77 -6q-70 0 -101.5 35t-31.5 123zM297 470q-78 0 -124 -54t-52 -135h313q9 32 3.5 65.5t-19 61t-45.5 45t-76 17.5z" />
    <glyph glyph-name="questionsmall" unicode="&#xf73f;" horiz-adv-x="480" 
d="M100 538v-59h-43v88q98 43 184 43q93 0 137 -39t44 -99q0 -47 -20.5 -78.5t-49 -46.5t-57.5 -27.5t-49.5 -32t-20.5 -50.5v-27h-45v30q0 38 19.5 62t48 37t56.5 26t47.5 37.5t19.5 63.5q0 45 -36.5 72t-105.5 27q-20 0 -44 -4t-39.5 -8.5t-30.5 -9.5zM177 0v115h50v-115
h-50z" />
    <glyph glyph-name="Gravesmall" unicode="&#xf760;" horiz-adv-x="290" 
d="M180 640l-81 140h46l65 -140h-30z" />
    <glyph glyph-name="Asmall" unicode="&#xf761;" horiz-adv-x="632" 
d="M205 585h153l203 -544h48v-41h-186v41h81l-51 139h-267l-54 -139h74v-41h-183v41h57l196 503h-71v41zM324 536h-2l-124 -318h245z" />
    <glyph glyph-name="Bsmall" unicode="&#xf762;" horiz-adv-x="569" 
d="M394 300v-2q59 -12 91 -50.5t32 -93.5q0 -72 -44.5 -113t-129.5 -41h-320v41h65v503h-65v41h302q84 0 129 -40t45 -107q0 -53 -27 -89t-78 -49zM323 277h-184v-236h197q61 0 94.5 30.5t33.5 87.5q0 54 -36 86t-105 32zM446 431q0 51 -33.5 82t-92.5 31h-181v-225h181
q61 0 93.5 28.5t32.5 83.5z" />
    <glyph glyph-name="Csmall" unicode="&#xf763;" horiz-adv-x="551" 
d="M464 126h42v-108q-103 -28 -203 -28q-74 0 -125 23.5t-77.5 68t-37.5 96t-11 119.5q0 65 11 115t37.5 93.5t77.5 66.5t125 23q105 0 203 -28v-108h-42v75q-88 20 -157 20q-60 0 -101.5 -21t-62 -59.5t-29 -80.5t-8.5 -96q0 -46 4.5 -82t18 -71.5t35.5 -59t58 -38
t85 -14.5q79 0 157 20v74z" />
    <glyph glyph-name="Dsmall" unicode="&#xf764;" horiz-adv-x="596" 
d="M23 585h274q247 0 247 -288q0 -297 -247 -297h-274v41h65v503h-65v41zM139 41h158q194 0 194 256q0 247 -194 247h-158v-503z" />
    <glyph glyph-name="Esmall" unicode="&#xf765;" horiz-adv-x="515" 
d="M23 585h440v-111h-41v70h-283v-220h279v-41h-279v-242h283v70h41v-111h-440v41h65v503h-65v41z" />
    <glyph glyph-name="Fsmall" unicode="&#xf766;" horiz-adv-x="501" 
d="M23 585h431v-111h-41v70h-274v-237h270v-41h-270v-225h65v-41h-181v41h65v503h-65v41z" />
    <glyph glyph-name="Gsmall" unicode="&#xf767;" horiz-adv-x="560" 
d="M106 297q0 -54 10 -98.5t32.5 -83t62.5 -60t96 -21.5q83 0 148 42v166h-137v42h188v-243q-104 -51 -203 -51q-70 0 -120 24t-78 68t-40.5 97t-12.5 118t11 115t37.5 93.5t77.5 66.5t125 23q105 0 203 -28v-108h-42v75q-88 20 -157 20q-60 0 -101.5 -21t-62 -59.5
t-29 -80.5t-8.5 -96z" />
    <glyph glyph-name="Hsmall" unicode="&#xf768;" horiz-adv-x="614" 
d="M410 41h65v242h-336v-242h65v-41h-181v41h65v503h-65v41h181v-41h-65v-220h336v220h-65v41h181v-41h-65v-503h65v-41h-181v41z" />
    <glyph glyph-name="Ismall" unicode="&#xf769;" horiz-adv-x="227" 
d="M23 41h65v503h-65v41h181v-41h-65v-503h65v-41h-181v41z" />
    <glyph glyph-name="Jsmall" unicode="&#xf76a;" horiz-adv-x="308" 
d="M104 585h181v-41h-65v-405q0 -82 -31.5 -115.5t-96.5 -33.5q-39 0 -72 6l5 41q29 -4 55 -4q48 0 68.5 25.5t20.5 80.5v405h-65v41z" />
    <glyph glyph-name="Ksmall" unicode="&#xf76b;" horiz-adv-x="614" 
d="M23 585h181v-41h-65v-305l306 305h-75v41h212v-41h-74l-204 -201l217 -302h70v-41h-214v41h77l-189 268l-126 -124v-144h65v-41h-181v41h65v503h-65v41z" />
    <glyph glyph-name="Lsmall" unicode="&#xf76c;" horiz-adv-x="497" 
d="M419 111h42v-111h-438v41h65v503h-65v41h181v-41h-65v-503h280v70z" />
    <glyph glyph-name="Msmall" unicode="&#xf76d;" horiz-adv-x="758" 
d="M611 585h124v-41h-65v-503h65v-41h-179v41h63v453h-2l-223 -494h-30l-226 494h-2v-453h63v-41h-176v41h65v503h-65v41h125l233 -507h2z" />
    <glyph glyph-name="Nsmall" unicode="&#xf76e;" horiz-adv-x="623" 
d="M422 585h178v-41h-65v-544h-46l-351 495l-2 -2v-452h65v-41h-178v41h65v503h-65v41h109l354 -500l2 2v457h-66v41z" />
    <glyph glyph-name="Osmall" unicode="&#xf76f;" horiz-adv-x="605" 
d="M303 554q-49 0 -85 -14.5t-57.5 -37.5t-34 -58t-16.5 -69.5t-4 -77.5q0 -44 4 -79t16.5 -71t33.5 -60t57.5 -39.5t85.5 -15.5q60 0 101 22t61 62t27.5 82.5t7.5 98.5q0 55 -7.5 96.5t-27.5 80t-61 59.5t-101 21zM303 -10q-74 0 -125 24t-77.5 68.5t-37.5 96t-11 118.5
q0 65 11 115t37.5 93.5t77.5 66.5t125 23q59 0 104 -16t72.5 -42.5t44 -65.5t23 -80.5t6.5 -93.5q0 -67 -11 -118.5t-37 -96t-77 -68.5t-125 -24z" />
    <glyph glyph-name="Psmall" unicode="&#xf770;" horiz-adv-x="560" 
d="M23 585h309q84 0 130 -45t46 -118q0 -77 -45.5 -120.5t-130.5 -43.5h-193v-217h65v-41h-181v41h65v503h-65v41zM139 544v-244h188q61 0 95 31.5t34 90.5q0 55 -34.5 88.5t-94.5 33.5h-188z" />
    <glyph glyph-name="Qsmall" unicode="&#xf771;" horiz-adv-x="605" 
d="M52 297q0 65 11 115t37.5 93.5t77.5 66.5t125 23q59 0 104 -16t72.5 -42.5t44 -65.5t23 -80.5t6.5 -93.5q0 -283 -217 -289q18 -27 78 -38.5t128 -4.5v-48q-85 -9 -153.5 9t-99.5 65q-69 3 -117.5 27.5t-73.5 68.5t-35.5 94.5t-10.5 115.5zM303 554q-49 0 -85 -14.5
t-57.5 -37.5t-34 -58t-16.5 -69.5t-4 -77.5q0 -44 4 -78.5t16.5 -71t34 -60.5t57.5 -39t85 -15t85 15t57 39.5t34 60t17 70.5t4 79q0 55 -7.5 96.5t-27.5 80t-61 59.5t-101 21z" />
    <glyph glyph-name="Rsmall" unicode="&#xf772;" horiz-adv-x="587" 
d="M23 585h309q83 0 129.5 -47.5t46.5 -120.5q0 -65 -38.5 -109.5t-106.5 -51.5l154 -215h47v-41h-190v41h82l-144 208h-173v-208h64v-41h-180v41h65v503h-65v41zM139 544v-254h181q61 0 98.5 34t37.5 93q0 55 -35 91t-94 36h-188z" />
    <glyph glyph-name="Ssmall" unicode="&#xf773;" horiz-adv-x="524" 
d="M52 129h41v-73q96 -22 169 -22q80 0 118.5 35t38.5 82q0 24 -12.5 44t-26.5 31.5t-42 22.5t-40.5 14.5t-41.5 10.5q-84 21 -141 62t-57 109q0 76 55.5 113t146.5 37q100 0 198 -28v-111h-41v76q-86 19 -157 19q-79 0 -113.5 -29.5t-34.5 -74.5q0 -89 174 -128
q186 -40 186 -163q0 -80 -58 -123t-152 -43q-103 0 -210 29v110z" />
    <glyph glyph-name="Tsmall" unicode="&#xf774;" horiz-adv-x="524" 
d="M49 585h427v-111h-43v70h-145v-503h64v-41h-180v41h64v503h-145v-70h-42v111z" />
    <glyph glyph-name="Usmall" unicode="&#xf775;" horiz-adv-x="614" 
d="M410 585h181v-41h-65v-338q0 -111 -54 -163.5t-165 -52.5t-165 52.5t-54 163.5v338h-65v41h181v-41h-65v-338q0 -25 2 -44t11.5 -45.5t26.5 -43t50.5 -29t80.5 -12.5q44 0 76 12.5t48.5 29.5t26.5 43t12 45t2 44v338h-65v41z" />
    <glyph glyph-name="Vsmall" unicode="&#xf776;" horiz-adv-x="623" 
d="M404 585h196v-41h-48l-204 -548h-65l-212 548h-48v41h199v-41h-95l190 -494h1l181 494h-95v41z" />
    <glyph glyph-name="Wsmall" unicode="&#xf777;" horiz-adv-x="884" 
d="M23 585h199v-41h-97l143 -482h1l148 523h57l152 -523h1l140 482h-97v41h191v-41h-46l-157 -548h-70l-144 498h-2l-144 -498h-69l-160 548h-46v41z" />
    <glyph glyph-name="Xsmall" unicode="&#xf778;" horiz-adv-x="632" 
d="M409 585h191v-41h-64l-180 -239l198 -264h55v-41h-207v41h85l-174 236l-174 -236h78v-41h-194v41h60l199 264l-178 239h-72v41h205v-41h-65l154 -210l154 210h-71v41z" />
    <glyph glyph-name="Ysmall" unicode="&#xf779;" horiz-adv-x="596" 
d="M324 41h64v-41h-180v41h64v157l-199 346h-50v41h202v-41h-94l170 -297h2l167 297h-92v41h195v-41h-49l-200 -346v-157z" />
    <glyph glyph-name="Zsmall" unicode="&#xf77a;" horiz-adv-x="506" 
d="M57 585h395v-39l-342 -503v-2h316v70h41v-111h-422v39l345 503v1h-292v-69h-41v111z" />
    <glyph glyph-name="exclamdownsmall" unicode="&#xf7a1;" horiz-adv-x="185" 
d="M117 485h-50v115h50v-115zM117 0h-50l3 380h45z" />
    <glyph glyph-name="centoldstyle" unicode="&#xf7a2;" horiz-adv-x="510" 
d="M310 -130h-30v100h30v-100zM310 530h-30v100h30v-100zM422 382v70q-58 15 -122 15q-90 0 -135 -65.5t-45 -151.5q0 -94 47.5 -156t132.5 -62q67 0 156 32l9 -42q-86 -32 -165 -32q-114 0 -173.5 71t-59.5 189q0 116 58 188t175 72q86 0 165 -21v-107h-43z" />
    <glyph glyph-name="Dieresissmall" unicode="&#xf7a8;" horiz-adv-x="480" 
d="M87 780h45v-110h-45v110zM347 780h45v-110h-45v110z" />
    <glyph glyph-name="Macronsmall" unicode="&#xf7af;" horiz-adv-x="380" 
d="M72 715h235v-38h-235v38z" />
    <glyph glyph-name="Acutesmall" unicode="&#xf7b4;" horiz-adv-x="290" 
d="M188 780l-81 -140h-30l65 140h46z" />
    <glyph glyph-name="Cedillasmall" unicode="&#xf7b8;" horiz-adv-x="294" 
d="M120 -73v73h22v-58q84 -4 84 -71q0 -35 -25 -55.5t-68 -20.5q-31 0 -68 12l4 20q32 -10 58 -10q36 0 51 18t15 39q0 20 -16 36.5t-57 16.5z" />
    <glyph glyph-name="questiondownsmall" unicode="&#xf7bf;" horiz-adv-x="480" 
d="M380 62v59h42v-88q-93 -43 -183 -43q-93 0 -137.5 38.5t-44.5 98.5q0 48 20.5 79t49.5 46t58 27.5t49.5 32t20.5 50.5v28h45v-30q0 -38 -19.5 -62t-48 -37t-56.5 -26t-47.5 -37.5t-19.5 -63.5q0 -46 36 -72.5t106 -26.5q20 0 44 4t39.5 8.5t30.5 9.5zM302 600v-115h-50
v115h50z" />
    <glyph glyph-name="Agravesmall" unicode="&#xf7e0;" horiz-adv-x="632" 
d="M293 640l-81 140h46l65 -140h-30zM205 585h153l203 -544h48v-41h-186v41h81l-51 139h-267l-54 -139h74v-41h-183v41h57l196 503h-71v41zM324 536h-2l-124 -318h245z" />
    <glyph glyph-name="Aacutesmall" unicode="&#xf7e1;" horiz-adv-x="632" 
d="M416 780l-81 -140h-30l65 140h46zM205 585h153l203 -544h48v-41h-186v41h81l-51 139h-267l-54 -139h74v-41h-183v41h57l196 503h-71v41zM324 536h-2l-124 -318h245z" />
    <glyph glyph-name="Acircumflexsmall" unicode="&#xf7e2;" horiz-adv-x="632" 
d="M314 740l-92 -110h-30l104 140h37l104 -140h-30zM205 585h153l203 -544h48v-41h-186v41h81l-51 139h-267l-54 -139h74v-41h-183v41h57l196 503h-71v41zM324 536h-2l-124 -318h245z" />
    <glyph glyph-name="Atildesmall" unicode="&#xf7e3;" horiz-adv-x="632" 
d="M272 717q-21 0 -36.5 -8.5t-52.5 -45.5l-17 14q33 43 55.5 60t48.5 17t71 -31t60 -31q37 0 65 49l16 -16q-33 -66 -75 -67q-7 -1 -21 3q-14 5 -54.5 30.5t-59.5 25.5zM205 585h153l203 -544h48v-41h-186v41h81l-51 139h-267l-54 -139h74v-41h-183v41h57l196 503h-71v41z
M324 536h-2l-124 -318h245z" />
    <glyph glyph-name="Adieresissmall" unicode="&#xf7e4;" horiz-adv-x="632" 
d="M171 780h45v-110h-45v110zM431 780h45v-110h-45v110zM205 585h153l203 -544h48v-41h-186v41h81l-51 139h-267l-54 -139h74v-41h-183v41h57l196 503h-71v41zM324 536h-2l-124 -318h245z" />
    <glyph glyph-name="Aringsmall" unicode="&#xf7e5;" horiz-adv-x="632" 
d="M238 730q0 35 25 60.5t61 25.5q35 0 60.5 -25.5t25.5 -60.5q0 -36 -25.5 -61t-60.5 -25q-36 0 -61 25t-25 61zM260 730q0 -27 18.5 -45.5t45.5 -18.5t45.5 18.5t18.5 45.5t-18.5 45.5t-45.5 18.5t-45.5 -18.5t-18.5 -45.5zM205 585h153l203 -544h48v-41h-186v41h81
l-51 139h-267l-54 -139h74v-41h-183v41h57l196 503h-71v41zM324 536h-2l-124 -318h245z" />
    <glyph glyph-name="AEsmall" unicode="&#xf7e6;" horiz-adv-x="827" 
d="M353 544h-71v41h493v-111h-41v70h-283v-220h279v-41h-279v-242h283v70h41v-111h-376v248h-163l-143 -248h-83v41h52zM397 539l-140 -250h142v250h-2z" />
    <glyph glyph-name="Ccedillasmall" unicode="&#xf7e7;" horiz-adv-x="551" 
d="M292 -63v54q-71 2 -120 26t-74 68t-35.5 94.5t-10.5 117.5q0 65 11 115t37.5 93.5t77.5 66.5t125 23q105 0 203 -28v-108h-42v75q-88 20 -157 20q-60 0 -101.5 -21t-62 -59.5t-29 -80.5t-8.5 -96q0 -58 8.5 -101.5t29 -82.5t62 -59.5t101.5 -20.5q79 0 157 19v74h42v-107
q-99 -27 -193 -28v-40q75 -4 75 -62q0 -29 -22.5 -47t-60.5 -18q-31 0 -62 10l3 18q35 -7 52 -7q31 0 44.5 15t13.5 32t-14.5 30.5t-49.5 14.5z" />
    <glyph glyph-name="Egravesmall" unicode="&#xf7e8;" horiz-adv-x="515" 
d="M23 585h440v-111h-41v70h-283v-220h279v-41h-279v-242h283v70h41v-111h-440v41h65v503h-65v41zM246 640l-81 140h46l65 -140h-30z" />
    <glyph glyph-name="Eacutesmall" unicode="&#xf7e9;" horiz-adv-x="515" 
d="M23 585h440v-111h-41v70h-283v-220h279v-41h-279v-242h283v70h41v-111h-440v41h65v503h-65v41zM345 780l-81 -140h-30l65 140h46z" />
    <glyph glyph-name="Ecircumflexsmall" unicode="&#xf7ea;" horiz-adv-x="515" 
d="M23 585h440v-111h-41v70h-283v-220h279v-41h-279v-242h283v70h41v-111h-440v41h65v503h-65v41zM266 740l-92 -110h-30l104 140h37l104 -140h-30z" />
    <glyph glyph-name="Edieresissmall" unicode="&#xf7eb;" horiz-adv-x="515" 
d="M23 585h440v-111h-41v70h-283v-220h279v-41h-279v-242h283v70h41v-111h-440v41h65v503h-65v41zM115 780h45v-110h-45v110zM375 780h45v-110h-45v110z" />
    <glyph glyph-name="Igravesmall" unicode="&#xf7ec;" horiz-adv-x="227" 
d="M23 41h65v503h-65v41h181v-41h-65v-503h65v-41h-181v41zM102 640l-81 140h46l65 -140h-30z" />
    <glyph glyph-name="Iacutesmall" unicode="&#xf7ed;" horiz-adv-x="227" 
d="M23 41h65v503h-65v41h181v-41h-65v-503h65v-41h-181v41zM209 780l-81 -140h-30l65 140h46z" />
    <glyph glyph-name="Icircumflexsmall" unicode="&#xf7ee;" horiz-adv-x="227" 
d="M23 41h65v503h-65v41h181v-41h-65v-503h65v-41h-181v41zM112 740l-92 -110h-30l104 140h37l104 -140h-30z" />
    <glyph glyph-name="Idieresissmall" unicode="&#xf7ef;" horiz-adv-x="227" 
d="M23 41h65v503h-65v41h181v-41h-65v-503h65v-41h-181v41zM-40 780h45v-110h-45v110zM220 780h45v-110h-45v110z" />
    <glyph glyph-name="Ntildesmall" unicode="&#xf7f1;" horiz-adv-x="623" 
d="M422 585h178v-41h-65v-544h-46l-351 495l-2 -2v-452h65v-41h-178v41h65v503h-65v41h109l354 -500l2 2v457h-66v41zM275 717q-21 0 -36.5 -8.5t-52.5 -45.5l-17 14q33 43 55.5 60t48.5 17t71 -31t60 -31q37 0 65 49l16 -16q-33 -66 -75 -67q-7 -1 -21 3q-14 5 -54.5 30.5
t-59.5 25.5z" />
    <glyph glyph-name="Ogravesmall" unicode="&#xf7f2;" horiz-adv-x="605" 
d="M303 554q-49 0 -85 -14.5t-57.5 -37.5t-34 -58t-16.5 -69.5t-4 -77.5q0 -44 4 -79t16.5 -71t33.5 -60t57.5 -39.5t85.5 -15.5q60 0 101 22t61 62t27.5 82.5t7.5 98.5q0 55 -7.5 96.5t-27.5 80t-61 59.5t-101 21zM303 -10q-74 0 -125 24t-77.5 68.5t-37.5 96t-11 118.5
q0 65 11 115t37.5 93.5t77.5 66.5t125 23q59 0 104 -16t72.5 -42.5t44 -65.5t23 -80.5t6.5 -93.5q0 -67 -11 -118.5t-37 -96t-77 -68.5t-125 -24zM284 640l-81 140h46l65 -140h-30z" />
    <glyph glyph-name="Oacutesmall" unicode="&#xf7f3;" horiz-adv-x="605" 
d="M303 554q-49 0 -85 -14.5t-57.5 -37.5t-34 -58t-16.5 -69.5t-4 -77.5q0 -44 4 -79t16.5 -71t33.5 -60t57.5 -39.5t85.5 -15.5q60 0 101 22t61 62t27.5 82.5t7.5 98.5q0 55 -7.5 96.5t-27.5 80t-61 59.5t-101 21zM303 -10q-74 0 -125 24t-77.5 68.5t-37.5 96t-11 118.5
q0 65 11 115t37.5 93.5t77.5 66.5t125 23q59 0 104 -16t72.5 -42.5t44 -65.5t23 -80.5t6.5 -93.5q0 -67 -11 -118.5t-37 -96t-77 -68.5t-125 -24zM402 780l-81 -140h-30l65 140h46z" />
    <glyph glyph-name="Ocircumflexsmall" unicode="&#xf7f4;" horiz-adv-x="605" 
d="M303 554q-49 0 -85 -14.5t-57.5 -37.5t-34 -58t-16.5 -69.5t-4 -77.5q0 -44 4 -79t16.5 -71t33.5 -60t57.5 -39.5t85.5 -15.5q60 0 101 22t61 62t27.5 82.5t7.5 98.5q0 55 -7.5 96.5t-27.5 80t-61 59.5t-101 21zM303 -10q-74 0 -125 24t-77.5 68.5t-37.5 96t-11 118.5
q0 65 11 115t37.5 93.5t77.5 66.5t125 23q59 0 104 -16t72.5 -42.5t44 -65.5t23 -80.5t6.5 -93.5q0 -67 -11 -118.5t-37 -96t-77 -68.5t-125 -24zM301 740l-92 -110h-30l104 140h37l104 -140h-30z" />
    <glyph glyph-name="Otildesmall" unicode="&#xf7f5;" horiz-adv-x="605" 
d="M303 554q-49 0 -85 -14.5t-57.5 -37.5t-34 -58t-16.5 -69.5t-4 -77.5q0 -44 4 -79t16.5 -71t33.5 -60t57.5 -39.5t85.5 -15.5q60 0 101 22t61 62t27.5 82.5t7.5 98.5q0 55 -7.5 96.5t-27.5 80t-61 59.5t-101 21zM303 -10q-74 0 -125 24t-77.5 68.5t-37.5 96t-11 118.5
q0 65 11 115t37.5 93.5t77.5 66.5t125 23q59 0 104 -16t72.5 -42.5t44 -65.5t23 -80.5t6.5 -93.5q0 -67 -11 -118.5t-37 -96t-77 -68.5t-125 -24zM251 717q-21 0 -36.5 -8.5t-52.5 -45.5l-17 14q33 43 55.5 60t48.5 17t71 -31t60 -31q37 0 65 49l16 -16q-33 -66 -75 -67
q-7 -1 -21 3q-14 5 -54.5 30.5t-59.5 25.5z" />
    <glyph glyph-name="Odieresissmall" unicode="&#xf7f6;" horiz-adv-x="605" 
d="M303 554q-49 0 -85 -14.5t-57.5 -37.5t-34 -58t-16.5 -69.5t-4 -77.5q0 -44 4 -79t16.5 -71t33.5 -60t57.5 -39.5t85.5 -15.5q60 0 101 22t61 62t27.5 82.5t7.5 98.5q0 55 -7.5 96.5t-27.5 80t-61 59.5t-101 21zM303 -10q-74 0 -125 24t-77.5 68.5t-37.5 96t-11 118.5
q0 65 11 115t37.5 93.5t77.5 66.5t125 23q59 0 104 -16t72.5 -42.5t44 -65.5t23 -80.5t6.5 -93.5q0 -67 -11 -118.5t-37 -96t-77 -68.5t-125 -24zM149 780h45v-110h-45v110zM409 780h45v-110h-45v110z" />
    <glyph glyph-name="Oslashsmall" unicode="&#xf7f8;" horiz-adv-x="605" 
d="M303 -10q-121 0 -183 69l-70 -82l-18 14l72 85q-52 73 -52 221q0 65 11 115t37.5 93.5t77.5 66.5t125 23q115 0 178 -65l74 89l18 -14l-76 -91q56 -69 56 -217q0 -67 -11 -118.5t-37 -96t-77 -68.5t-125 -24zM303 34q60 0 101 21.5t61 61.5t27.5 82.5t7.5 97.5
q0 115 -38 173l-310 -371q48 -65 151 -65zM303 551q-61 0 -102 -20.5t-60.5 -58.5t-27 -79t-7.5 -96q0 -117 35 -174l309 369q-49 59 -147 59z" />
    <glyph glyph-name="Ugravesmall" unicode="&#xf7f9;" horiz-adv-x="614" 
d="M410 585h181v-41h-65v-338q0 -111 -54 -163.5t-165 -52.5t-165 52.5t-54 163.5v338h-65v41h181v-41h-65v-338q0 -25 2 -44t11.5 -45.5t26.5 -43t50.5 -29t80.5 -12.5q44 0 76 12.5t48.5 29.5t26.5 43t12 45t2 44v338h-65v41zM301 640l-81 140h46l65 -140h-30z" />
    <glyph glyph-name="Uacutesmall" unicode="&#xf7fa;" horiz-adv-x="614" 
d="M410 585h181v-41h-65v-338q0 -111 -54 -163.5t-165 -52.5t-165 52.5t-54 163.5v338h-65v41h181v-41h-65v-338q0 -25 2 -44t11.5 -45.5t26.5 -43t50.5 -29t80.5 -12.5q44 0 76 12.5t48.5 29.5t26.5 43t12 45t2 44v338h-65v41zM417 780l-81 -140h-30l65 140h46z" />
    <glyph glyph-name="Ucircumflexsmall" unicode="&#xf7fb;" horiz-adv-x="614" 
d="M410 585h181v-41h-65v-338q0 -111 -54 -163.5t-165 -52.5t-165 52.5t-54 163.5v338h-65v41h181v-41h-65v-338q0 -25 2 -44t11.5 -45.5t26.5 -43t50.5 -29t80.5 -12.5q44 0 76 12.5t48.5 29.5t26.5 43t12 45t2 44v338h-65v41zM306 740l-92 -110h-30l104 140h37l104 -140
h-30z" />
    <glyph glyph-name="Udieresissmall" unicode="&#xf7fc;" horiz-adv-x="614" 
d="M410 585h181v-41h-65v-338q0 -111 -54 -163.5t-165 -52.5t-165 52.5t-54 163.5v338h-65v41h181v-41h-65v-338q0 -25 2 -44t11.5 -45.5t26.5 -43t50.5 -29t80.5 -12.5q44 0 76 12.5t48.5 29.5t26.5 43t12 45t2 44v338h-65v41zM154 780h45v-110h-45v110zM414 780h45v-110
h-45v110z" />
    <glyph glyph-name="Yacutesmall" unicode="&#xf7fd;" horiz-adv-x="596" 
d="M324 41h64v-41h-180v41h64v157l-199 346h-50v41h202v-41h-94l170 -297h2l167 297h-92v41h195v-41h-49l-200 -346v-157zM405 780l-81 -140h-30l65 140h46z" />
    <glyph glyph-name="Ydieresissmall" unicode="&#xf7ff;" horiz-adv-x="596" 
d="M324 41h64v-41h-180v41h64v157l-199 346h-50v41h202v-41h-94l170 -297h2l167 297h-92v41h195v-41h-49l-200 -346v-157zM145 780h45v-110h-45v110zM405 780h45v-110h-45v110z" />
    <glyph glyph-name="Breve" horiz-adv-x="408" 
d="M204 784q85 0 109 96h24q-10 -66 -46 -97t-87 -31t-86.5 31.5t-45.5 96.5h25q22 -96 107 -96z" />
    <glyph glyph-name="Cedilla" horiz-adv-x="294" 
d="M120 -73v73h22v-58q84 -4 84 -71q0 -35 -25 -55.5t-68 -20.5q-31 0 -68 12l4 20q32 -10 58 -10q36 0 51 18t15 39q0 20 -16 36.5t-57 16.5z" />
    <glyph glyph-name="Circumflex" horiz-adv-x="420" 
d="M209 840l-92 -110h-30l104 140h37l104 -140h-30z" />
    <glyph glyph-name="commaaccent.cap" horiz-adv-x="230" 
d="M90 -240h-20l15 107h-18v93h50v-93z" />
    <glyph glyph-name="Dotaccent" horiz-adv-x="250" 
d="M87 870h45v-110h-45v110z" />
    <glyph glyph-name="Ogonek" horiz-adv-x="314" 
d="M242 -153l4 -16q-37 -29 -85 -29q-31 0 -54 16.5t-23 49.5q0 68 85 132h29q-33 -25 -56 -59t-23 -61q0 -26 15 -40.5t42 -14.5q28 0 66 22z" />
    <glyph glyph-name="Ring" horiz-adv-x="300" 
d="M64 820q0 35 25 60.5t61 25.5q35 0 60.5 -25.5t25.5 -60.5q0 -36 -25.5 -61t-60.5 -25q-36 0 -61 25t-25 61zM86 820q0 -27 18.5 -45.5t45.5 -18.5t45.5 18.5t18.5 45.5t-18.5 45.5t-45.5 18.5t-45.5 -18.5t-18.5 -45.5z" />
    <glyph glyph-name="Tilde" horiz-adv-x="450" 
d="M175 807q-21 0 -36.5 -8.5t-52.5 -45.5l-17 14q33 43 55.5 60t48.5 17t71 -31t60 -31q37 0 65 49l16 -16q-33 -66 -75 -67q-7 -1 -21 3q-14 5 -54.5 30.5t-59.5 25.5z" />
    <glyph glyph-name="commaaccent.small" horiz-adv-x="230" 
d="M90 -240h-20l15 107h-18v93h50v-93z" />
    <glyph glyph-name="DieresisAcute.small" horiz-adv-x="630" 
d="M368 810l-91 -170h-30l72 170h49zM87 780h45v-110h-45v110zM467 780h45v-110h-45v110z" />
    <glyph glyph-name="DieresisGrave.small" horiz-adv-x="630" 
d="M345 640l-91 170h49l72 -170h-30zM467 780h45v-110h-45v110zM87 780h45v-110h-45v110z" />
    <glyph glyph-name="dblGrave.small" horiz-adv-x="460" 
d="M351 640l-81 140h46l65 -140h-30zM181 640l-81 140h46l65 -140h-30z" />
    <glyph glyph-name="middot" horiz-adv-x="250" 
d="M87 365h45v-110h-45v110z" />
    <glyph glyph-name="Aogonek.small" horiz-adv-x="632" 
d="M587 -131l4 -14q-33 -25 -77 -25q-28 0 -49 14.5t-21 42.5q0 60 73 113h-94v41h81l-51 139h-267l-54 -139h74v-41h-183v41h57l196 503h-71v41h153l203 -544h48v-41h-61q-29 -21 -49 -49.5t-20 -52.5q0 -47 50 -47q22 0 58 18zM324 536h-2l-124 -318h245z" />
    <glyph glyph-name="Dcroat.small" horiz-adv-x="596" 
d="M23 585h274q247 0 247 -288q0 -297 -247 -297h-274v41h65v240h-65v32h65v231h-65v41zM139 41h158q194 0 194 256q0 247 -194 247h-158v-231h97v-32h-97v-240z" />
    <glyph glyph-name="Eogonek.small" horiz-adv-x="515" 
d="M23 585h440v-111h-41v70h-283v-220h279v-41h-279v-242h283v70h41v-111q-29 -21 -49 -49.5t-20 -52.5q0 -47 51 -47q10 0 20 2t15 4.5l13 6.5l10 5l4 -14q-33 -25 -77 -25q-29 0 -50 14.5t-21 42.5q0 59 77 113h-413v41h65v503h-65v41z" />
    <glyph glyph-name="Hbar.small" horiz-adv-x="614" 
d="M410 41h65v242h-336v-242h65v-41h-181v41h65v404h-58v17h58v82h-65v41h181v-41h-65v-82h336v82h-65v41h181v-41h-65v-82h58v-17h-58v-404h65v-41h-181v41zM139 319h336v126h-336v-126z" />
    <glyph glyph-name="Iogonek.small" horiz-adv-x="227" 
d="M175 -131l5 -14q-33 -25 -78 -25q-29 0 -50 14.5t-21 42.5q0 59 75 113h-83v41h65v503h-65v41h181v-41h-65v-503h65v-41h-68q-29 -21 -49.5 -49.5t-20.5 -52.5q0 -47 51 -47q22 0 58 18z" />
    <glyph glyph-name="IJ.small" horiz-adv-x="520" 
d="M23 41h65v503h-65v41h181v-41h-65v-503h65v-41h-181v41zM316 585h181v-41h-65v-404q0 -82 -31.5 -116t-96.5 -34q-38 0 -73 6l6 41q29 -4 54 -4q48 0 68.5 25.5t20.5 81.5v404h-64v41z" />
    <glyph glyph-name="Scedilla.small" horiz-adv-x="524" 
d="M246 -63v53q-103 3 -194 29v110h41v-73q96 -22 169 -22q80 0 118.5 35t38.5 82q0 24 -12.5 44t-26.5 31.5t-42 22.5t-40.5 14.5t-41.5 10.5q-84 21 -141 62t-57 109q0 76 55.5 113t146.5 37q100 0 198 -28v-111h-41v76q-86 19 -157 19q-79 0 -113.5 -29.5t-34.5 -74.5
q0 -89 174 -128q186 -40 186 -163q0 -78 -56 -121t-148 -45v-39q75 -4 75 -62q0 -30 -22.5 -47.5t-61.5 -17.5q-28 0 -62 10l5 18q33 -7 50 -7q32 0 45.5 15t13.5 32t-14.5 30.5t-50.5 14.5z" />
    <glyph glyph-name="Tbar.small" horiz-adv-x="524" 
d="M49 585h427v-111h-43v70h-145v-261h82v-32h-82v-210h64v-41h-180v41h64v210h-82v32h82v261h-145v-70h-42v111z" />
    <glyph glyph-name="Uogonek.small" horiz-adv-x="614" 
d="M410 585h181v-41h-65v-338q0 -107 -50.5 -159.5t-155.5 -56.5q-58 -46 -58 -92q0 -47 51 -47q19 0 58 18l3 -14q-31 -25 -77 -25q-28 0 -49 14.5t-21 42.5q0 55 66 104q-105 3 -155 55.5t-50 159.5v338h-65v41h181v-41h-65v-338q0 -25 2 -44t11.5 -45.5t26.5 -43
t50.5 -29t80.5 -12.5q44 0 76 12.5t48.5 29.5t26.5 43t12 45t2 44v338h-65v41z" />
    <glyph glyph-name="c_t" horiz-adv-x="865" 
d="M455 382h-43v72q-56 13 -122 13q-94 0 -137 -59.5t-43 -157.5t43 -158t137 -60q78 0 155 20l10 -41q-84 -21 -165 -21q-233 0 -233 260t233 260q81 0 165 -21v-107zM597 148v314h-82v34l82 4l7 140h43v-140h155v-38h-155v-307q0 -64 21 -94t77 -30q26 0 57 5l5 -40
q-36 -6 -77 -6q-70 0 -101.5 35t-31.5 123z" />
    <glyph glyph-name="s_p" horiz-adv-x="1025" 
d="M422 382h-42v72q-66 15 -145 15q-34 0 -59 -8t-37 -18t-19 -24t-8.5 -22t-1.5 -16q0 -36 27 -61t106 -41q94 -20 139 -51.5t45 -93.5q0 -69 -44 -106.5t-128 -37.5q-119 0 -203 21v106h43v-71q63 -15 155 -15q34 0 59.5 9t38 20.5t19.5 27t8.5 25t1.5 18.5
q0 35 -28.5 59.5t-109.5 41.5q-86 17 -132.5 49t-46.5 99q0 62 44 96t128 34q106 0 190 -21v-107zM490 457v43h122v-50h2q69 60 166 60q187 0 187 -260q0 -120 -45.5 -190t-144.5 -70q-96 0 -163 59h-2v-207h73v-42h-195v42h72v615h-72zM915 250q0 217 -153 217
q-81 0 -150 -53v-328q67 -54 150 -54q153 0 153 218z" />
    <glyph glyph-name="s_t" horiz-adv-x="860" 
d="M422 382h-42v72q-66 15 -145 15q-34 0 -59 -8t-37 -18t-19 -24t-8.5 -22t-1.5 -16q0 -36 27 -61t106 -41q94 -20 139 -51.5t45 -93.5q0 -69 -44 -106.5t-128 -37.5q-119 0 -203 21v106h43v-71q63 -15 155 -15q34 0 59.5 9t38 20.5t19.5 27t8.5 25t1.5 18.5
q0 35 -28.5 59.5t-109.5 41.5q-86 17 -132.5 49t-46.5 99q0 62 44 96t128 34q106 0 190 -21v-107zM592 148v314h-82v34l82 4l7 140h43v-140h155v-38h-155v-307q0 -64 21 -94t77 -30q26 0 57 5l5 -40q-36 -6 -77 -6q-70 0 -101.5 35t-31.5 123z" />
    <glyph glyph-name="h.superior" horiz-adv-x="320" 
d="M198 430v23h34v145q0 63 -59 63q-41 0 -85 -36v-172h34v-23h-97v23h35v303h-35v24h63v-138h1q45 43 96 43q75 0 75 -81v-151h35v-23h-97z" />
    <glyph glyph-name="Ethsmall" horiz-adv-x="596" 
d="M23 585h274q247 0 247 -288q0 -297 -247 -297h-274v41h65v240h-65v32h65v231h-65v41zM139 41h158q194 0 194 256q0 247 -194 247h-158v-231h97v-32h-97v-240z" />
    <glyph glyph-name="Thornsmall" horiz-adv-x="547" 
d="M150 486h145q93 0 144 -52t51 -135q0 -88 -50.5 -138t-144.5 -50h-145v-111h-125v42h72v500h-72v43h125v-99zM150 444v-290h140q69 0 107.5 37.5t38.5 107.5q0 65 -39 105t-107 40h-140z" />
    <glyph glyph-name="Eng.small" horiz-adv-x="623" 
d="M535 -8v-53q0 -81 -32.5 -115t-97.5 -34q-37 0 -70 6l5 41q37 -5 57 -5q47 0 67 26t20 81v61l-346 493h-2v-452h65v-41h-178v41h65v503h-65v41h114l349 -498h2v457h-66v41h178v-41h-65v-552z" />
    <glyph glyph-name="longs_h" horiz-adv-x="900" 
d="M404 40v590q-69 29 -122 29q-67 0 -96 -31.5t-29 -92.5v-580q0 -90 -30.5 -127.5t-101.5 -37.5q-35 0 -73 6l6 40q30 -5 57 -5q53 0 72.5 29.5t19.5 94.5v580q0 87 43 126t127 39q71 0 139 -29h38v-249h2q92 85 193 85q150 0 150 -162v-305h72v-43h-192v43h70v295
q0 130 -120 130q-80 0 -175 -76v-349h70v-43h-193v43h73z" />
    <glyph glyph-name="longs_l" horiz-adv-x="600" 
d="M157 535v-580q0 -90 -30.5 -127.5t-101.5 -37.5q-35 0 -73 6l6 40q30 -5 57 -5q53 0 72.5 29.5t19.5 94.5v580q0 87 43 126t127 39q71 0 139 -29h38v-629h72v-42h-192v42h70v588q-69 29 -122 29q-67 0 -96 -31.5t-29 -92.5z" />
    <glyph glyph-name="longs_t" horiz-adv-x="632" 
d="M107 -45v587q0 88 31.5 123t101.5 35q24 0 72 -6l-5 -40q-42 5 -57 5q-54 0 -73.5 -29.5t-19.5 -94.5v-580q0 -90 -30.5 -127.5t-101.5 -37.5q-35 0 -73 6l6 40q30 -5 57 -5q53 0 72.5 29.5t19.5 94.5zM365 148v314h-83v34l83 4l6 140h44v-140h155v-38h-155v-307
q0 -64 21 -94t76 -30q27 0 58 5l5 -40q-37 -6 -78 -6q-70 0 -101 35t-31 123z" />
    <glyph glyph-name="longs_i" horiz-adv-x="595" 
d="M107 -45v587q0 88 31.5 123t101.5 35q24 0 72 -6l-5 -40q-42 5 -57 5q-54 0 -73.5 -29.5t-19.5 -94.5v-580q0 -90 -30.5 -127.5t-101.5 -37.5q-35 0 -73 6l6 40q30 -5 57 -5q53 0 72.5 29.5t19.5 94.5zM292 457v43h123v-458h72v-42h-195v42h73v415h-73z" />
    <glyph glyph-name="longs_longs" horiz-adv-x="537" 
d="M107 -45v587q0 88 31.5 123t101.5 35q24 0 72 -6l-5 -40q-42 5 -57 5q-54 0 -73.5 -29.5t-19.5 -94.5v-580q0 -90 -30.5 -127.5t-101.5 -37.5q-35 0 -73 6l6 40q30 -5 57 -5q53 0 72.5 29.5t19.5 94.5zM362 -45v587q0 88 31.5 123t101.5 35q24 0 72 -6l-5 -40
q-42 5 -57 5q-54 0 -73.5 -29.5t-19.5 -94.5v-580q0 -90 -30.5 -127.5t-101.5 -37.5q-36 0 -73 6l6 40q30 -5 57 -5q53 0 72.5 29.5t19.5 94.5z" />
    <glyph glyph-name="zero.slash" horiz-adv-x="590" 
d="M295 -10q-228 0 -228 355q0 345 228 345q227 0 227 -345q0 -355 -227 -355zM295 32q175 0 175 313q0 105 -24 172l-297 -375q42 -110 146 -110zM295 647q-175 0 -175 -302q0 -108 23 -172l296 374q-42 100 -144 100z" />
    <glyph glyph-name="zero.fitted" 
d="M281 647q-53 0 -89 -24.5t-54.5 -69.5t-26 -94.5t-7.5 -113.5q0 -313 177 -313t177 313q0 64 -7.5 113.5t-26 94.5t-54.5 69.5t-89 24.5zM281 -10q-230 0 -230 355q0 75 10.5 133.5t35.5 108t71.5 76.5t112.5 27t112.5 -27t71.5 -76.5t35.5 -108t10.5 -133.5
q0 -355 -230 -355z" />
    <glyph glyph-name="one.fitted" 
d="M306 42h197v-42h-444v42h197v594l-186 -13v36l212 26h24v-643z" />
    <glyph glyph-name="two.fitted" 
d="M451 122h42v-122h-432v51q357 240 357 428q0 42 -12.5 73.5t-30.5 48.5t-41.5 27t-41.5 13t-36 3q-79 0 -152 -36v-73h-43v105q108 50 205 50q101 0 153 -57t52 -142q0 -106 -82 -214.5t-256 -229.5v-2h318v77z" />
    <glyph glyph-name="three.fitted" 
d="M59 36v109h42v-80q67 -33 164 -33q58 0 97 15.5t55.5 41t22 45.5t5.5 43q0 63 -48.5 102.5t-145.5 39.5h-81v42h79q83 0 130 44t47 104q0 17 -3 33.5t-13.5 36t-27.5 34t-47 24.5t-70 10q-79 0 -147 -33v-79h-43v109q88 46 197 46q98 0 151 -47t53 -130q0 -63 -40 -106.5
t-101 -60.5v-2q73 -11 117 -57t44 -112q0 -89 -57.5 -137t-171.5 -48q-126 0 -208 46z" />
    <glyph glyph-name="four.fitted" 
d="M94 245h273v384h-2q-90 -182 -271 -384zM367 42v160h-326v43q221 239 312 440h65v-440h103v-43h-103v-160h73v-42h-197v42h73z" />
    <glyph glyph-name="five.fitted" 
d="M468 680v-123h-43v78h-280l-18 -290l2 -1q63 81 165 81q95 0 148.5 -56t53.5 -154q0 -106 -64 -165.5t-171 -59.5q-100 0 -202 50v102h42v-74q77 -36 157 -36q84 0 134.5 48t50.5 132q0 69 -39 119t-125 50q-94 0 -157 -84l-40 4l20 379h366z" />
    <glyph glyph-name="six.fitted" 
d="M111 350l2 -1q33 49 80 77.5t99 28.5q99 0 154 -61.5t55 -173.5q0 -105 -60 -167.5t-152 -62.5q-228 0 -228 310q0 207 75.5 298.5t199.5 91.5q65 0 144 -23v-110h-43v77q-52 13 -97 13q-54 0 -96 -22.5t-65.5 -54.5t-39.5 -75t-21.5 -77t-6.5 -68zM115 305
q-1 -45 2 -82.5t14 -74t29.5 -61t50 -40t74.5 -15.5q69 0 116 50t47 138q0 35 -7.5 65.5t-24.5 60.5t-52 47.5t-84 17.5q-48 0 -91 -29.5t-74 -76.5z" />
    <glyph glyph-name="seven.fitted" 
d="M69 680h432v-38q-227 -360 -274 -642h-55q22 139 103.5 320t169.5 313v2h-333v-78h-43v123z" />
    <glyph glyph-name="eight.fitted" 
d="M329 359v-2q88 -34 135 -76t47 -110q0 -84 -60.5 -132.5t-170.5 -48.5q-109 0 -169 47.5t-60 129.5q0 122 181 184v2q-76 27 -118.5 67t-42.5 104q0 76 58 121t153 45q94 0 151.5 -44.5t57.5 -119.5q0 -62 -40 -98.5t-122 -68.5zM103 171q0 -61 43 -101.5t137 -40.5
q93 0 135 39t42 99q0 34 -15 61t-46.5 46.5t-56 30.5t-67.5 27q-78 -26 -125 -63t-47 -98zM280 651q-25 0 -49.5 -5.5t-50.5 -18.5t-42 -39.5t-16 -63.5q0 -101 164 -146q75 25 115 57.5t40 85.5q0 37 -16 64.5t-42.5 40.5t-51.5 19t-51 6z" />
    <glyph glyph-name="nine.fitted" 
d="M451 329l-2 1q-73 -105 -179 -105q-99 0 -154 61.5t-55 173.5q0 105 60 167.5t152 62.5q228 0 228 -310q0 -207 -75 -298.5t-200 -91.5q-65 0 -144 23v109h43v-76q51 -14 98 -14q54 0 95.5 22t65.5 54.5t39.5 75.5t21 77.5t6.5 67.5zM447 375q2 58 -4.5 102.5t-23.5 85
t-53 62.5t-89 22q-68 0 -115.5 -49.5t-47.5 -137.5q0 -35 7.5 -65.5t24.5 -60.5t52 -47.5t84 -17.5t92 29.5t73 76.5z" />
    <glyph glyph-name="zerooldstyle" horiz-adv-x="570" 
d="M285 467q-83 0 -129 -61t-46 -156t46 -156.5t129 -61.5t129 61.5t46 156.5t-46 156t-129 61zM285 -10q-107 0 -167.5 71t-60.5 189t60.5 189t167.5 71t167 -71t60 -189t-60 -189t-167 -71z" />
    <glyph glyph-name="oneoldstyle" horiz-adv-x="390" 
d="M205 42h130v-42h-310v42h130v414l-123 -13v36l149 26h24v-463z" />
    <glyph glyph-name="twooldstyle" horiz-adv-x="530" 
d="M432 117h43v-117h-428v51q208 88 285.5 153.5t77.5 127.5q0 40 -16.5 68t-42.5 41t-49 18t-45 5q-82 0 -157 -37v-72h-43v107q100 48 205 48q98 0 149 -47t51 -116q0 -41 -17 -77t-42.5 -63t-73.5 -57t-93 -52t-117 -54v-2h313v75z" />
    <glyph glyph-name="threeoldstyle" horiz-adv-x="520" 
d="M40 -144v109h42v-80q66 -33 162 -33q46 0 80.5 11t52.5 26.5t28.5 37t13 37.5t2.5 33q0 63 -47.5 102.5t-143.5 39.5h-80v42h78q82 0 128.5 44t46.5 104q0 22 -6 43t-21.5 44t-49.5 37t-82 14q-79 0 -145 -33v-79h-43v109q86 46 195 46q97 0 149 -47t52 -130
q0 -63 -39.5 -106.5t-99.5 -60.5v-2q73 -11 116 -56.5t43 -112.5q0 -89 -56.5 -137t-169.5 -48q-125 0 -206 46z" />
    <glyph glyph-name="fouroldstyle" horiz-adv-x="570" 
d="M100 42h270v407h-2q-118 -238 -268 -407zM370 -138v138h-323v42q86 94 171.5 220.5t137.5 242.5h64v-463h102v-42h-102v-138h72v-42h-195v42h73z" />
    <glyph glyph-name="fiveoldstyle" horiz-adv-x="540" 
d="M455 500v-123h-43v78h-276l-18 -290l2 -1q62 81 163 81q94 0 146.5 -55.5t52.5 -154.5q0 -107 -62.5 -166t-169.5 -59q-100 0 -200 50v102h42v-74q76 -36 155 -36q83 0 133 48t50 132q0 69 -39 119t-124 50q-91 0 -155 -84l-39 4l19 379h363z" />
    <glyph glyph-name="sixoldstyle" horiz-adv-x="550" 
d="M107 350l2 -1q72 106 177 106q98 0 152 -61.5t54 -173.5q0 -106 -59 -168t-150 -62q-226 0 -226 310q0 207 74.5 298.5t197.5 91.5q64 0 143 -23v-110h-43v77q-52 13 -96 13q-53 0 -94.5 -22.5t-64.5 -54.5t-39 -75t-21.5 -77t-6.5 -68zM111 305q-8 -273 168 -273
q67 0 114 50t47 138q0 35 -7 65.5t-24.5 60.5t-52 47.5t-82.5 17.5t-90.5 -29.5t-72.5 -76.5z" />
    <glyph glyph-name="sevenoldstyle" horiz-adv-x="490" 
d="M55 500h387v-38q-223 -361 -270 -642h-55q21 139 101.5 320t168.5 313v2h-290v-78h-42v123z" />
    <glyph glyph-name="eightoldstyle" horiz-adv-x="550" 
d="M323 359v-2q86 -34 132.5 -76t46.5 -110q0 -84 -60 -132.5t-168 -48.5t-167.5 47.5t-59.5 129.5q0 69 48.5 112t130.5 72v2q-75 27 -117 67t-42 104q0 76 57.5 121t151.5 45q92 0 149 -44.5t57 -119.5q0 -62 -39.5 -98.5t-119.5 -68.5zM99 171q0 -61 42 -101.5t135 -40.5
q92 0 133.5 39t41.5 99q0 28 -11.5 51.5t-27 38.5t-43.5 30.5t-47.5 24t-53.5 20.5q-76 -26 -122.5 -63t-46.5 -98zM274 651q-25 0 -49.5 -5.5t-50 -18.5t-41.5 -39.5t-16 -63.5q0 -101 163 -146q73 25 112.5 57.5t39.5 85.5q0 37 -16 64.5t-41.5 40.5t-50.5 19t-50 6z" />
    <glyph glyph-name="nineoldstyle" horiz-adv-x="550" 
d="M442 149l-2 1q-33 -48 -78.5 -76.5t-97.5 -28.5q-98 0 -152.5 61.5t-54.5 173.5q0 105 59.5 167.5t150.5 62.5q225 0 225 -310q0 -107 -21 -185t-59.5 -121.5t-85.5 -63.5t-105 -20q-66 0 -143 23v109h43v-76q50 -14 96 -14q53 0 94.5 22t64.5 54.5t38.5 75.5t21 77.5
t6.5 67.5zM439 195q2 58 -4.5 102.5t-23.5 85t-52.5 62.5t-87.5 22q-67 0 -114 -49.5t-47 -137.5q0 -35 7 -65.5t24.5 -60.5t52 -47.5t82.5 -17.5q47 0 90 29.5t73 76.5z" />
    <glyph glyph-name="zero.taboldstyle" 
d="M281 467q-83 0 -129 -61t-46 -156t46 -156.5t129 -61.5t129 61.5t46 156.5t-46 156t-129 61zM281 -10q-107 0 -167 71t-60 189t60 189t167 71t167.5 -71t60.5 -189t-60.5 -189t-167.5 -71z" />
    <glyph glyph-name="one.taboldstyle" 
d="M306 42h197v-42h-444v42h197v414l-186 -13v36l212 26h24v-463z" />
    <glyph glyph-name="two.taboldstyle" 
d="M449 117h42v-117h-420v51q107 46 179 86t109.5 74.5t52 62.5t14.5 58q0 40 -16.5 68t-42.5 41t-49 18t-45 5q-82 0 -157 -37v-72h-42v107q98 48 204 48q98 0 149.5 -47t51.5 -116q0 -51 -21.5 -92t-70 -78t-102 -65t-143.5 -68v-2h307v75z" />
    <glyph glyph-name="three.taboldstyle" 
d="M59 -144v109h42v-80q67 -33 164 -33q58 0 97 15.5t55.5 41t22 45.5t5.5 43q0 63 -48.5 102.5t-145.5 39.5h-81v42h79q83 0 130 44t47 104q0 17 -3 33.5t-13.5 36t-27.5 34t-47 24.5t-70 10q-79 0 -147 -33v-79h-43v109q88 46 197 46q98 0 151 -47t53 -130
q0 -63 -40 -106.5t-101 -60.5v-2q73 -11 117 -57t44 -112q0 -89 -57.5 -137t-171.5 -48q-126 0 -208 46z" />
    <glyph glyph-name="four.taboldstyle" 
d="M94 42h273v407h-2q-116 -234 -271 -407zM367 -138v138h-326v42q87 94 173 220t139 243h65v-463h103v-42h-103v-138h73v-42h-197v42h73z" />
    <glyph glyph-name="five.taboldstyle" 
d="M468 500v-123h-43v78h-280l-18 -290l2 -1q63 81 165 81q95 0 148.5 -56t53.5 -154q0 -106 -64 -165.5t-171 -59.5q-100 0 -202 50v102h42v-74q77 -36 157 -36q84 0 134.5 48t50.5 132q0 69 -39 119t-125 50q-94 0 -157 -84l-40 4l20 379h366z" />
    <glyph glyph-name="six.taboldstyle" 
d="M111 350l2 -1q33 49 80 77.5t99 28.5q99 0 154 -61.5t55 -173.5q0 -105 -60 -167.5t-152 -62.5q-228 0 -228 310q0 207 75.5 298.5t199.5 91.5q65 0 144 -23v-110h-43v77q-52 13 -97 13q-54 0 -96 -22.5t-65.5 -54.5t-39.5 -75t-21.5 -77t-6.5 -68zM115 305
q-1 -45 2 -82.5t14 -74t29.5 -61t50 -40t74.5 -15.5q69 0 116 50t47 138q0 35 -7.5 65.5t-24.5 60.5t-52 47.5t-84 17.5q-48 0 -91 -29.5t-74 -76.5z" />
    <glyph glyph-name="seven.taboldstyle" 
d="M69 500h432v-38q-227 -360 -274 -642h-55q22 139 103.5 320t169.5 313v2h-333v-78h-43v123z" />
    <glyph glyph-name="eight.taboldstyle" 
d="M329 359v-2q88 -34 135 -76t47 -110q0 -84 -60.5 -132.5t-170.5 -48.5q-109 0 -169 47.5t-60 129.5q0 122 181 184v2q-76 27 -118.5 67t-42.5 104q0 76 58 121t153 45q94 0 151.5 -44.5t57.5 -119.5q0 -62 -40 -98.5t-122 -68.5zM103 171q0 -61 43 -101.5t137 -40.5
q93 0 135 39t42 99q0 34 -15 61t-46.5 46.5t-56 30.5t-67.5 27q-78 -26 -125 -63t-47 -98zM280 651q-25 0 -49.5 -5.5t-50.5 -18.5t-42 -39.5t-16 -63.5q0 -101 164 -146q75 25 115 57.5t40 85.5q0 37 -16 64.5t-42.5 40.5t-51.5 19t-51 6z" />
    <glyph glyph-name="nine.taboldstyle" 
d="M451 149l-2 1q-73 -105 -179 -105q-99 0 -154 61.5t-55 173.5q0 105 60 167.5t152 62.5q228 0 228 -310q0 -207 -75 -298.5t-200 -91.5q-65 0 -144 23v109h43v-76q51 -14 98 -14q54 0 95.5 22t65.5 54.5t39.5 75.5t21 77.5t6.5 67.5zM447 195q2 58 -4.5 102.5t-23.5 85
t-53 62.5t-89 22q-68 0 -115.5 -49.5t-47.5 -137.5q0 -35 7.5 -65.5t24.5 -60.5t52 -47.5t84 -17.5t92 29.5t73 76.5z" />
    <glyph glyph-name="currency.taboldstyle" horiz-adv-x="513" 
d="M100 249q0 68 48 114l-78 90l8 8l79 -90q44 36 100 36q55 0 99 -36l78 90l9 -8l-78 -89q50 -47 50 -115t-49 -114l76 -86l-9 -9l-77 87q-43 -35 -99 -35q-57 0 -100 35l-76 -87l-9 9l76 86q-48 46 -48 114zM112 249q0 -59 43 -102t102 -43t102.5 43t43.5 102t-43.5 102.5
t-102.5 43.5t-102 -43.5t-43 -102.5z" />
    <glyph glyph-name="cent.taboldstyle" 
d="M325 -130h-30v100h30v-100zM325 530h-30v100h30v-100zM437 382v70q-58 15 -122 15q-90 0 -135 -65.5t-45 -151.5q0 -94 47.5 -156t132.5 -62q67 0 156 32l9 -42q-86 -32 -165 -32q-114 0 -173.5 71t-59.5 189q0 116 58 188t175 72q86 0 165 -21v-107h-43z" />
    <glyph glyph-name="dollar.taboldstyle" 
d="M300 -130h-30v100h30v-100zM300 530h-30v100h30v-100zM464 382h-43v72q-66 15 -145 15q-34 0 -59 -8t-37 -18t-19 -24t-8.5 -22t-1.5 -16q0 -36 27 -61t106 -41q94 -20 139.5 -51.5t45.5 -93.5q0 -68 -44.5 -106t-128.5 -38q-118 0 -202 21v106h42v-71q63 -15 155 -15
q34 0 59.5 9t38 20.5t20 27t9 25t1.5 18.5q0 35 -28.5 59.5t-110.5 41.5q-86 17 -132.5 49t-46.5 99q0 62 44 96t129 34q106 0 190 -21v-107z" />
    <glyph glyph-name="Euro.taboldstyle" 
d="M161 215h151v-20h-147q5 -27 16.5 -53.5t31.5 -52t53 -41.5t74 -16q67 0 156 32l9 -42q-86 -32 -165 -32q-101 0 -158.5 55.5t-70.5 149.5h-54v20h52q-4 39 0 70h-52v20h54q4 31 16 62.5t36.5 65.5t70.5 55.5t106 21.5q79 0 165 -33v-95h-43v61q-68 24 -122 24
q-45 0 -80 -18t-53.5 -46.5t-28 -52t-13.5 -45.5h147v-20h-151q-4 -29 0 -70z" />
    <glyph glyph-name="franc.taboldstyle" 
d="M161 215h151v-20h-147q5 -27 16.5 -53.5t31.5 -52t53 -41.5t74 -16q67 0 156 32l9 -42q-86 -32 -165 -32q-101 0 -158.5 55.5t-70.5 149.5h-54v20h52q-4 39 0 70h-52v20h54q4 31 16 62.5t36.5 65.5t70.5 55.5t106 21.5q79 0 165 -33v-95h-43v61q-68 24 -122 24
q-45 0 -80 -18t-53.5 -46.5t-28 -52t-13.5 -45.5h147v-20h-151q-4 -29 0 -70z" />
    <glyph glyph-name="sterling.taboldstyle" 
d="M450 45v77h42v-122h-437v45h50v192h-50v33h50v89q0 75 53 113t144 38t205 -35v-95h-42v60q-96 27 -165 27q-64 0 -104.5 -27t-40.5 -83v-87h155v-33h-155v-192h295z" />
    <glyph glyph-name="yen.taboldstyle" horiz-adv-x="600" 
d="M322 42h80v-42h-210v42h80v133h-128v27h114l-167 255h-47v43h92l161 -270h2l162 270h95v-43h-56l-168 -255h115v-27h-125v-133z" />
    <glyph glyph-name="lira.taboldstyle" 
d="M161 215h151v-20h-147q5 -27 16.5 -53.5t31.5 -52t53 -41.5t74 -16q67 0 156 32l9 -42q-86 -32 -165 -32q-101 0 -158.5 55.5t-70.5 149.5h-54v20h52q-4 39 0 70h-52v20h54q4 31 16 62.5t36.5 65.5t70.5 55.5t106 21.5q79 0 165 -33v-95h-43v61q-68 24 -122 24
q-45 0 -80 -18t-53.5 -46.5t-28 -52t-13.5 -45.5h147v-20h-151q-4 -29 0 -70z" />
    <glyph glyph-name="peseta.taboldstyle" 
d="M161 215h151v-20h-147q5 -27 16.5 -53.5t31.5 -52t53 -41.5t74 -16q67 0 156 32l9 -42q-86 -32 -165 -32q-101 0 -158.5 55.5t-70.5 149.5h-54v20h52q-4 39 0 70h-52v20h54q4 31 16 62.5t36.5 65.5t70.5 55.5t106 21.5q79 0 165 -33v-95h-43v61q-68 24 -122 24
q-45 0 -80 -18t-53.5 -46.5t-28 -52t-13.5 -45.5h147v-20h-151q-4 -29 0 -70z" />
    <glyph glyph-name="colonmonetary.taboldstyle" 
d="M377 -130h-25v100h25v-100zM377 530h-25v100h25v-100zM437 382v70q-58 15 -122 15q-90 0 -135 -65.5t-45 -151.5q0 -94 47.5 -156t132.5 -62q67 0 156 32l9 -42q-86 -32 -165 -32q-114 0 -173.5 71t-59.5 189q0 116 58 188t175 72q86 0 165 -21v-107h-43zM272 -130h-25
v100h25v-100zM272 530h-25v100h25v-100z" />
    <glyph glyph-name="florin.taboldstyle" horiz-adv-x="600" 
d="M252 -45v307h-82v34l82 4v52q0 88 31.5 123t101.5 35q24 0 72 -6l-5 -40q-42 5 -57 5q-54 0 -73.5 -29.5t-19.5 -94.5v-45h150v-38h-150v-307q0 -90 -30.5 -127.5t-101.5 -37.5q-36 0 -73 6l6 40q30 -5 57 -5q53 0 72.5 29.5t19.5 94.5z" />
    <glyph glyph-name="numbersign.taboldstyle" horiz-adv-x="600" 
d="M203 500h38l-14 -128h170l14 128h37l-13 -128h100l-4 -35h-100l-18 -175h100l-4 -35h-100l-14 -127h-37l14 127h-170l-14 -127h-38l14 127h-100l4 35h100l18 175h-100l4 35h100zM224 337l-19 -175h170l19 175h-170z" />
    <glyph glyph-name="hyphensuperior" horiz-adv-x="234" 
d="M25 684h184v-23h-184v23z" />
    <glyph glyph-name="commasuperior" horiz-adv-x="81" 
d="M41 475h-11l8 65h-10v58h28v-58z" />
    <glyph glyph-name="periodsuperior" horiz-adv-x="78" 
d="M25 598h28v-58h-28v58z" />
    <glyph glyph-name="centsuperior" horiz-adv-x="303" 
d="M255 612h23v-61q-55 -16 -107 -16v-45h-14v45q-75 3 -103.5 49.5t-28.5 128.5q0 77 28.5 123t103.5 49v45h14v-45q52 -2 107 -16v-62h-23v43q-49 11 -88 11q-111 0 -111 -148q0 -71 24 -113t87 -42q40 0 88 12v42z" />
    <glyph glyph-name="dollarsuperior" horiz-adv-x="284" 
d="M25 614h23v-42q49 -12 94 -12q44 0 65.5 20t21.5 47q0 18 -8.5 31t-25.5 21.5t-27.5 12t-29.5 8.5q-108 27 -108 99q0 82 106 86v45h14v-45q43 -1 103 -16v-64h-23v43q-48 12 -88 12q-81 0 -81 -60q0 -53 94 -75q104 -24 104 -94q0 -45 -30 -69.5t-79 -26.5v-45h-14v45
q-63 2 -111 16v63z" />
    <glyph glyph-name="hypheninferior" horiz-adv-x="234" 
d="M25 -56h184v-23h-184v23z" />
    <glyph glyph-name="commainferior" horiz-adv-x="81" 
d="M41 -265h-11l8 65h-10v58h28v-58z" />
    <glyph glyph-name="periodinferior" horiz-adv-x="78" 
d="M25 -142h28v-58h-28v58z" />
    <glyph glyph-name="centinferior" horiz-adv-x="303" 
d="M255 -128h23v-61q-55 -16 -107 -16v-45h-14v45q-75 3 -103.5 49.5t-28.5 128.5q0 77 28.5 123t103.5 49v45h14v-45q52 -2 107 -16v-62h-23v43q-49 11 -88 11q-111 0 -111 -148q0 -71 24 -113t87 -42q40 0 88 12v42z" />
    <glyph glyph-name="dollarinferior" horiz-adv-x="284" 
d="M25 -126h23v-42q49 -12 94 -12q44 0 65.5 20t21.5 47q0 18 -8.5 31t-25.5 21.5t-27.5 12t-29.5 8.5q-108 27 -108 99q0 82 106 86v45h14v-45q43 -1 103 -16v-64h-23v43q-48 12 -88 12q-81 0 -81 -60q0 -53 94 -75q104 -24 104 -94q0 -45 -30 -69.5t-79 -26.5v-45h-14v45
q-63 2 -111 16v63z" />
    <glyph glyph-name="zero.denominator" horiz-adv-x="279" 
d="M140 321q-86 0 -86 -148q0 -155 86 -155q85 0 85 155q0 148 -85 148zM140 -5q-115 0 -115 178q0 172 115 172q114 0 114 -172q0 -178 -114 -178z" />
    <glyph glyph-name="one.denominator" horiz-adv-x="206" 
d="M117 23h64v-23h-156v23h64v292l-60 -6v20l75 14h13v-320z" />
    <glyph glyph-name="two.denominator" horiz-adv-x="266" 
d="M217 62h24v-62h-216v28q175 119 175 210q0 26 -8.5 43.5t-22.5 25t-25 10.5t-23 3q-36 0 -73 -18v-36h-23v54q52 25 102 25t76 -28.5t26 -71.5q0 -104 -165 -219v-1h153v37z" />
    <glyph glyph-name="three.denominator" horiz-adv-x="268" 
d="M25 18v55h23v-39q35 -16 79 -16q87 0 87 71q0 31 -23 50t-70 19h-41v24h40q41 0 63.5 21t22.5 51q0 25 -17.5 46t-61.5 21q-37 0 -71 -16v-39h-23v55q42 24 99 24q48 0 74.5 -23.5t26.5 -65.5q0 -31 -19.5 -52.5t-49.5 -30.5v-1q36 -5 57.5 -28t21.5 -57q0 -92 -114 -92
q-63 0 -104 23z" />
    <glyph glyph-name="four.denominator" horiz-adv-x="289" 
d="M54 124h132v187h-1q-47 -93 -131 -187zM186 23v78h-161v23q108 117 154 219h34v-219h51v-23h-51v-78h36v-23h-99v23h36z" />
    <glyph glyph-name="five.denominator" horiz-adv-x="268" 
d="M229 340v-63h-23v38h-136l-8 -141h1q30 39 80 39q47 0 73.5 -28t26.5 -78q0 -53 -31.5 -82.5t-85.5 -29.5q-49 0 -101 25v52h23v-37q39 -17 77 -17q40 0 64.5 23.5t24.5 64.5q0 34 -19 58.5t-61 24.5q-46 0 -76 -41l-21 2l9 190h183z" />
    <glyph glyph-name="six.denominator" horiz-adv-x="269" 
d="M53 177l1 -1q34 52 87 52q49 0 76 -31t27 -87q0 -53 -30 -84t-75 -31q-114 0 -114 155q0 103 37.5 149t99.5 46q36 0 72 -12v-56h-24v38q-22 6 -46 6q-32 0 -55 -15.5t-34.5 -39.5t-16.5 -46t-5 -43zM55 152q-4 -134 81 -134q33 0 56 24.5t23 67.5q0 38 -18 65.5
t-63 27.5q-44 0 -79 -51z" />
    <glyph glyph-name="seven.denominator" horiz-adv-x="246" 
d="M25 340h196v-21q-111 -175 -134 -319h-31q10 69 50 158t84 156v1h-142v-38h-23v63z" />
    <glyph glyph-name="eight.denominator" horiz-adv-x="279" 
d="M166 180v-1q43 -17 65.5 -38t22.5 -55q0 -43 -30 -67t-85 -24q-54 0 -84 23.5t-30 65.5q0 61 88 91v1q-78 29 -78 85q0 39 29 61.5t77 22.5q46 0 74.5 -22t28.5 -60q0 -31 -19.5 -49.5t-58.5 -33.5zM54 86q0 -30 20.5 -50t66.5 -20q45 0 65 19.5t20 48.5q0 22 -15 38.5
t-31 24t-44 17.5q-82 -26 -82 -78zM139 323q-28 0 -52 -14t-24 -47q0 -50 80 -72q35 12 54 28t19 42q0 34 -24 48.5t-53 14.5z" />
    <glyph glyph-name="nine.denominator" horiz-adv-x="269" 
d="M216 163l-1 1q-33 -51 -87 -51q-48 0 -75.5 30.5t-27.5 86.5q0 53 30 84t76 31q113 0 113 -155q0 -195 -136 -195q-38 0 -72 12v55h23v-37q26 -7 46 -7q32 0 55 15.5t34.5 39.5t16.5 46.5t5 43.5zM214 188q4 133 -81 133q-33 0 -56 -24.5t-23 -66.5q0 -38 18 -65.5
t63 -27.5q46 0 79 51z" />
    <glyph glyph-name="parenleft.denominator" horiz-adv-x="154" 
d="M25 170q0 127 84 240h20q-76 -123 -76 -240q0 -116 76 -240h-20q-84 113 -84 240z" />
    <glyph glyph-name="parenright.denominator" horiz-adv-x="154" 
d="M129 170q0 -127 -84 -240h-20q76 124 76 240q0 117 -76 240h20q84 -113 84 -240z" />
    <glyph glyph-name="cent.denominator" horiz-adv-x="303" 
d="M255 72h23v-61q-55 -16 -107 -16v-45h-14v45q-75 3 -103.5 49.5t-28.5 128.5q0 77 28.5 123t103.5 49v45h14v-45q52 -2 107 -16v-62h-23v43q-49 11 -88 11q-111 0 -111 -148q0 -71 24 -113t87 -42q40 0 88 12v42z" />
    <glyph glyph-name="dollar.denominator" horiz-adv-x="284" 
d="M25 74h23v-42q49 -12 94 -12q44 0 65.5 20t21.5 47q0 18 -8.5 31t-25.5 21.5t-27.5 12t-29.5 8.5q-108 27 -108 99q0 82 106 86v45h14v-45q43 -1 103 -16v-64h-23v43q-48 12 -88 12q-81 0 -81 -60q0 -53 94 -75q104 -24 104 -94q0 -45 -30 -69.5t-79 -26.5v-45h-14v45
q-63 2 -111 16v63z" />
    <glyph glyph-name="hyphen.denominator" horiz-adv-x="234" 
d="M25 144h184v-23h-184v23z" />
    <glyph glyph-name="comma.denominator" horiz-adv-x="81" 
d="M41 -65h-11l8 65h-10v58h28v-58z" />
    <glyph glyph-name="period.denominator" horiz-adv-x="78" 
d="M25 58h28v-58h-28v58z" />
    <glyph glyph-name="zero.numerator" horiz-adv-x="279" 
d="M140 661q-86 0 -86 -148q0 -155 86 -155q85 0 85 155q0 148 -85 148zM140 335q-115 0 -115 178q0 172 115 172q114 0 114 -172q0 -178 -114 -178z" />
    <glyph glyph-name="one.numerator" horiz-adv-x="206" 
d="M117 363h64v-23h-156v23h64v292l-60 -6v20l75 14h13v-320z" />
    <glyph glyph-name="two.numerator" horiz-adv-x="266" 
d="M217 402h24v-62h-216v28q175 119 175 210q0 26 -8.5 43.5t-22.5 25t-25 10.5t-23 3q-36 0 -73 -18v-36h-23v54q52 25 102 25t76 -28.5t26 -71.5q0 -104 -165 -219v-1h153v37z" />
    <glyph glyph-name="three.numerator" horiz-adv-x="268" 
d="M25 358v55h23v-39q35 -16 79 -16q87 0 87 71q0 31 -23 50t-70 19h-41v24h40q41 0 63.5 21t22.5 51q0 25 -17.5 46t-61.5 21q-37 0 -71 -16v-39h-23v55q42 24 99 24q48 0 74.5 -23.5t26.5 -65.5q0 -31 -19.5 -52.5t-49.5 -30.5v-1q36 -5 57.5 -28t21.5 -57q0 -92 -114 -92
q-63 0 -104 23z" />
    <glyph glyph-name="four.numerator" horiz-adv-x="289" 
d="M54 464h132v187h-1q-47 -93 -131 -187zM186 363v78h-161v23q108 117 154 219h34v-219h51v-23h-51v-78h36v-23h-99v23h36z" />
    <glyph glyph-name="five.numerator" horiz-adv-x="268" 
d="M229 680v-63h-23v38h-136l-8 -141h1q30 39 80 39q47 0 73.5 -28t26.5 -78q0 -53 -31.5 -82.5t-85.5 -29.5q-49 0 -101 25v52h23v-37q39 -17 77 -17q40 0 64.5 23.5t24.5 64.5q0 34 -19 58.5t-61 24.5q-46 0 -76 -41l-21 2l9 190h183z" />
    <glyph glyph-name="six.numerator" horiz-adv-x="269" 
d="M53 517l1 -1q34 52 87 52q49 0 76 -31t27 -87q0 -53 -30 -84t-75 -31q-114 0 -114 155q0 103 37.5 149t99.5 46q36 0 72 -12v-56h-24v38q-22 6 -46 6q-32 0 -55 -15.5t-34.5 -39.5t-16.5 -46t-5 -43zM55 492q-4 -134 81 -134q33 0 56 24.5t23 67.5q0 38 -18 65.5
t-63 27.5q-44 0 -79 -51z" />
    <glyph glyph-name="seven.numerator" horiz-adv-x="246" 
d="M25 680h196v-21q-111 -175 -134 -319h-31q10 69 50 158t84 156v1h-142v-38h-23v63z" />
    <glyph glyph-name="eight.numerator" horiz-adv-x="279" 
d="M166 520v-1q43 -17 65.5 -38t22.5 -55q0 -43 -30 -67t-85 -24q-54 0 -84 23.5t-30 65.5q0 61 88 91v1q-78 29 -78 85q0 39 29 61.5t77 22.5q46 0 74.5 -22t28.5 -60q0 -31 -19.5 -49.5t-58.5 -33.5zM54 426q0 -30 20.5 -50t66.5 -20q45 0 65 19.5t20 48.5q0 22 -15 38.5
t-31 24t-44 17.5q-82 -26 -82 -78zM139 663q-28 0 -52 -14t-24 -47q0 -50 80 -72q35 12 54 28t19 42q0 34 -24 48.5t-53 14.5z" />
    <glyph glyph-name="nine.numerator" horiz-adv-x="269" 
d="M216 503l-1 1q-33 -51 -87 -51q-48 0 -75.5 30.5t-27.5 86.5q0 53 30 84t76 31q113 0 113 -155q0 -195 -136 -195q-38 0 -72 12v55h23v-37q26 -7 46 -7q32 0 55 15.5t34.5 39.5t16.5 46.5t5 43.5zM214 528q4 133 -81 133q-33 0 -56 -24.5t-23 -66.5q0 -38 18 -65.5
t63 -27.5q46 0 79 51z" />
    <glyph glyph-name="parenleft.numerator" horiz-adv-x="154" 
d="M25 510q0 127 84 240h20q-76 -123 -76 -240q0 -116 76 -240h-20q-84 113 -84 240z" />
    <glyph glyph-name="parenright.numerator" horiz-adv-x="154" 
d="M129 510q0 -127 -84 -240h-20q76 124 76 240q0 117 -76 240h20q84 -113 84 -240z" />
    <glyph glyph-name="cent.numerator" horiz-adv-x="303" 
d="M255 412h23v-61q-55 -16 -107 -16v-45h-14v45q-75 3 -103.5 49.5t-28.5 128.5q0 77 28.5 123t103.5 49v45h14v-45q52 -2 107 -16v-62h-23v43q-49 11 -88 11q-111 0 -111 -148q0 -71 24 -113t87 -42q40 0 88 12v42z" />
    <glyph glyph-name="dollar.numerator" horiz-adv-x="284" 
d="M25 414h23v-42q49 -12 94 -12q44 0 65.5 20t21.5 47q0 18 -8.5 31t-25.5 21.5t-27.5 12t-29.5 8.5q-108 27 -108 99q0 82 106 86v45h14v-45q43 -1 103 -16v-64h-23v43q-48 12 -88 12q-81 0 -81 -60q0 -53 94 -75q104 -24 104 -94q0 -45 -30 -69.5t-79 -26.5v-45h-14v45
q-63 2 -111 16v63z" />
    <glyph glyph-name="hyphen.numerator" horiz-adv-x="234" 
d="M25 484h184v-23h-184v23z" />
    <glyph glyph-name="comma.numerator" horiz-adv-x="81" 
d="M41 275h-11l8 65h-10v58h28v-58z" />
    <glyph glyph-name="period.numerator" horiz-adv-x="78" 
d="M25 398h28v-58h-28v58z" />
    <glyph glyph-name="at.cap" horiz-adv-x="810" 
d="M543 414v-235q49 0 88 15.5t61.5 39.5t37.5 55t20.5 59.5t5.5 56.5q0 132 -96.5 214t-235.5 82q-162 0 -266 -102t-104 -266q0 -150 95.5 -246.5t242.5 -96.5l-3 -30q-161 0 -265 106t-104 267q0 174 114.5 286.5t289.5 112.5q154 0 260 -91.5t106 -234.5
q0 -112 -65 -186t-184 -74h-38v39h-2q-53 -46 -129 -46q-59 0 -93.5 28.5t-34.5 80.5q0 118 164 118h95v44q0 49 -22.5 72.5t-78.5 23.5h-8q-12 -7 -58 -13t-64 -10l-3 36q71 22 140 22q70 0 102 -27.5t32 -99.5zM503 213v126h-90q-71 0 -100 -22t-29 -66q0 -37 26 -58.5
t76 -21.5q65 0 117 42z" />
    <glyph glyph-name="parenleft.cap" horiz-adv-x="330" 
d="M79 340q0 123 44 248.5t123 231.5h36q-153 -247 -153 -480q0 -230 153 -480h-36q-79 106 -123 232t-44 248z" />
    <glyph glyph-name="parenright.cap" horiz-adv-x="330" 
d="M251 340q0 -122 -44 -248t-123 -232h-37q154 249 154 480q0 234 -154 480h37q79 -106 123 -231.5t44 -248.5z" />
    <glyph glyph-name="bracketleft.cap" horiz-adv-x="300" 
d="M120 -108h132v-32h-185v960h185v-33h-132v-895z" />
    <glyph glyph-name="bracketright.cap" horiz-adv-x="300" 
d="M47 -108h133v895h-133v33h185v-960h-185v32z" />
    <glyph glyph-name="braceleft.cap" horiz-adv-x="340" 
d="M180 5q0 -35 7.5 -58.5t16.5 -35.5t27 -18t29 -7t32 -1v-25q-84 0 -124.5 30t-40.5 116q0 31 5 95.5t5 93.5q0 31 -1.5 46.5t-7.5 36t-21 30.5t-40 14v35q25 4 40 14t21 31t7.5 36.5t1.5 46.5q0 29 -5 93.5t-5 95.5q0 86 40.5 116t124.5 30v-25q-21 0 -32 -1t-29 -7
t-27 -18t-16.5 -35.5t-7.5 -58.5q0 -30 5.5 -107.5t5.5 -108.5q0 -56 -20.5 -82.5t-60.5 -35.5v-2q40 -9 60.5 -35.5t20.5 -82.5q0 -31 -5.5 -108.5t-5.5 -107.5z" />
    <glyph glyph-name="braceright.cap" horiz-adv-x="340" 
d="M160 675q0 35 -7.5 58.5t-16.5 35.5t-27 18t-29.5 7t-32.5 1v25q84 0 124.5 -30t40.5 -116q0 -31 -5 -95.5t-5 -93.5q0 -31 1.5 -46.5t7.5 -36.5t21 -31t40 -14v-35q-25 -4 -40 -14t-21 -30.5t-7.5 -36t-1.5 -46.5q0 -29 5 -93.5t5 -95.5q0 -86 -40.5 -116t-124.5 -30v25
q21 0 32.5 1t29.5 7t27 18t16.5 35.5t7.5 58.5q0 30 -5.5 107.5t-5.5 108.5q0 56 20.5 82.5t60.5 35.5v2q-40 9 -60.5 35.5t-20.5 82.5q0 31 5.5 108.5t5.5 107.5z" />
    <glyph glyph-name="exclamdown.cap" horiz-adv-x="185" 
d="M117 565h-50v115h50v-115zM117 0h-50l3 470h45z" />
    <glyph glyph-name="questiondown.cap" horiz-adv-x="480" 
d="M422 152v-124q-96 -38 -183 -38q-92 0 -137 47t-45 120q0 50 20.5 88t49.5 59.5t58 40t49.5 42t20.5 53.5v30h45v-30q0 -32 -14 -57t-35.5 -41t-46 -34.5t-46 -35.5t-35.5 -46t-14 -66q0 -65 40.5 -94t97.5 -29q21 0 44.5 3.5t38 8t31 9.5t19.5 6v88h42zM302 680v-115
h-50v115h50z" />
    <glyph glyph-name="guillemotleft.cap" horiz-adv-x="730" 
d="M67 326l245 154v-53l-192 -117l192 -118v-52l-245 154v32zM417 326l245 154v-53l-192 -117l192 -118v-52l-245 154v32z" />
    <glyph glyph-name="guillemotright.cap" horiz-adv-x="730" 
d="M67 480l245 -154v-32l-245 -154v52l193 118l-193 117v53zM417 480l245 -154v-32l-245 -154v52l193 118l-193 117v53z" />
    <glyph glyph-name="guilsinglleft.cap" horiz-adv-x="380" 
d="M67 326l245 154v-53l-192 -117l192 -118v-52l-245 154v32z" />
    <glyph glyph-name="guilsinglright.cap" horiz-adv-x="380" 
d="M67 480l245 -154v-32l-245 -154v52l193 118l-193 117v53z" />
    <glyph glyph-name="hyphen.cap" horiz-adv-x="500" 
d="M67 346h365v-42h-365v42z" />
    <glyph glyph-name="endash.cap" horiz-adv-x="600" 
d="M67 346h465v-42h-465v42z" />
    <glyph glyph-name="emdash.cap" horiz-adv-x="700" 
d="M67 346h565v-42h-565v42z" />
    <glyph glyph-name="periodcentered.cap" horiz-adv-x="185" 
d="M67 307h50v-115h-50v115z" />
    <glyph glyph-name="percent.oldstyle" horiz-adv-x="760" 
d="M582 580l-370 -580h-35l370 580h35zM181 303q-62 0 -95.5 35.5t-33.5 96.5q0 62 33.5 97t95.5 35t95.5 -35t33.5 -97t-33.5 -97t-95.5 -35zM181 329q47 0 72 28t25 78t-25 78t-72 28t-71.5 -28t-24.5 -78t24.5 -78t71.5 -28zM578 12q-62 0 -95.5 35.5t-33.5 97.5
q0 61 33.5 96.5t95.5 35.5t95.5 -35t33.5 -97t-33.5 -97.5t-95.5 -35.5zM578 39q47 0 72 28t25 78t-25 78t-72 28t-71.5 -28t-24.5 -78t24.5 -78t71.5 -28z" />
    <glyph glyph-name="perthousand.oldstyle" horiz-adv-x="1110" 
d="M582 580l-370 -580h-35l370 580h35zM181 303q-62 0 -95.5 35.5t-33.5 96.5q0 62 33.5 97t95.5 35t95.5 -35t33.5 -97t-33.5 -97t-95.5 -35zM181 329q47 0 72 28t25 78t-25 78t-72 28t-71.5 -28t-24.5 -78t24.5 -78t71.5 -28zM578 12q-62 0 -95.5 35.5t-33.5 97.5
q0 61 33.5 96.5t95.5 35.5t95.5 -35t33.5 -97t-33.5 -97.5t-95.5 -35.5zM578 39q47 0 72 28t25 78t-25 78t-72 28t-71.5 -28t-24.5 -78t24.5 -78t71.5 -28zM930 12q-62 0 -95.5 35.5t-33.5 97.5t33.5 97t95.5 35t95.5 -35t33.5 -97t-33.5 -97.5t-95.5 -35.5zM930 39
q47 0 72 28t25 78t-25 78t-72 28t-72 -28t-25 -78t25 -78t72 -28z" />
    <glyph glyph-name="overscore" horiz-adv-x="400" 
d="M52 635h295v-38h-295v38z" />
    </font>
</defs>
</svg>
